<svg width="65" height="65" viewBox="0 0 65 65" fill="none" xmlns="http://www.w3.org/2000/svg">
<path d="M0 5C0 2.23858 2.23858 0 5 0H45C56.0457 0 65 8.95431 65 20V60C65 62.7614 62.7614 65 60 65H20C8.9543 65 0 56.0457 0 45V5Z" fill="#FFE500"/>
<path d="M27 30C27 28.8954 27.8954 28 29 28H33.5C36.2614 28 38.5 30.2386 38.5 33V49C38.5 50.1046 37.6046 51 36.5 51H32C29.2386 51 27 48.7614 27 46V30Z" fill="#1A0034"/>
<path d="M27 16C27 14.8954 27.8954 14 29 14H33.5C36.2614 14 38.5 16.2386 38.5 19V22C38.5 23.1046 37.6046 24 36.5 24H32C29.2386 24 27 21.7614 27 19V16Z" fill="#1A0034"/>
</svg>
