<svg width="32" height="30" viewBox="0 0 32 30" fill="none" xmlns="http://www.w3.org/2000/svg">
<path d="M0 26C0 23.8783 0.842854 21.8434 2.34315 20.3431C3.84344 18.8429 5.87827 18 8 18H24C26.1217 18 28.1566 18.8429 29.6569 20.3431C31.1571 21.8434 32 23.8783 32 26C32 27.0609 31.5786 28.0783 30.8284 28.8284C30.0783 29.5786 29.0609 30 28 30H4C2.93913 30 1.92172 29.5786 1.17157 28.8284C0.421427 28.0783 0 27.0609 0 26Z" fill="#A178CA"/>
<path d="M16 12C19.3137 12 22 9.31371 22 6C22 2.68629 19.3137 0 16 0C12.6863 0 10 2.68629 10 6C10 9.31371 12.6863 12 16 12Z" fill="#A178CA"/>
</svg>
