<svg width="38" height="28" viewBox="0 0 38 28" fill="none" xmlns="http://www.w3.org/2000/svg">
<path d="M1.7232 0.9821C1.7232 0.7159 1.939 0.5 2.2053 0.5H36.9017C37.1779 0.5 37.4017 0.7239 37.4017 1V25.5536C37.4017 25.8297 37.1779 26.0536 36.9017 26.0536H36.5175C36.4707 26.0536 36.4302 26.086 36.4199 26.1316L36.0877 27.6096C36.0364 27.8378 35.8338 28 35.5999 28H32.8904C32.661 28 32.461 27.8439 32.4053 27.6213L32.0189 26.0757C32.0078 26.0312 31.9678 26 31.9219 26H7.0781C7.0322 26 6.9922 26.0312 6.9811 26.0757L6.5947 27.6213C6.539 27.8439 6.339 28 6.1096 28H3.8331C3.6314 28 3.4494 27.8788 3.3717 27.6926L2.7131 26.115C2.6976 26.0778 2.6612 26.0536 2.6208 26.0536H2.2232C1.947 26.0536 1.7232 25.8297 1.7232 25.5536V24.7071C1.7232 24.6519 1.6784 24.6071 1.6232 24.6071H1C0.7239 24.6071 0.5 24.3833 0.5 24.1071V18.8393C0.5 18.5631 0.7239 18.3393 1 18.3393H1.6232C1.6784 18.3393 1.7232 18.2945 1.7232 18.2393V4.6C1.7232 4.5448 1.6784 4.5 1.6232 4.5H1.25C1.1119 4.5 1 4.3881 1 4.25V2.75C1 2.6119 1.1119 2.5 1.25 2.5H1.6232C1.6784 2.5 1.7232 2.4552 1.7232 2.4V0.9821Z" fill="#1A0034"/>
</svg>
