<svg width="65" height="65" viewBox="0 0 65 65" fill="none" xmlns="http://www.w3.org/2000/svg">
<path d="M0 5C0 2.23858 2.23858 0 5 0H45C56.0457 0 65 8.95431 65 20V60C65 62.7614 62.7614 65 60 65H20C8.9543 65 0 56.0457 0 45V5Z" fill="#FFE500"/>
<path d="M15.7232 18.9821C15.7232 18.7159 15.939 18.5 16.2053 18.5H50.9017C51.1779 18.5 51.4017 18.7239 51.4017 19V43.5536C51.4017 43.8297 51.1779 44.0536 50.9017 44.0536H50.5175C50.4707 44.0536 50.4302 44.086 50.4199 44.1316L50.0877 45.6096C50.0364 45.8378 49.8338 46 49.5999 46H46.8904C46.661 46 46.461 45.8439 46.4053 45.6213L46.0189 44.0757C46.0078 44.0312 45.9678 44 45.9219 44H21.0781C21.0322 44 20.9922 44.0312 20.9811 44.0757L20.5947 45.6213C20.539 45.8439 20.339 46 20.1096 46H17.8331C17.6314 46 17.4494 45.8788 17.3717 45.6926L16.7131 44.115C16.6976 44.0778 16.6612 44.0536 16.6208 44.0536H16.2232C15.947 44.0536 15.7232 43.8297 15.7232 43.5536V42.7071C15.7232 42.6519 15.6784 42.6071 15.6232 42.6071H15C14.7239 42.6071 14.5 42.3833 14.5 42.1071V36.8393C14.5 36.5631 14.7239 36.3393 15 36.3393H15.6232C15.6784 36.3393 15.7232 36.2945 15.7232 36.2393V22.6C15.7232 22.5448 15.6784 22.5 15.6232 22.5H15.25C15.1119 22.5 15 22.3881 15 22.25V20.75C15 20.6119 15.1119 20.5 15.25 20.5H15.6232C15.6784 20.5 15.7232 20.4552 15.7232 20.4V18.9821V18.9821Z" fill="#1A0034"/>
</svg>
