<svg width="151" height="112" viewBox="0 0 151 112" fill="none" xmlns="http://www.w3.org/2000/svg">
<path d="M3 1C3 0.447715 3.44772 0 4 0H149.578H150C150.552 0 151 0.447715 151 1V105C151 105.552 150.552 106 150 106H147.721C147.29 106 146.908 106.275 146.772 106.684L145.228 111.316C145.092 111.725 144.71 112 144.279 112H135.721C135.29 112 134.908 111.725 134.772 111.316L133.228 106.684C133.092 106.275 132.71 106 132.279 106H21.7208C21.2903 106 20.9082 106.275 20.7721 106.684L19.2279 111.316C19.0918 111.725 18.7097 112 18.2792 112H9.72076C9.29033 112 8.90819 111.725 8.77208 111.316L7.22792 106.684C7.09181 106.275 6.70967 106 6.27924 106H4C3.44772 106 3 105.552 3 105V100.5C3 100.224 2.77614 100 2.5 100H1C0.447715 100 0 99.5523 0 99V75C0 74.4477 0.447715 74 1 74H2.5C2.77614 74 3 73.7761 3 73.5V12V2V1Z" fill="#EB00FF"/>
<path d="M132.057 106H148H147.781C147.322 106 146.922 106.312 146.811 106.757L145.689 111.243C145.578 111.688 145.178 112 144.719 112H135.721C135.29 112 134.908 111.725 134.772 111.316L133.228 106.684C133.092 106.275 132.71 106 132.279 106H132.057Z" fill="#00D1FF"/>
<path d="M6 106H22H21.7808C21.3219 106 20.922 106.312 20.8107 106.757L19.6894 111.243C19.5781 111.688 19.1781 112 18.7193 112H9.72078C9.29035 112 8.90822 111.725 8.7721 111.316L7.22793 106.684C7.09181 106.275 6.70967 106 6.27924 106H6Z" fill="#00D1FF"/>
<path d="M1 9C1 8.44772 1.44772 8 2 8H3V18H2C1.44772 18 1 17.5523 1 17V9Z" fill="#00D1FF"/>
<rect x="9" y="6" width="136" height="94" rx="1" fill="black" fill-opacity="0.1"/>
<rect x="15" y="75" width="100" height="12" rx="1" fill="black" fill-opacity="0.1"/>
<rect x="30" y="93" width="34" height="5" rx="1" fill="black" fill-opacity="0.1"/>
<rect x="70" y="93" width="34" height="5" rx="1" fill="black" fill-opacity="0.1"/>
<rect x="86" y="24" width="45" height="36" rx="1" fill="black" fill-opacity="0.1"/>
<rect x="35" y="35" width="14" height="14" rx="1" fill="black" fill-opacity="0.1"/>
<path d="M44 16H46.5C46.5 16 48 20.5 45 25C42 29.5 43.5 35 43.5 35H40.5C40.5 35 39 29.5 42 25C45 20.5 44 16 44 16Z" fill="#BF00CF"/>
<rect x="49" y="17" width="31" height="5" rx="1" fill="black" fill-opacity="0.1"/>
<rect x="81" y="17" width="31" height="5" rx="1" fill="black" fill-opacity="0.1"/>
<rect x="115" y="8" width="8" height="74" rx="1" transform="rotate(90 115 8)" fill="black" fill-opacity="0.1"/>
<rect x="61" y="63" width="4" height="25" rx="1" transform="rotate(90 61 63)" fill="black" fill-opacity="0.1"/>
<path d="M9 74.4234L145 24.5V99C145 99.5522 144.552 100 144 100H10C9.44772 100 9 99.5522 9 99V74.4234Z" fill="white" fill-opacity="0.1"/>
</svg>
