<svg width="1131" height="397" viewBox="0 0 1131 397" fill="none" xmlns="http://www.w3.org/2000/svg">
<path d="M0 248L1131 6V397H0V248Z" fill="#290048"/>
<path d="M0 248L1131 6V397H0V248Z" fill="url(#paint0_angular_4_1335)" fill-opacity="0.05"/>
<path d="M343 5C343 2.23858 345.239 0 348 0H796C798.761 0 801 2.23858 801 5V323.53C801 326.291 798.761 328.53 796 328.53H788.103H744.712H397.586H354.195H348C345.239 328.53 343 326.291 343 323.53V302C343 300.895 342.105 300 341 300H332C329.239 300 327 297.761 327 295V234C327 231.239 329.239 229 332 229H341C342.105 229 343 228.105 343 227V5Z" fill="#00D1FF"/>
<path d="M741.29 328.53H790.702C788.88 328.53 787.293 329.769 786.851 331.537L783.9 343.339C783.344 345.564 781.344 347.126 779.05 347.126H754.014C751.862 347.126 749.951 345.749 749.271 343.707L745.136 331.302C744.584 329.647 743.035 328.53 741.29 328.53Z" fill="#FFE500"/>
<path d="M350.596 328.53H400.186C398.364 328.53 396.776 329.769 396.335 331.537L393.384 343.338C392.828 345.564 390.828 347.126 388.533 347.126H363.498C361.346 347.126 359.435 345.749 358.755 343.707L354.676 331.47C354.09 329.714 352.447 328.53 350.596 328.53Z" fill="#FFE500"/>
<path d="M336 23C336 21.3431 337.343 20 339 20H343V51H339C337.343 51 336 49.6569 336 48V23Z" fill="#FFE500"/>
<rect x="352" y="9" width="440" height="310" rx="3" fill="#00BDF2"/>
<rect x="355" y="47" width="233" height="236" rx="3" fill="#00A9DE"/>
<rect x="387" y="229" width="168" height="18" rx="3" fill="#009FD4"/>
<rect x="391" y="233" width="160" height="8" rx="1" fill="#0095CA"/>
<rect x="427" y="201" width="97" height="21" rx="3" fill="#009FD4"/>
<rect x="432" y="204" width="89" height="15" rx="2" fill="#003B7D"/>
<rect x="432" y="204" width="4" height="15" rx="0.5" fill="#001355"/>
<rect x="433" y="210.5" width="2" height="2" rx="1" fill="#003B7D"/>
<rect x="509" y="207" width="9" height="9" rx="1" fill="#001355"/>
<rect x="440" y="209" width="25" height="1" rx="0.5" fill="#001355"/>
<rect x="440" y="207" width="51" height="1" rx="0.5" fill="#001355"/>
<path d="M576 290.5C576 289.672 576.672 289 577.5 289H739.5C740.328 289 741 289.672 741 290.5C741 291.328 740.328 292 739.5 292H739C737.895 292 737 292.895 737 294V314C737 315.105 737.895 316 739 316H739.5C740.328 316 741 316.672 741 317.5C741 318.328 740.328 319 739.5 319H577.5C576.672 319 576 318.328 576 317.5C576 316.672 576.672 316 577.5 316H578C579.105 316 580 315.105 580 314V294C580 292.895 579.105 292 578 292H577.5C576.672 292 576 291.328 576 290.5Z" fill="#003B7D"/>
<rect x="727" y="314" width="7" height="2" rx="1" fill="#001355"/>
<rect x="583" y="292" width="7" height="2" rx="1" fill="#001355"/>
<path d="M400 290.5C400 289.672 400.672 289 401.5 289H563.5C564.328 289 565 289.672 565 290.5C565 291.328 564.328 292 563.5 292H563C561.895 292 561 292.895 561 294V314C561 315.105 561.895 316 563 316H563.5C564.328 316 565 316.672 565 317.5C565 318.328 564.328 319 563.5 319H401.5C400.672 319 400 318.328 400 317.5C400 316.672 400.672 316 401.5 316H402C403.105 316 404 315.105 404 314V294C404 292.895 403.105 292 402 292H401.5C400.672 292 400 291.328 400 290.5Z" fill="#003B7D"/>
<rect x="551" y="314" width="7" height="2" rx="1" fill="#001355"/>
<rect x="407" y="292" width="7" height="2" rx="1" fill="#001355"/>
<path d="M576 10.5C576 9.67157 576.672 9 577.5 9H739.5C740.328 9 741 9.67157 741 10.5C741 11.3284 740.328 12 739.5 12H739C737.895 12 737 12.8954 737 14V34C737 35.1046 737.895 36 739 36H739.5C740.328 36 741 36.6716 741 37.5C741 38.3284 740.328 39 739.5 39H577.5C576.672 39 576 38.3284 576 37.5C576 36.6716 576.672 36 577.5 36H578C579.105 36 580 35.1046 580 34V14C580 12.8954 579.105 12 578 12H577.5C576.672 12 576 11.3284 576 10.5Z" fill="#003B7D"/>
<rect x="727" y="34" width="7" height="2" rx="1" fill="#001355"/>
<rect x="583" y="12" width="7" height="2" rx="1" fill="#001355"/>
<path d="M400 10.5C400 9.67157 400.672 9 401.5 9H563.5C564.328 9 565 9.67157 565 10.5C565 11.3284 564.328 12 563.5 12H563C561.895 12 561 12.8954 561 14V34C561 35.1046 561.895 36 563 36H563.5C564.328 36 565 36.6716 565 37.5C565 38.3284 564.328 39 563.5 39H401.5C400.672 39 400 38.3284 400 37.5C400 36.6716 400.672 36 401.5 36H402C403.105 36 404 35.1046 404 34V14C404 12.8954 403.105 12 402 12H401.5C400.672 12 400 11.3284 400 10.5Z" fill="#003B7D"/>
<rect x="551" y="34" width="7" height="2" rx="1" fill="#001355"/>
<rect x="407" y="12" width="7" height="2" rx="1" fill="#001355"/>
<path d="M352 235H739.102C740.191 235 741.057 235.913 741 237V254V257C741 257.552 741.448 258 742 258H743.5C744.328 258 745 258.672 745 259.5V273C745 274.655 743.655 275.995 742 275.989L352 274.504V235Z" fill="#003B7D"/>
<rect x="740" y="269" width="70" height="1.99999" rx="0.999997" transform="rotate(-180 740 269)" fill="#001355"/>
<rect x="740" y="266" width="115" height="1.99999" rx="0.999995" transform="rotate(-180 740 266)" fill="#001355"/>
<rect x="361" y="238" width="8" height="2" rx="1" transform="rotate(90 361 238)" fill="#001355"/>
<rect x="358" y="238" width="18" height="2" rx="1" transform="rotate(90 358 238)" fill="#001355"/>
<path d="M740 242H743C743.552 242 744 242.448 744 243V247C744 247.552 743.552 248 743 248H740L740 242Z" fill="#001355"/>
<rect x="738" y="238" width="1" height="14" rx="0.5" fill="#001355"/>
<rect x="736" y="238" width="1" height="14" rx="0.5" fill="#001355"/>
<rect x="734" y="238" width="1" height="14" rx="0.5" fill="#001355"/>
<rect x="732" y="238" width="1" height="14" rx="0.5" fill="#001355"/>
<rect x="730" y="238" width="1" height="14" rx="0.5" fill="#001355"/>
<rect x="728" y="238" width="1" height="14" rx="0.5" fill="#001355"/>
<rect x="726" y="238" width="1" height="14" rx="0.5" fill="#001355"/>
<rect x="724" y="238" width="1" height="14" rx="0.5" fill="#001355"/>
<rect x="722" y="238" width="1" height="14" rx="0.5" fill="#001355"/>
<rect x="720" y="238" width="1" height="14" rx="0.5" fill="#001355"/>
<rect x="718" y="238" width="1" height="14" rx="0.5" fill="#001355"/>
<rect x="716" y="238" width="1" height="14" rx="0.5" fill="#001355"/>
<rect x="714" y="238" width="1" height="14" rx="0.5" fill="#001355"/>
<rect x="712" y="238" width="1" height="14" rx="0.5" fill="#001355"/>
<rect x="710" y="238" width="1" height="14" rx="0.5" fill="#001355"/>
<rect x="708" y="238" width="1" height="14" rx="0.5" fill="#001355"/>
<rect x="706" y="238" width="1" height="14" rx="0.5" fill="#001355"/>
<rect x="704" y="238" width="1" height="14" rx="0.5" fill="#001355"/>
<rect x="702" y="238" width="1" height="14" rx="0.5" fill="#001355"/>
<rect x="700" y="238" width="1" height="14" rx="0.5" fill="#001355"/>
<rect x="698" y="238" width="1" height="14" rx="0.5" fill="#001355"/>
<rect x="696" y="238" width="1" height="14" rx="0.5" fill="#001355"/>
<rect x="694" y="238" width="1" height="14" rx="0.5" fill="#001355"/>
<rect x="692" y="238" width="1" height="14" rx="0.5" fill="#001355"/>
<rect x="690" y="238" width="1" height="14" rx="0.5" fill="#001355"/>
<rect x="688" y="238" width="1" height="14" rx="0.5" fill="#001355"/>
<rect x="686" y="238" width="1" height="14" rx="0.5" fill="#001355"/>
<rect x="684" y="238" width="1" height="14" rx="0.5" fill="#001355"/>
<rect x="682" y="238" width="1" height="14" rx="0.5" fill="#001355"/>
<rect x="680" y="238" width="1" height="14" rx="0.5" fill="#001355"/>
<rect x="678" y="238" width="1" height="14" rx="0.5" fill="#001355"/>
<rect x="676" y="238" width="1" height="14" rx="0.5" fill="#001355"/>
<rect x="674" y="238" width="1" height="14" rx="0.5" fill="#001355"/>
<rect x="672" y="238" width="1" height="14" rx="0.5" fill="#001355"/>
<rect x="670" y="238" width="1" height="14" rx="0.5" fill="#001355"/>
<rect x="668" y="238" width="1" height="14" rx="0.5" fill="#001355"/>
<rect x="666" y="238" width="1" height="14" rx="0.5" fill="#001355"/>
<rect x="664" y="238" width="1" height="14" rx="0.5" fill="#001355"/>
<rect x="662" y="238" width="1" height="14" rx="0.5" fill="#001355"/>
<rect x="660" y="238" width="1" height="14" rx="0.5" fill="#001355"/>
<rect x="658" y="238" width="1" height="14" rx="0.5" fill="#001355"/>
<rect x="656" y="238" width="1" height="14" rx="0.5" fill="#001355"/>
<rect x="654" y="238" width="1" height="14" rx="0.5" fill="#001355"/>
<rect x="652" y="238" width="1" height="14" rx="0.5" fill="#001355"/>
<rect x="650" y="238" width="1" height="14" rx="0.5" fill="#001355"/>
<rect x="648" y="238" width="1" height="14" rx="0.5" fill="#001355"/>
<rect x="646" y="238" width="1" height="14" rx="0.5" fill="#001355"/>
<rect x="644" y="238" width="1" height="14" rx="0.5" fill="#001355"/>
<rect x="616" y="242" width="27" height="6" fill="#001355"/>
<rect x="614" y="238" width="1" height="14" rx="0.5" fill="#001355"/>
<rect x="612" y="238" width="1" height="14" rx="0.5" fill="#001355"/>
<rect x="610" y="238" width="1" height="14" rx="0.5" fill="#001355"/>
<rect x="608" y="238" width="1" height="14" rx="0.5" fill="#001355"/>
<rect x="606" y="238" width="1" height="14" rx="0.5" fill="#001355"/>
<rect x="604" y="238" width="1" height="14" rx="0.5" fill="#001355"/>
<rect x="602" y="238" width="1" height="14" rx="0.5" fill="#001355"/>
<rect x="600" y="238" width="1" height="14" rx="0.5" fill="#001355"/>
<rect x="598" y="238" width="1" height="14" rx="0.5" fill="#001355"/>
<rect x="596" y="238" width="1" height="14" rx="0.5" fill="#001355"/>
<rect x="594" y="238" width="1" height="14" rx="0.5" fill="#001355"/>
<rect x="592" y="238" width="1" height="14" rx="0.5" fill="#001355"/>
<rect x="590" y="238" width="1" height="14" rx="0.5" fill="#001355"/>
<rect x="588" y="238" width="1" height="14" rx="0.5" fill="#001355"/>
<rect x="586" y="238" width="1" height="14" rx="0.5" fill="#001355"/>
<rect x="584" y="238" width="1" height="14" rx="0.5" fill="#001355"/>
<rect x="582" y="238" width="1" height="14" rx="0.5" fill="#001355"/>
<rect x="580" y="238" width="1" height="14" rx="0.5" fill="#001355"/>
<rect x="578" y="238" width="1" height="14" rx="0.5" fill="#001355"/>
<rect x="576" y="238" width="1" height="14" rx="0.5" fill="#001355"/>
<rect x="574" y="238" width="1" height="14" rx="0.5" fill="#001355"/>
<rect x="572" y="238" width="1" height="14" rx="0.5" fill="#001355"/>
<rect x="570" y="238" width="1" height="14" rx="0.5" fill="#001355"/>
<rect x="568" y="238" width="1" height="14" rx="0.5" fill="#001355"/>
<rect x="566" y="238" width="1" height="14" rx="0.5" fill="#001355"/>
<rect x="564" y="238" width="1" height="14" rx="0.5" fill="#001355"/>
<rect x="562" y="238" width="1" height="14" rx="0.5" fill="#001355"/>
<rect x="560" y="238" width="1" height="14" rx="0.5" fill="#001355"/>
<rect x="558" y="238" width="1" height="14" rx="0.5" fill="#001355"/>
<rect x="556" y="238" width="1" height="14" rx="0.5" fill="#001355"/>
<rect x="554" y="238" width="1" height="14" rx="0.5" fill="#001355"/>
<rect x="552" y="238" width="1" height="14" rx="0.5" fill="#001355"/>
<rect x="550" y="238" width="1" height="14" rx="0.5" fill="#001355"/>
<rect x="548" y="238" width="1" height="14" rx="0.5" fill="#001355"/>
<rect x="546" y="238" width="1" height="14" rx="0.5" fill="#001355"/>
<rect x="544" y="238" width="1" height="14" rx="0.5" fill="#001355"/>
<rect x="542" y="238" width="1" height="14" rx="0.5" fill="#001355"/>
<rect x="540" y="238" width="1" height="14" rx="0.5" fill="#001355"/>
<rect x="538" y="238" width="1" height="14" rx="0.5" fill="#001355"/>
<rect x="536" y="238" width="1" height="14" rx="0.5" fill="#001355"/>
<rect x="534" y="238" width="1" height="14" rx="0.5" fill="#001355"/>
<rect x="532" y="238" width="1" height="14" rx="0.5" fill="#001355"/>
<rect x="530" y="238" width="1" height="14" rx="0.5" fill="#001355"/>
<rect x="528" y="238" width="1" height="14" rx="0.5" fill="#001355"/>
<rect x="526" y="238" width="1" height="14" rx="0.5" fill="#001355"/>
<rect x="524" y="238" width="1" height="14" rx="0.5" fill="#001355"/>
<rect x="522" y="238" width="1" height="14" rx="0.5" fill="#001355"/>
<rect x="520" y="238" width="1" height="14" rx="0.5" fill="#001355"/>
<rect x="518" y="238" width="1" height="14" rx="0.5" fill="#001355"/>
<rect x="516" y="238" width="1" height="14" rx="0.5" fill="#001355"/>
<rect x="514" y="238" width="1" height="14" rx="0.5" fill="#001355"/>
<rect x="512" y="238" width="1" height="14" rx="0.5" fill="#001355"/>
<rect x="510" y="238" width="1" height="14" rx="0.5" fill="#001355"/>
<rect x="508" y="238" width="1" height="14" rx="0.5" fill="#001355"/>
<rect x="506" y="238" width="1" height="14" rx="0.5" fill="#001355"/>
<rect x="504" y="238" width="1" height="14" rx="0.5" fill="#001355"/>
<rect x="502" y="238" width="1" height="14" rx="0.5" fill="#001355"/>
<rect x="500" y="238" width="1" height="14" rx="0.5" fill="#001355"/>
<rect x="498" y="238" width="1" height="14" rx="0.5" fill="#001355"/>
<rect x="496" y="238" width="1" height="14" rx="0.5" fill="#001355"/>
<rect x="494" y="238" width="1" height="14" rx="0.5" fill="#001355"/>
<rect x="492" y="238" width="1" height="14" rx="0.5" fill="#001355"/>
<rect x="490" y="238" width="1" height="14" rx="0.5" fill="#001355"/>
<rect x="488" y="238" width="1" height="14" rx="0.5" fill="#001355"/>
<rect x="486" y="238" width="1" height="14" rx="0.5" fill="#001355"/>
<rect x="484" y="238" width="1" height="14" rx="0.5" fill="#001355"/>
<rect x="482" y="238" width="1" height="14" rx="0.5" fill="#001355"/>
<rect x="480" y="238" width="1" height="14" rx="0.5" fill="#001355"/>
<rect x="478" y="238" width="1" height="14" rx="0.5" fill="#001355"/>
<rect x="476" y="238" width="1" height="14" rx="0.5" fill="#001355"/>
<rect x="474" y="238" width="1" height="14" rx="0.5" fill="#001355"/>
<rect x="472" y="238" width="1" height="14" rx="0.5" fill="#001355"/>
<rect x="470" y="238" width="1" height="14" rx="0.5" fill="#001355"/>
<rect x="468" y="238" width="1" height="14" rx="0.5" fill="#001355"/>
<rect x="466" y="238" width="1" height="14" rx="0.5" fill="#001355"/>
<rect x="464" y="238" width="1" height="14" rx="0.5" fill="#001355"/>
<rect x="462" y="238" width="1" height="14" rx="0.5" fill="#001355"/>
<rect x="460" y="238" width="1" height="14" rx="0.5" fill="#001355"/>
<rect x="458" y="238" width="1" height="14" rx="0.5" fill="#001355"/>
<rect x="456" y="238" width="1" height="14" rx="0.5" fill="#001355"/>
<rect x="454" y="238" width="1" height="14" rx="0.5" fill="#001355"/>
<rect x="452" y="238" width="1" height="14" rx="0.5" fill="#001355"/>
<rect x="450" y="238" width="1" height="14" rx="0.5" fill="#001355"/>
<rect x="448" y="238" width="1" height="14" rx="0.5" fill="#001355"/>
<rect x="446" y="238" width="1" height="14" rx="0.5" fill="#001355"/>
<rect x="444" y="238" width="1" height="14" rx="0.5" fill="#001355"/>
<rect x="442" y="238" width="1" height="14" rx="0.5" fill="#001355"/>
<rect x="440" y="238" width="1" height="14" rx="0.5" fill="#001355"/>
<rect x="438" y="238" width="1" height="14" rx="0.5" fill="#001355"/>
<rect x="436" y="238" width="1" height="14" rx="0.5" fill="#001355"/>
<rect x="434" y="238" width="1" height="14" rx="0.5" fill="#001355"/>
<rect x="432" y="238" width="1" height="14" rx="0.5" fill="#001355"/>
<rect x="430" y="238" width="1" height="14" rx="0.5" fill="#001355"/>
<rect x="428" y="238" width="1" height="14" rx="0.5" fill="#001355"/>
<rect x="426" y="238" width="1" height="14" rx="0.5" fill="#001355"/>
<rect x="424" y="238" width="1" height="14" rx="0.5" fill="#001355"/>
<path d="M423 248L420 248C419.448 248 419 247.552 419 247L419 243C419 242.448 419.448 242 420 242L423 242L423 248Z" fill="#001355"/>
<path d="M415.5 237H533L517 255H415.5V237Z" fill="#003B7D"/>
<rect x="510" y="246" width="70" height="1.99999" rx="0.999997" transform="rotate(-180 510 246)" fill="#001355"/>
<rect x="517" y="243" width="77" height="1.99999" rx="0.999997" transform="rotate(-180 517 243)" fill="#001355"/>
<path d="M333 236C333 235.448 333.448 235 334 235H335C335.552 235 336 235.448 336 236V237C336 237.552 336.448 238 337 238H338C338.552 238 339 237.552 339 237V236C339 235.448 339.448 235 340 235H343V274.5H334C333.448 274.5 333 274.052 333 273.5V267C333 266.448 333.448 266 334 266H335C335.552 266 336 265.552 336 265C336 264.448 335.552 264 335 264H334C333.448 264 333 263.552 333 263V247C333 246.448 333.448 246 334 246H335C335.552 246 336 245.552 336 245C336 244.448 335.552 244 335 244H334C333.448 244 333 243.552 333 243V236Z" fill="#003B7D" fill-opacity="0.5"/>
<path d="M333 278C333 277.448 333.448 277 334 277H338H342C342.552 277 343 277.448 343 278V293C343 293.552 342.552 294 342 294H334C333.448 294 333 293.552 333 293V278Z" fill="#003B7D" fill-opacity="0.5"/>
<circle cx="339" cy="240" r="3" fill="#001355"/>
<circle cx="339" cy="260" r="3" fill="#001355"/>
<circle cx="339" cy="282" r="3" fill="#001355"/>
<path d="M493 56C493 55.4477 493.448 55 494 55H495H552H553C553.552 55 554 55.4477 554 56C554 56.5523 553.552 57 553 57C552.448 57 552 57.4477 552 58V76.4861C552 77.4732 551.708 78.4383 551.16 79.2596L548.84 82.7404C548.292 83.5617 548 84.5268 548 85.5139V123.5V161.486C548 162.473 548.292 163.438 548.84 164.26L551.16 167.74C551.708 168.562 552 169.527 552 170.514V189C552 189.552 552.448 190 553 190C553.552 190 554 190.448 554 191C554 191.552 553.552 192 553 192H552H494C493.448 192 493 191.552 493 191V190.5C493 190.224 493.224 190 493.5 190C493.776 190 494 189.776 494 189.5V57.5C494 57.2239 493.776 57 493.5 57C493.224 57 493 56.7761 493 56.5V56Z" fill="#003B7D"/>
<rect x="511" y="59" width="25" height="2" rx="1" fill="#001355"/>
<rect x="518" y="62" width="12" height="2" rx="1" fill="#001355"/>
<rect x="536" y="188" width="25" height="2" rx="1" transform="rotate(-180 536 188)" fill="#001355"/>
<rect x="529" y="185" width="12" height="2" rx="1" transform="rotate(-180 529 185)" fill="#001355"/>
<path d="M458 61.5C458 60.6716 458.672 60 459.5 60C460.328 60 461 60.6716 461 61.5C461 62.3284 461.672 63 462.5 63H483.5C484.328 63 485 62.3284 485 61.5C485 60.6716 485.672 60 486.5 60C487.328 60 488 60.6716 488 61.5V185.5C488 186.328 487.328 187 486.5 187C485.672 187 485 186.328 485 185.5C485 184.672 484.328 184 483.5 184H462.5C461.672 184 461 184.672 461 185.5C461 186.328 460.328 187 459.5 187C458.672 187 458 186.328 458 185.5V61.5Z" fill="#003B7D"/>
<rect x="468" y="179" width="6" height="2" rx="1" transform="rotate(-180 468 179)" fill="#001355"/>
<rect x="484" y="68" width="6" height="2" rx="1" transform="rotate(-180 484 68)" fill="#001355"/>
<path d="M456 159.5C456 161.157 455.157 162.5 453.5 162.5C451.843 162.5 451 161.157 451 159.5C451 157.843 451.843 156.5 453.5 156.5C455.157 156.5 456 157.843 456 159.5Z" fill="#001355"/>
<path d="M456 122.5C456 124.157 455.157 125.5 453.5 125.5C451.843 125.5 451 124.157 451 122.5C451 120.843 451.843 119.5 453.5 119.5C455.157 119.5 456 120.843 456 122.5Z" fill="#001355"/>
<path d="M456 85.5C456 87.1569 455.157 88.5 453.5 88.5C451.843 88.5 451 87.1569 451 85.5C451 83.8431 451.843 82.5 453.5 82.5C455.157 82.5 456 83.8431 456 85.5Z" fill="#001355"/>
<path d="M413 55C413 54.4477 413.448 54 414 54H415H451C452.105 54 453 54.8954 453 56V77.5698C453 79.1041 452.296 80.5535 451.089 81.5014L451.004 81.5684C448.456 83.5703 448.456 87.4297 451.004 89.4316L451.089 89.4986C452.296 90.4465 453 91.8959 453 93.4302V114.57C453 116.104 452.296 117.553 451.089 118.501L451.004 118.568C448.456 120.57 448.456 124.43 451.004 126.432L451.089 126.499C452.296 127.447 453 128.896 453 130.43V151.57C453 153.104 452.296 154.553 451.089 155.501L451.004 155.568C448.456 157.57 448.456 161.43 451.004 163.432L451.089 163.499C452.296 164.447 453 165.896 453 167.43V189C453 190.105 452.105 191 451 191H414C413.448 191 413 190.552 413 190V189.5C413 189.224 413.224 189 413.5 189C413.776 189 414 188.776 414 188.5V56.5C414 56.2239 413.776 56 413.5 56C413.224 56 413 55.7761 413 55.5V55Z" fill="#003B7D"/>
<rect x="423" y="58" width="19" height="2" rx="1" fill="#001355"/>
<rect x="429" y="61" width="6" height="2" rx="1" fill="#001355"/>
<rect x="442" y="187" width="19" height="2" rx="0.999999" transform="rotate(-180 442 187)" fill="#001355"/>
<rect x="435" y="184" width="6" height="2" rx="1" transform="rotate(-180 435 184)" fill="#001355"/>
<path d="M381 60.5C381 59.6716 381.672 59 382.5 59C383.328 59 384 59.6716 384 60.5C384 61.3284 384.672 62 385.5 62H406.5C407.328 62 408 61.3284 408 60.5C408 59.6716 408.672 59 409.5 59C410.328 59 411 59.6716 411 60.5V184.5C411 185.328 410.328 186 409.5 186C408.672 186 408 185.328 408 184.5C408 183.672 407.328 183 406.5 183H385.5C384.672 183 384 183.672 384 184.5C384 185.328 383.328 186 382.5 186C381.672 186 381 185.328 381 184.5V60.5Z" fill="#003B7D"/>
<rect x="391" y="179" width="6" height="2" rx="1" transform="rotate(-180 391 179)" fill="#001355"/>
<rect x="407" y="68" width="6" height="2" rx="1" transform="rotate(-180 407 68)" fill="#001355"/>
<rect x="561" y="66" width="22" height="122" rx="2" fill="#009FD4"/>
<rect x="566" y="71" width="5" height="112" rx="2" fill="#003B7D"/>
<rect x="568" y="74" width="1" height="10" rx="0.5" fill="#001355"/>
<rect x="568" y="86" width="1" height="10" rx="0.5" fill="#001355"/>
<rect x="568" y="98" width="1" height="10" rx="0.5" fill="#001355"/>
<rect x="568" y="110" width="1" height="10" rx="0.5" fill="#001355"/>
<rect x="568" y="122" width="1" height="10" rx="0.5" fill="#001355"/>
<rect x="568" y="134" width="1" height="10" rx="0.5" fill="#001355"/>
<rect x="568" y="146" width="1" height="10" rx="0.5" fill="#001355"/>
<rect x="568" y="158" width="1" height="10" rx="0.5" fill="#001355"/>
<rect x="568" y="170" width="1" height="10" rx="0.5" fill="#001355"/>
<rect x="573" y="71" width="5" height="112" rx="2" fill="#003B7D"/>
<rect x="575" y="74" width="1" height="10" rx="0.5" fill="#001355"/>
<rect x="575" y="86" width="1" height="10" rx="0.5" fill="#001355"/>
<rect x="575" y="98" width="1" height="10" rx="0.5" fill="#001355"/>
<rect x="575" y="110" width="1" height="10" rx="0.5" fill="#001355"/>
<rect x="575" y="122" width="1" height="10" rx="0.5" fill="#001355"/>
<rect x="575" y="134" width="1" height="10" rx="0.5" fill="#001355"/>
<rect x="575" y="146" width="1" height="10" rx="0.5" fill="#001355"/>
<rect x="575" y="158" width="1" height="10" rx="0.5" fill="#001355"/>
<rect x="575" y="170" width="1" height="10" rx="0.5" fill="#001355"/>
<path d="M593 72C593 70.3431 594.343 69 596 69H602C603.657 69 605 67.6569 605 66V64C605 62.3431 606.343 61 608 61H629C630.657 61 632 62.3431 632 64V66C632 67.6569 633.343 69 635 69H763C764.657 69 766 70.3431 766 72V194C766 195.657 764.657 197 763 197H596C594.343 197 593 195.657 593 194V72Z" fill="#003B7D"/>
<circle cx="620" cy="93" r="3" fill="#001355"/>
<circle cx="628" cy="93" r="3" fill="#001355"/>
<circle cx="636" cy="93" r="3" fill="#001355"/>
<circle cx="644" cy="93" r="3" fill="#001355"/>
<circle cx="652" cy="93" r="3" fill="#001355"/>
<circle cx="660" cy="93" r="3" fill="#001355"/>
<circle cx="668" cy="93" r="3" fill="#001355"/>
<circle cx="676" cy="93" r="3" fill="#001355"/>
<circle cx="684" cy="93" r="3" fill="#001355"/>
<circle cx="692" cy="93" r="3" fill="#001355"/>
<circle cx="700" cy="93" r="3" fill="#001355"/>
<circle cx="708" cy="93" r="3" fill="#001355"/>
<circle cx="716" cy="93" r="3" fill="#001355"/>
<circle cx="724" cy="93" r="3" fill="#001355"/>
<circle cx="732" cy="93" r="3" fill="#001355"/>
<circle cx="740" cy="93" r="3" fill="#001355"/>
<circle cx="620" cy="101" r="3" fill="#001355"/>
<circle cx="628" cy="101" r="3" fill="#001355"/>
<circle cx="636" cy="101" r="3" fill="#001355"/>
<circle cx="644" cy="101" r="3" fill="#001355"/>
<circle cx="652" cy="101" r="3" fill="#001355"/>
<circle cx="660" cy="101" r="3" fill="#001355"/>
<circle cx="668" cy="101" r="3" fill="#001355"/>
<circle cx="676" cy="101" r="3" fill="#001355"/>
<circle cx="684" cy="101" r="3" fill="#001355"/>
<circle cx="692" cy="101" r="3" fill="#001355"/>
<circle cx="700" cy="101" r="3" fill="#001355"/>
<circle cx="708" cy="101" r="3" fill="#001355"/>
<circle cx="716" cy="101" r="3" fill="#001355"/>
<circle cx="724" cy="101" r="3" fill="#001355"/>
<circle cx="732" cy="101" r="3" fill="#001355"/>
<circle cx="740" cy="101" r="3" fill="#001355"/>
<circle cx="620" cy="109" r="3" fill="#001355"/>
<circle cx="628" cy="109" r="3" fill="#001355"/>
<circle cx="636" cy="109" r="3" fill="#001355"/>
<circle cx="644" cy="109" r="3" fill="#001355"/>
<circle cx="652" cy="109" r="3" fill="#001355"/>
<circle cx="660" cy="109" r="3" fill="#001355"/>
<circle cx="668" cy="109" r="3" fill="#001355"/>
<circle cx="676" cy="109" r="3" fill="#001355"/>
<circle cx="684" cy="109" r="3" fill="#001355"/>
<circle cx="692" cy="109" r="3" fill="#001355"/>
<circle cx="700" cy="109" r="3" fill="#001355"/>
<circle cx="708" cy="109" r="3" fill="#001355"/>
<circle cx="716" cy="109" r="3" fill="#001355"/>
<circle cx="724" cy="109" r="3" fill="#001355"/>
<circle cx="732" cy="109" r="3" fill="#001355"/>
<circle cx="740" cy="109" r="3" fill="#001355"/>
<circle cx="620" cy="117" r="3" fill="#001355"/>
<circle cx="628" cy="117" r="3" fill="#001355"/>
<circle cx="636" cy="117" r="3" fill="#001355"/>
<circle cx="644" cy="117" r="3" fill="#001355"/>
<circle cx="652" cy="117" r="3" fill="#001355"/>
<circle cx="660" cy="117" r="3" fill="#001355"/>
<circle cx="668" cy="117" r="3" fill="#001355"/>
<circle cx="676" cy="117" r="3" fill="#001355"/>
<circle cx="684" cy="117" r="3" fill="#001355"/>
<circle cx="692" cy="117" r="3" fill="#001355"/>
<circle cx="700" cy="117" r="3" fill="#001355"/>
<circle cx="708" cy="117" r="3" fill="#001355"/>
<circle cx="716" cy="117" r="3" fill="#001355"/>
<circle cx="724" cy="117" r="3" fill="#001355"/>
<circle cx="732" cy="117" r="3" fill="#001355"/>
<circle cx="740" cy="117" r="3" fill="#001355"/>
<circle cx="620" cy="125" r="3" fill="#001355"/>
<circle cx="628" cy="125" r="3" fill="#001355"/>
<circle cx="636" cy="125" r="3" fill="#001355"/>
<circle cx="644" cy="125" r="3" fill="#001355"/>
<circle cx="652" cy="125" r="3" fill="#001355"/>
<circle cx="660" cy="125" r="3" fill="#001355"/>
<circle cx="668" cy="125" r="3" fill="#001355"/>
<circle cx="676" cy="125" r="3" fill="#001355"/>
<circle cx="684" cy="125" r="3" fill="#001355"/>
<circle cx="692" cy="125" r="3" fill="#001355"/>
<circle cx="700" cy="125" r="3" fill="#001355"/>
<circle cx="708" cy="125" r="3" fill="#001355"/>
<circle cx="716" cy="125" r="3" fill="#001355"/>
<circle cx="724" cy="125" r="3" fill="#001355"/>
<circle cx="732" cy="125" r="3" fill="#001355"/>
<circle cx="740" cy="125" r="3" fill="#001355"/>
<circle cx="620" cy="133" r="3" fill="#001355"/>
<circle cx="628" cy="133" r="3" fill="#001355"/>
<circle cx="636" cy="133" r="3" fill="#001355"/>
<circle cx="644" cy="133" r="3" fill="#001355"/>
<circle cx="652" cy="133" r="3" fill="#001355"/>
<circle cx="660" cy="133" r="3" fill="#001355"/>
<circle cx="668" cy="133" r="3" fill="#001355"/>
<circle cx="676" cy="133" r="3" fill="#001355"/>
<circle cx="684" cy="133" r="3" fill="#001355"/>
<circle cx="692" cy="133" r="3" fill="#001355"/>
<circle cx="700" cy="133" r="3" fill="#001355"/>
<circle cx="708" cy="133" r="3" fill="#001355"/>
<circle cx="716" cy="133" r="3" fill="#001355"/>
<circle cx="724" cy="133" r="3" fill="#001355"/>
<circle cx="732" cy="133" r="3" fill="#001355"/>
<circle cx="740" cy="133" r="3" fill="#001355"/>
<circle cx="620" cy="141" r="3" fill="#001355"/>
<circle cx="628" cy="141" r="3" fill="#001355"/>
<circle cx="636" cy="141" r="3" fill="#001355"/>
<circle cx="644" cy="141" r="3" fill="#001355"/>
<circle cx="652" cy="141" r="3" fill="#001355"/>
<circle cx="660" cy="141" r="3" fill="#001355"/>
<circle cx="668" cy="141" r="3" fill="#001355"/>
<circle cx="676" cy="141" r="3" fill="#001355"/>
<circle cx="684" cy="141" r="3" fill="#001355"/>
<circle cx="692" cy="141" r="3" fill="#001355"/>
<circle cx="700" cy="141" r="3" fill="#001355"/>
<circle cx="708" cy="141" r="3" fill="#001355"/>
<circle cx="716" cy="141" r="3" fill="#001355"/>
<circle cx="724" cy="141" r="3" fill="#001355"/>
<circle cx="732" cy="141" r="3" fill="#001355"/>
<circle cx="740" cy="141" r="3" fill="#001355"/>
<circle cx="620" cy="149" r="3" fill="#001355"/>
<circle cx="628" cy="149" r="3" fill="#001355"/>
<circle cx="636" cy="149" r="3" fill="#001355"/>
<circle cx="644" cy="149" r="3" fill="#001355"/>
<circle cx="652" cy="149" r="3" fill="#001355"/>
<circle cx="660" cy="149" r="3" fill="#001355"/>
<circle cx="668" cy="149" r="3" fill="#001355"/>
<circle cx="676" cy="149" r="3" fill="#001355"/>
<circle cx="684" cy="149" r="3" fill="#001355"/>
<circle cx="692" cy="149" r="3" fill="#001355"/>
<circle cx="700" cy="149" r="3" fill="#001355"/>
<circle cx="708" cy="149" r="3" fill="#001355"/>
<circle cx="716" cy="149" r="3" fill="#001355"/>
<circle cx="724" cy="149" r="3" fill="#001355"/>
<circle cx="732" cy="149" r="3" fill="#001355"/>
<circle cx="740" cy="149" r="3" fill="#001355"/>
<circle cx="620" cy="157" r="3" fill="#001355"/>
<circle cx="628" cy="157" r="3" fill="#001355"/>
<circle cx="636" cy="157" r="3" fill="#001355"/>
<circle cx="644" cy="157" r="3" fill="#001355"/>
<circle cx="652" cy="157" r="3" fill="#001355"/>
<circle cx="660" cy="157" r="3" fill="#001355"/>
<circle cx="668" cy="157" r="3" fill="#001355"/>
<circle cx="676" cy="157" r="3" fill="#001355"/>
<circle cx="684" cy="157" r="3" fill="#001355"/>
<circle cx="692" cy="157" r="3" fill="#001355"/>
<circle cx="700" cy="157" r="3" fill="#001355"/>
<circle cx="708" cy="157" r="3" fill="#001355"/>
<circle cx="716" cy="157" r="3" fill="#001355"/>
<circle cx="724" cy="157" r="3" fill="#001355"/>
<circle cx="732" cy="157" r="3" fill="#001355"/>
<circle cx="740" cy="157" r="3" fill="#001355"/>
<circle cx="620" cy="165" r="3" fill="#001355"/>
<circle cx="628" cy="165" r="3" fill="#001355"/>
<circle cx="636" cy="165" r="3" fill="#001355"/>
<circle cx="644" cy="165" r="3" fill="#001355"/>
<circle cx="652" cy="165" r="3" fill="#001355"/>
<circle cx="660" cy="165" r="3" fill="#001355"/>
<circle cx="668" cy="165" r="3" fill="#001355"/>
<circle cx="676" cy="165" r="3" fill="#001355"/>
<circle cx="684" cy="165" r="3" fill="#001355"/>
<circle cx="692" cy="165" r="3" fill="#001355"/>
<circle cx="700" cy="165" r="3" fill="#001355"/>
<circle cx="708" cy="165" r="3" fill="#001355"/>
<circle cx="716" cy="165" r="3" fill="#001355"/>
<circle cx="724" cy="165" r="3" fill="#001355"/>
<circle cx="732" cy="165" r="3" fill="#001355"/>
<circle cx="740" cy="165" r="3" fill="#001355"/>
<circle cx="620" cy="173" r="3" fill="#001355"/>
<circle cx="628" cy="173" r="3" fill="#001355"/>
<circle cx="636" cy="173" r="3" fill="#001355"/>
<circle cx="644" cy="173" r="3" fill="#001355"/>
<circle cx="652" cy="173" r="3" fill="#001355"/>
<circle cx="660" cy="173" r="3" fill="#001355"/>
<circle cx="668" cy="173" r="3" fill="#001355"/>
<circle cx="676" cy="173" r="3" fill="#001355"/>
<circle cx="684" cy="173" r="3" fill="#001355"/>
<circle cx="692" cy="173" r="3" fill="#001355"/>
<circle cx="700" cy="173" r="3" fill="#001355"/>
<circle cx="708" cy="173" r="3" fill="#001355"/>
<circle cx="716" cy="173" r="3" fill="#001355"/>
<circle cx="724" cy="173" r="3" fill="#001355"/>
<circle cx="732" cy="173" r="3" fill="#001355"/>
<circle cx="740" cy="173" r="3" fill="#001355"/>
<path d="M352 56H373C374.105 56 375 56.8954 375 58V220C375 221.105 374.105 222 373 222H352V56Z" fill="#009FD4"/>
<path d="M352 22H366C367.105 22 368 22.8954 368 24C368 25.1046 368.895 26 370 26C371.105 26 372 26.8954 372 28V43C372 44.1046 371.105 45 370 45C368.895 45 368 45.8954 368 47C368 48.1046 367.105 49 366 49H352V22Z" fill="#003B7D"/>
<path d="M352 172.5L792 78.2547V316C792 317.657 790.657 319 789 319H355C353.343 319 352 317.657 352 316V172.5Z" fill="white" fill-opacity="0.2"/>
<defs>
<radialGradient id="paint0_angular_4_1335" cx="0" cy="0" r="1" gradientUnits="userSpaceOnUse" gradientTransform="translate(1131 6.00061) rotate(167.923) scale(1156.6 400.49)">
<stop stop-color="white"/>
<stop offset="0.250083" stop-color="#D9D9D9" stop-opacity="0.85036"/>
<stop offset="0.250141" stop-color="#D4D4D4" stop-opacity="0.831591"/>
<stop offset="1" stop-opacity="0"/>
</radialGradient>
</defs>
</svg>
