<svg width="474" height="348" viewBox="0 0 474 348" fill="none" xmlns="http://www.w3.org/2000/svg">
<path d="M16 5C16 2.23858 18.2386 0 21 0H469C471.761 0 474 2.23858 474 5V323.53C474 326.291 471.761 328.53 469 328.53H461.103H417.712H70.5861H27.1954H21C18.2386 328.53 16 326.291 16 323.53V302C16 300.895 15.1046 300 14 300H5C2.23858 300 0 297.761 0 295V234C0 231.239 2.23858 229 5 229H14C15.1046 229 16 228.105 16 227V5Z" fill="#00D1FF"/>
<path d="M414.29 328.53H463.702C461.88 328.53 460.293 329.769 459.851 331.537L456.9 343.339C456.344 345.564 454.344 347.126 452.05 347.126H427.014C424.862 347.126 422.951 345.749 422.271 343.707L418.136 331.302C417.584 329.647 416.035 328.53 414.29 328.53Z" fill="#FFE500"/>
<path d="M23.5962 328.53H73.1857C71.3642 328.53 69.7764 329.769 69.3346 331.537L66.3842 343.338C65.8277 345.564 63.8278 347.126 61.5335 347.126H36.4981C34.3459 347.126 32.4352 345.749 31.7547 343.707L27.6756 331.47C27.0903 329.714 25.4471 328.53 23.5962 328.53Z" fill="#FFE500"/>
<path d="M9 23C9 21.3431 10.3431 20 12 20H16V51H12C10.3431 51 9 49.6569 9 48V23Z" fill="#FFE500"/>
<rect x="25" y="9" width="440" height="310" rx="3" fill="#00BDF2"/>
<rect x="28" y="47" width="233" height="236" rx="3" fill="#00A9DE"/>
<rect x="60" y="229" width="168" height="18" rx="3" fill="#009FD4"/>
<rect x="64" y="233" width="160" height="8" rx="1" fill="#0095CA"/>
<rect x="100" y="201" width="97" height="21" rx="3" fill="#009FD4"/>
<rect x="105" y="204" width="89" height="15" rx="2" fill="#003B7D"/>
<rect x="105" y="204" width="4" height="15" rx="0.5" fill="#001355"/>
<rect x="106" y="210.5" width="2" height="2" rx="1" fill="#003B7D"/>
<rect x="182" y="207" width="9" height="9" rx="1" fill="#001355"/>
<rect x="113" y="209" width="25" height="1" rx="0.5" fill="#001355"/>
<rect x="113" y="207" width="51" height="1" rx="0.5" fill="#001355"/>
<path d="M249 290.5C249 289.672 249.672 289 250.5 289H412.5C413.328 289 414 289.672 414 290.5C414 291.328 413.328 292 412.5 292H412C410.895 292 410 292.895 410 294V314C410 315.105 410.895 316 412 316H412.5C413.328 316 414 316.672 414 317.5C414 318.328 413.328 319 412.5 319H250.5C249.672 319 249 318.328 249 317.5C249 316.672 249.672 316 250.5 316H251C252.105 316 253 315.105 253 314V294C253 292.895 252.105 292 251 292H250.5C249.672 292 249 291.328 249 290.5Z" fill="#003B7D"/>
<rect x="400" y="314" width="7" height="2" rx="1" fill="#001355"/>
<rect x="256" y="292" width="7" height="2" rx="1" fill="#001355"/>
<path d="M73 290.5C73 289.672 73.6716 289 74.5 289H236.5C237.328 289 238 289.672 238 290.5C238 291.328 237.328 292 236.5 292H236C234.895 292 234 292.895 234 294V314C234 315.105 234.895 316 236 316H236.5C237.328 316 238 316.672 238 317.5C238 318.328 237.328 319 236.5 319H74.5C73.6716 319 73 318.328 73 317.5C73 316.672 73.6716 316 74.5 316H75C76.1046 316 77 315.105 77 314V294C77 292.895 76.1046 292 75 292H74.5C73.6716 292 73 291.328 73 290.5Z" fill="#003B7D"/>
<rect x="224" y="314" width="7" height="2" rx="1" fill="#001355"/>
<rect x="80" y="292" width="7" height="2" rx="1" fill="#001355"/>
<path d="M249 10.5C249 9.67157 249.672 9 250.5 9H412.5C413.328 9 414 9.67157 414 10.5C414 11.3284 413.328 12 412.5 12H412C410.895 12 410 12.8954 410 14V34C410 35.1046 410.895 36 412 36H412.5C413.328 36 414 36.6716 414 37.5C414 38.3284 413.328 39 412.5 39H250.5C249.672 39 249 38.3284 249 37.5C249 36.6716 249.672 36 250.5 36H251C252.105 36 253 35.1046 253 34V14C253 12.8954 252.105 12 251 12H250.5C249.672 12 249 11.3284 249 10.5Z" fill="#003B7D"/>
<rect x="400" y="34" width="7" height="2" rx="1" fill="#001355"/>
<rect x="256" y="12" width="7" height="2" rx="1" fill="#001355"/>
<path d="M73 10.5C73 9.67157 73.6716 9 74.5 9H236.5C237.328 9 238 9.67157 238 10.5C238 11.3284 237.328 12 236.5 12H236C234.895 12 234 12.8954 234 14V34C234 35.1046 234.895 36 236 36H236.5C237.328 36 238 36.6716 238 37.5C238 38.3284 237.328 39 236.5 39H74.5C73.6716 39 73 38.3284 73 37.5C73 36.6716 73.6716 36 74.5 36H75C76.1046 36 77 35.1046 77 34V14C77 12.8954 76.1046 12 75 12H74.5C73.6716 12 73 11.3284 73 10.5Z" fill="#003B7D"/>
<rect x="224" y="34" width="7" height="2" rx="1" fill="#001355"/>
<rect x="80" y="12" width="7" height="2" rx="1" fill="#001355"/>
<path d="M25 235H412.102C413.191 235 414.057 235.913 414 237V254V257C414 257.552 414.448 258 415 258H416.5C417.328 258 418 258.672 418 259.5V273C418 274.655 416.655 275.995 415 275.989L25 274.504V235Z" fill="#003B7D"/>
<rect x="413" y="269" width="70" height="1.99999" rx="0.999997" transform="rotate(-180 413 269)" fill="#001355"/>
<rect x="413" y="266" width="115" height="1.99999" rx="0.999995" transform="rotate(-180 413 266)" fill="#001355"/>
<rect x="34" y="238" width="8" height="2" rx="1" transform="rotate(90 34 238)" fill="#001355"/>
<rect x="31" y="238" width="18" height="2" rx="1" transform="rotate(90 31 238)" fill="#001355"/>
<path d="M413 242H416C416.552 242 417 242.448 417 243V247C417 247.552 416.552 248 416 248H413L413 242Z" fill="#001355"/>
<rect x="411" y="238" width="1" height="14" rx="0.5" fill="#001355"/>
<rect x="409" y="238" width="1" height="14" rx="0.5" fill="#001355"/>
<rect x="407" y="238" width="1" height="14" rx="0.5" fill="#001355"/>
<rect x="405" y="238" width="1" height="14" rx="0.5" fill="#001355"/>
<rect x="403" y="238" width="1" height="14" rx="0.5" fill="#001355"/>
<rect x="401" y="238" width="1" height="14" rx="0.5" fill="#001355"/>
<rect x="399" y="238" width="1" height="14" rx="0.5" fill="#001355"/>
<rect x="397" y="238" width="1" height="14" rx="0.5" fill="#001355"/>
<rect x="395" y="238" width="1" height="14" rx="0.5" fill="#001355"/>
<rect x="393" y="238" width="1" height="14" rx="0.5" fill="#001355"/>
<rect x="391" y="238" width="1" height="14" rx="0.5" fill="#001355"/>
<rect x="389" y="238" width="1" height="14" rx="0.5" fill="#001355"/>
<rect x="387" y="238" width="1" height="14" rx="0.5" fill="#001355"/>
<rect x="385" y="238" width="1" height="14" rx="0.5" fill="#001355"/>
<rect x="383" y="238" width="1" height="14" rx="0.5" fill="#001355"/>
<rect x="381" y="238" width="1" height="14" rx="0.5" fill="#001355"/>
<rect x="379" y="238" width="1" height="14" rx="0.5" fill="#001355"/>
<rect x="377" y="238" width="1" height="14" rx="0.5" fill="#001355"/>
<rect x="375" y="238" width="1" height="14" rx="0.5" fill="#001355"/>
<rect x="373" y="238" width="1" height="14" rx="0.5" fill="#001355"/>
<rect x="371" y="238" width="1" height="14" rx="0.5" fill="#001355"/>
<rect x="369" y="238" width="1" height="14" rx="0.5" fill="#001355"/>
<rect x="367" y="238" width="1" height="14" rx="0.5" fill="#001355"/>
<rect x="365" y="238" width="1" height="14" rx="0.5" fill="#001355"/>
<rect x="363" y="238" width="1" height="14" rx="0.5" fill="#001355"/>
<rect x="361" y="238" width="1" height="14" rx="0.5" fill="#001355"/>
<rect x="359" y="238" width="1" height="14" rx="0.5" fill="#001355"/>
<rect x="357" y="238" width="1" height="14" rx="0.5" fill="#001355"/>
<rect x="355" y="238" width="1" height="14" rx="0.5" fill="#001355"/>
<rect x="353" y="238" width="1" height="14" rx="0.5" fill="#001355"/>
<rect x="351" y="238" width="1" height="14" rx="0.5" fill="#001355"/>
<rect x="349" y="238" width="1" height="14" rx="0.5" fill="#001355"/>
<rect x="347" y="238" width="1" height="14" rx="0.5" fill="#001355"/>
<rect x="345" y="238" width="1" height="14" rx="0.5" fill="#001355"/>
<rect x="343" y="238" width="1" height="14" rx="0.5" fill="#001355"/>
<rect x="341" y="238" width="1" height="14" rx="0.5" fill="#001355"/>
<rect x="339" y="238" width="1" height="14" rx="0.5" fill="#001355"/>
<rect x="337" y="238" width="1" height="14" rx="0.5" fill="#001355"/>
<rect x="335" y="238" width="1" height="14" rx="0.5" fill="#001355"/>
<rect x="333" y="238" width="1" height="14" rx="0.5" fill="#001355"/>
<rect x="331" y="238" width="1" height="14" rx="0.5" fill="#001355"/>
<rect x="329" y="238" width="1" height="14" rx="0.5" fill="#001355"/>
<rect x="327" y="238" width="1" height="14" rx="0.5" fill="#001355"/>
<rect x="325" y="238" width="1" height="14" rx="0.5" fill="#001355"/>
<rect x="323" y="238" width="1" height="14" rx="0.5" fill="#001355"/>
<rect x="321" y="238" width="1" height="14" rx="0.5" fill="#001355"/>
<rect x="319" y="238" width="1" height="14" rx="0.5" fill="#001355"/>
<rect x="317" y="238" width="1" height="14" rx="0.5" fill="#001355"/>
<rect x="289" y="242" width="27" height="6" fill="#001355"/>
<rect x="287" y="238" width="1" height="14" rx="0.5" fill="#001355"/>
<rect x="285" y="238" width="1" height="14" rx="0.5" fill="#001355"/>
<rect x="283" y="238" width="1" height="14" rx="0.5" fill="#001355"/>
<rect x="281" y="238" width="1" height="14" rx="0.5" fill="#001355"/>
<rect x="279" y="238" width="1" height="14" rx="0.5" fill="#001355"/>
<rect x="277" y="238" width="1" height="14" rx="0.5" fill="#001355"/>
<rect x="275" y="238" width="1" height="14" rx="0.5" fill="#001355"/>
<rect x="273" y="238" width="1" height="14" rx="0.5" fill="#001355"/>
<rect x="271" y="238" width="1" height="14" rx="0.5" fill="#001355"/>
<rect x="269" y="238" width="1" height="14" rx="0.5" fill="#001355"/>
<rect x="267" y="238" width="1" height="14" rx="0.5" fill="#001355"/>
<rect x="265" y="238" width="1" height="14" rx="0.5" fill="#001355"/>
<rect x="263" y="238" width="1" height="14" rx="0.5" fill="#001355"/>
<rect x="261" y="238" width="1" height="14" rx="0.5" fill="#001355"/>
<rect x="259" y="238" width="1" height="14" rx="0.5" fill="#001355"/>
<rect x="257" y="238" width="1" height="14" rx="0.5" fill="#001355"/>
<rect x="255" y="238" width="1" height="14" rx="0.5" fill="#001355"/>
<rect x="253" y="238" width="1" height="14" rx="0.5" fill="#001355"/>
<rect x="251" y="238" width="1" height="14" rx="0.5" fill="#001355"/>
<rect x="249" y="238" width="1" height="14" rx="0.5" fill="#001355"/>
<rect x="247" y="238" width="1" height="14" rx="0.5" fill="#001355"/>
<rect x="245" y="238" width="1" height="14" rx="0.5" fill="#001355"/>
<rect x="243" y="238" width="1" height="14" rx="0.5" fill="#001355"/>
<rect x="241" y="238" width="1" height="14" rx="0.5" fill="#001355"/>
<rect x="239" y="238" width="1" height="14" rx="0.5" fill="#001355"/>
<rect x="237" y="238" width="1" height="14" rx="0.5" fill="#001355"/>
<rect x="235" y="238" width="1" height="14" rx="0.5" fill="#001355"/>
<rect x="233" y="238" width="1" height="14" rx="0.5" fill="#001355"/>
<rect x="231" y="238" width="1" height="14" rx="0.5" fill="#001355"/>
<rect x="229" y="238" width="1" height="14" rx="0.5" fill="#001355"/>
<rect x="227" y="238" width="1" height="14" rx="0.5" fill="#001355"/>
<rect x="225" y="238" width="1" height="14" rx="0.5" fill="#001355"/>
<rect x="223" y="238" width="1" height="14" rx="0.5" fill="#001355"/>
<rect x="221" y="238" width="1" height="14" rx="0.5" fill="#001355"/>
<rect x="219" y="238" width="1" height="14" rx="0.5" fill="#001355"/>
<rect x="217" y="238" width="1" height="14" rx="0.5" fill="#001355"/>
<rect x="215" y="238" width="1" height="14" rx="0.5" fill="#001355"/>
<rect x="213" y="238" width="1" height="14" rx="0.5" fill="#001355"/>
<rect x="211" y="238" width="1" height="14" rx="0.5" fill="#001355"/>
<rect x="209" y="238" width="1" height="14" rx="0.5" fill="#001355"/>
<rect x="207" y="238" width="1" height="14" rx="0.5" fill="#001355"/>
<rect x="205" y="238" width="1" height="14" rx="0.5" fill="#001355"/>
<rect x="203" y="238" width="1" height="14" rx="0.5" fill="#001355"/>
<rect x="201" y="238" width="1" height="14" rx="0.5" fill="#001355"/>
<rect x="199" y="238" width="1" height="14" rx="0.5" fill="#001355"/>
<rect x="197" y="238" width="1" height="14" rx="0.5" fill="#001355"/>
<rect x="195" y="238" width="1" height="14" rx="0.5" fill="#001355"/>
<rect x="193" y="238" width="1" height="14" rx="0.5" fill="#001355"/>
<rect x="191" y="238" width="1" height="14" rx="0.5" fill="#001355"/>
<rect x="189" y="238" width="1" height="14" rx="0.5" fill="#001355"/>
<rect x="187" y="238" width="1" height="14" rx="0.5" fill="#001355"/>
<rect x="185" y="238" width="1" height="14" rx="0.5" fill="#001355"/>
<rect x="183" y="238" width="1" height="14" rx="0.5" fill="#001355"/>
<rect x="181" y="238" width="1" height="14" rx="0.5" fill="#001355"/>
<rect x="179" y="238" width="1" height="14" rx="0.5" fill="#001355"/>
<rect x="177" y="238" width="1" height="14" rx="0.5" fill="#001355"/>
<rect x="175" y="238" width="1" height="14" rx="0.5" fill="#001355"/>
<rect x="173" y="238" width="1" height="14" rx="0.5" fill="#001355"/>
<rect x="171" y="238" width="1" height="14" rx="0.5" fill="#001355"/>
<rect x="169" y="238" width="1" height="14" rx="0.5" fill="#001355"/>
<rect x="167" y="238" width="1" height="14" rx="0.5" fill="#001355"/>
<rect x="165" y="238" width="1" height="14" rx="0.5" fill="#001355"/>
<rect x="163" y="238" width="1" height="14" rx="0.5" fill="#001355"/>
<rect x="161" y="238" width="1" height="14" rx="0.5" fill="#001355"/>
<rect x="159" y="238" width="1" height="14" rx="0.5" fill="#001355"/>
<rect x="157" y="238" width="1" height="14" rx="0.5" fill="#001355"/>
<rect x="155" y="238" width="1" height="14" rx="0.5" fill="#001355"/>
<rect x="153" y="238" width="1" height="14" rx="0.5" fill="#001355"/>
<rect x="151" y="238" width="1" height="14" rx="0.5" fill="#001355"/>
<rect x="149" y="238" width="1" height="14" rx="0.5" fill="#001355"/>
<rect x="147" y="238" width="1" height="14" rx="0.5" fill="#001355"/>
<rect x="145" y="238" width="1" height="14" rx="0.5" fill="#001355"/>
<rect x="143" y="238" width="1" height="14" rx="0.5" fill="#001355"/>
<rect x="141" y="238" width="1" height="14" rx="0.5" fill="#001355"/>
<rect x="139" y="238" width="1" height="14" rx="0.5" fill="#001355"/>
<rect x="137" y="238" width="1" height="14" rx="0.5" fill="#001355"/>
<rect x="135" y="238" width="1" height="14" rx="0.5" fill="#001355"/>
<rect x="133" y="238" width="1" height="14" rx="0.5" fill="#001355"/>
<rect x="131" y="238" width="1" height="14" rx="0.5" fill="#001355"/>
<rect x="129" y="238" width="1" height="14" rx="0.5" fill="#001355"/>
<rect x="127" y="238" width="1" height="14" rx="0.5" fill="#001355"/>
<rect x="125" y="238" width="1" height="14" rx="0.5" fill="#001355"/>
<rect x="123" y="238" width="1" height="14" rx="0.5" fill="#001355"/>
<rect x="121" y="238" width="1" height="14" rx="0.5" fill="#001355"/>
<rect x="119" y="238" width="1" height="14" rx="0.5" fill="#001355"/>
<rect x="117" y="238" width="1" height="14" rx="0.5" fill="#001355"/>
<rect x="115" y="238" width="1" height="14" rx="0.5" fill="#001355"/>
<rect x="113" y="238" width="1" height="14" rx="0.5" fill="#001355"/>
<rect x="111" y="238" width="1" height="14" rx="0.5" fill="#001355"/>
<rect x="109" y="238" width="1" height="14" rx="0.5" fill="#001355"/>
<rect x="107" y="238" width="1" height="14" rx="0.5" fill="#001355"/>
<rect x="105" y="238" width="1" height="14" rx="0.5" fill="#001355"/>
<rect x="103" y="238" width="1" height="14" rx="0.5" fill="#001355"/>
<rect x="101" y="238" width="1" height="14" rx="0.5" fill="#001355"/>
<rect x="99" y="238" width="1" height="14" rx="0.5" fill="#001355"/>
<rect x="97" y="238" width="1" height="14" rx="0.5" fill="#001355"/>
<path d="M96 248L93 248C92.4477 248 92 247.552 92 247L92 243C92 242.448 92.4477 242 93 242L96 242L96 248Z" fill="#001355"/>
<path d="M88.5 237H206L190 255H88.5V237Z" fill="#003B7D"/>
<rect x="183" y="246" width="70" height="1.99999" rx="0.999997" transform="rotate(-180 183 246)" fill="#001355"/>
<rect x="190" y="243" width="77" height="1.99999" rx="0.999997" transform="rotate(-180 190 243)" fill="#001355"/>
<path d="M6 236C6 235.448 6.44772 235 7 235H8C8.55228 235 9 235.448 9 236V237C9 237.552 9.44772 238 10 238H11C11.5523 238 12 237.552 12 237V236C12 235.448 12.4477 235 13 235H16V274.5H7C6.44772 274.5 6 274.052 6 273.5V267C6 266.448 6.44772 266 7 266H8C8.55228 266 9 265.552 9 265C9 264.448 8.55228 264 8 264H7C6.44772 264 6 263.552 6 263V247C6 246.448 6.44772 246 7 246H8C8.55228 246 9 245.552 9 245C9 244.448 8.55228 244 8 244H7C6.44772 244 6 243.552 6 243V236Z" fill="#003B7D" fill-opacity="0.5"/>
<path d="M6 278C6 277.448 6.44772 277 7 277H11H15C15.5523 277 16 277.448 16 278V293C16 293.552 15.5523 294 15 294H7C6.44772 294 6 293.552 6 293V278Z" fill="#003B7D" fill-opacity="0.5"/>
<circle cx="12" cy="240" r="3" fill="#001355"/>
<circle cx="12" cy="260" r="3" fill="#001355"/>
<circle cx="12" cy="282" r="3" fill="#001355"/>
<path d="M166 56C166 55.4477 166.448 55 167 55H168H225H226C226.552 55 227 55.4477 227 56C227 56.5523 226.552 57 226 57C225.448 57 225 57.4477 225 58V76.4861C225 77.4732 224.708 78.4383 224.16 79.2596L221.84 82.7404C221.292 83.5617 221 84.5268 221 85.5139V123.5V161.486C221 162.473 221.292 163.438 221.84 164.26L224.16 167.74C224.708 168.562 225 169.527 225 170.514V189C225 189.552 225.448 190 226 190C226.552 190 227 190.448 227 191C227 191.552 226.552 192 226 192H225H167C166.448 192 166 191.552 166 191V190.5C166 190.224 166.224 190 166.5 190C166.776 190 167 189.776 167 189.5V57.5C167 57.2239 166.776 57 166.5 57C166.224 57 166 56.7761 166 56.5V56Z" fill="#003B7D"/>
<rect x="184" y="59" width="25" height="2" rx="1" fill="#001355"/>
<rect x="191" y="62" width="12" height="2" rx="1" fill="#001355"/>
<rect x="209" y="188" width="25" height="2" rx="1" transform="rotate(-180 209 188)" fill="#001355"/>
<rect x="202" y="185" width="12" height="2" rx="1" transform="rotate(-180 202 185)" fill="#001355"/>
<path d="M131 61.5C131 60.6716 131.672 60 132.5 60C133.328 60 134 60.6716 134 61.5C134 62.3284 134.672 63 135.5 63H156.5C157.328 63 158 62.3284 158 61.5C158 60.6716 158.672 60 159.5 60C160.328 60 161 60.6716 161 61.5V185.5C161 186.328 160.328 187 159.5 187C158.672 187 158 186.328 158 185.5C158 184.672 157.328 184 156.5 184H135.5C134.672 184 134 184.672 134 185.5C134 186.328 133.328 187 132.5 187C131.672 187 131 186.328 131 185.5V61.5Z" fill="#003B7D"/>
<rect x="141" y="179" width="6" height="2" rx="1" transform="rotate(-180 141 179)" fill="#001355"/>
<rect x="157" y="68" width="6" height="2" rx="1" transform="rotate(-180 157 68)" fill="#001355"/>
<path d="M129 159.5C129 161.157 128.157 162.5 126.5 162.5C124.843 162.5 124 161.157 124 159.5C124 157.843 124.843 156.5 126.5 156.5C128.157 156.5 129 157.843 129 159.5Z" fill="#001355"/>
<path d="M129 122.5C129 124.157 128.157 125.5 126.5 125.5C124.843 125.5 124 124.157 124 122.5C124 120.843 124.843 119.5 126.5 119.5C128.157 119.5 129 120.843 129 122.5Z" fill="#001355"/>
<path d="M129 85.5C129 87.1569 128.157 88.5 126.5 88.5C124.843 88.5 124 87.1569 124 85.5C124 83.8431 124.843 82.5 126.5 82.5C128.157 82.5 129 83.8431 129 85.5Z" fill="#001355"/>
<path d="M86 55C86 54.4477 86.4477 54 87 54H88H124C125.105 54 126 54.8954 126 56V77.5698C126 79.1041 125.296 80.5535 124.089 81.5014L124.004 81.5684C121.456 83.5703 121.456 87.4297 124.004 89.4316L124.089 89.4986C125.296 90.4465 126 91.8959 126 93.4302V114.57C126 116.104 125.296 117.553 124.089 118.501L124.004 118.568C121.456 120.57 121.456 124.43 124.004 126.432L124.089 126.499C125.296 127.447 126 128.896 126 130.43V151.57C126 153.104 125.296 154.553 124.089 155.501L124.004 155.568C121.456 157.57 121.456 161.43 124.004 163.432L124.089 163.499C125.296 164.447 126 165.896 126 167.43V189C126 190.105 125.105 191 124 191H87C86.4477 191 86 190.552 86 190V189.5C86 189.224 86.2239 189 86.5 189C86.7761 189 87 188.776 87 188.5V56.5C87 56.2239 86.7761 56 86.5 56C86.2239 56 86 55.7761 86 55.5V55Z" fill="#003B7D"/>
<rect x="96" y="58" width="19" height="2" rx="1" fill="#001355"/>
<rect x="102" y="61" width="6" height="2" rx="1" fill="#001355"/>
<rect x="115" y="187" width="19" height="2" rx="0.999999" transform="rotate(-180 115 187)" fill="#001355"/>
<rect x="108" y="184" width="6" height="2" rx="1" transform="rotate(-180 108 184)" fill="#001355"/>
<path d="M54 60.5C54 59.6716 54.6716 59 55.5 59C56.3284 59 57 59.6716 57 60.5C57 61.3284 57.6716 62 58.5 62H79.5C80.3284 62 81 61.3284 81 60.5C81 59.6716 81.6716 59 82.5 59C83.3284 59 84 59.6716 84 60.5V184.5C84 185.328 83.3284 186 82.5 186C81.6716 186 81 185.328 81 184.5C81 183.672 80.3284 183 79.5 183H58.5C57.6716 183 57 183.672 57 184.5C57 185.328 56.3284 186 55.5 186C54.6716 186 54 185.328 54 184.5V60.5Z" fill="#003B7D"/>
<rect x="64" y="179" width="6" height="2" rx="1" transform="rotate(-180 64 179)" fill="#001355"/>
<rect x="80" y="68" width="6" height="2" rx="1" transform="rotate(-180 80 68)" fill="#001355"/>
<rect x="234" y="66" width="22" height="122" rx="2" fill="#009FD4"/>
<rect x="239" y="71" width="5" height="112" rx="2" fill="#003B7D"/>
<rect x="241" y="74" width="1" height="10" rx="0.5" fill="#001355"/>
<rect x="241" y="86" width="1" height="10" rx="0.5" fill="#001355"/>
<rect x="241" y="98" width="1" height="10" rx="0.5" fill="#001355"/>
<rect x="241" y="110" width="1" height="10" rx="0.5" fill="#001355"/>
<rect x="241" y="122" width="1" height="10" rx="0.5" fill="#001355"/>
<rect x="241" y="134" width="1" height="10" rx="0.5" fill="#001355"/>
<rect x="241" y="146" width="1" height="10" rx="0.5" fill="#001355"/>
<rect x="241" y="158" width="1" height="10" rx="0.5" fill="#001355"/>
<rect x="241" y="170" width="1" height="10" rx="0.5" fill="#001355"/>
<rect x="246" y="71" width="5" height="112" rx="2" fill="#003B7D"/>
<rect x="248" y="74" width="1" height="10" rx="0.5" fill="#001355"/>
<rect x="248" y="86" width="1" height="10" rx="0.5" fill="#001355"/>
<rect x="248" y="98" width="1" height="10" rx="0.5" fill="#001355"/>
<rect x="248" y="110" width="1" height="10" rx="0.5" fill="#001355"/>
<rect x="248" y="122" width="1" height="10" rx="0.5" fill="#001355"/>
<rect x="248" y="134" width="1" height="10" rx="0.5" fill="#001355"/>
<rect x="248" y="146" width="1" height="10" rx="0.5" fill="#001355"/>
<rect x="248" y="158" width="1" height="10" rx="0.5" fill="#001355"/>
<rect x="248" y="170" width="1" height="10" rx="0.5" fill="#001355"/>
<path d="M266 72C266 70.3431 267.343 69 269 69H275C276.657 69 278 67.6569 278 66V64C278 62.3431 279.343 61 281 61H302C303.657 61 305 62.3431 305 64V66C305 67.6569 306.343 69 308 69H436C437.657 69 439 70.3431 439 72V194C439 195.657 437.657 197 436 197H269C267.343 197 266 195.657 266 194V72Z" fill="#003B7D"/>
<circle cx="293" cy="93" r="3" fill="#001355"/>
<circle cx="301" cy="93" r="3" fill="#001355"/>
<circle cx="309" cy="93" r="3" fill="#001355"/>
<circle cx="317" cy="93" r="3" fill="#001355"/>
<circle cx="325" cy="93" r="3" fill="#001355"/>
<circle cx="333" cy="93" r="3" fill="#001355"/>
<circle cx="341" cy="93" r="3" fill="#001355"/>
<circle cx="349" cy="93" r="3" fill="#001355"/>
<circle cx="357" cy="93" r="3" fill="#001355"/>
<circle cx="365" cy="93" r="3" fill="#001355"/>
<circle cx="373" cy="93" r="3" fill="#001355"/>
<circle cx="381" cy="93" r="3" fill="#001355"/>
<circle cx="389" cy="93" r="3" fill="#001355"/>
<circle cx="397" cy="93" r="3" fill="#001355"/>
<circle cx="405" cy="93" r="3" fill="#001355"/>
<circle cx="413" cy="93" r="3" fill="#001355"/>
<circle cx="293" cy="101" r="3" fill="#001355"/>
<circle cx="301" cy="101" r="3" fill="#001355"/>
<circle cx="309" cy="101" r="3" fill="#001355"/>
<circle cx="317" cy="101" r="3" fill="#001355"/>
<circle cx="325" cy="101" r="3" fill="#001355"/>
<circle cx="333" cy="101" r="3" fill="#001355"/>
<circle cx="341" cy="101" r="3" fill="#001355"/>
<circle cx="349" cy="101" r="3" fill="#001355"/>
<circle cx="357" cy="101" r="3" fill="#001355"/>
<circle cx="365" cy="101" r="3" fill="#001355"/>
<circle cx="373" cy="101" r="3" fill="#001355"/>
<circle cx="381" cy="101" r="3" fill="#001355"/>
<circle cx="389" cy="101" r="3" fill="#001355"/>
<circle cx="397" cy="101" r="3" fill="#001355"/>
<circle cx="405" cy="101" r="3" fill="#001355"/>
<circle cx="413" cy="101" r="3" fill="#001355"/>
<circle cx="293" cy="109" r="3" fill="#001355"/>
<circle cx="301" cy="109" r="3" fill="#001355"/>
<circle cx="309" cy="109" r="3" fill="#001355"/>
<circle cx="317" cy="109" r="3" fill="#001355"/>
<circle cx="325" cy="109" r="3" fill="#001355"/>
<circle cx="333" cy="109" r="3" fill="#001355"/>
<circle cx="341" cy="109" r="3" fill="#001355"/>
<circle cx="349" cy="109" r="3" fill="#001355"/>
<circle cx="357" cy="109" r="3" fill="#001355"/>
<circle cx="365" cy="109" r="3" fill="#001355"/>
<circle cx="373" cy="109" r="3" fill="#001355"/>
<circle cx="381" cy="109" r="3" fill="#001355"/>
<circle cx="389" cy="109" r="3" fill="#001355"/>
<circle cx="397" cy="109" r="3" fill="#001355"/>
<circle cx="405" cy="109" r="3" fill="#001355"/>
<circle cx="413" cy="109" r="3" fill="#001355"/>
<circle cx="293" cy="117" r="3" fill="#001355"/>
<circle cx="301" cy="117" r="3" fill="#001355"/>
<circle cx="309" cy="117" r="3" fill="#001355"/>
<circle cx="317" cy="117" r="3" fill="#001355"/>
<circle cx="325" cy="117" r="3" fill="#001355"/>
<circle cx="333" cy="117" r="3" fill="#001355"/>
<circle cx="341" cy="117" r="3" fill="#001355"/>
<circle cx="349" cy="117" r="3" fill="#001355"/>
<circle cx="357" cy="117" r="3" fill="#001355"/>
<circle cx="365" cy="117" r="3" fill="#001355"/>
<circle cx="373" cy="117" r="3" fill="#001355"/>
<circle cx="381" cy="117" r="3" fill="#001355"/>
<circle cx="389" cy="117" r="3" fill="#001355"/>
<circle cx="397" cy="117" r="3" fill="#001355"/>
<circle cx="405" cy="117" r="3" fill="#001355"/>
<circle cx="413" cy="117" r="3" fill="#001355"/>
<circle cx="293" cy="125" r="3" fill="#001355"/>
<circle cx="301" cy="125" r="3" fill="#001355"/>
<circle cx="309" cy="125" r="3" fill="#001355"/>
<circle cx="317" cy="125" r="3" fill="#001355"/>
<circle cx="325" cy="125" r="3" fill="#001355"/>
<circle cx="333" cy="125" r="3" fill="#001355"/>
<circle cx="341" cy="125" r="3" fill="#001355"/>
<circle cx="349" cy="125" r="3" fill="#001355"/>
<circle cx="357" cy="125" r="3" fill="#001355"/>
<circle cx="365" cy="125" r="3" fill="#001355"/>
<circle cx="373" cy="125" r="3" fill="#001355"/>
<circle cx="381" cy="125" r="3" fill="#001355"/>
<circle cx="389" cy="125" r="3" fill="#001355"/>
<circle cx="397" cy="125" r="3" fill="#001355"/>
<circle cx="405" cy="125" r="3" fill="#001355"/>
<circle cx="413" cy="125" r="3" fill="#001355"/>
<circle cx="293" cy="133" r="3" fill="#001355"/>
<circle cx="301" cy="133" r="3" fill="#001355"/>
<circle cx="309" cy="133" r="3" fill="#001355"/>
<circle cx="317" cy="133" r="3" fill="#001355"/>
<circle cx="325" cy="133" r="3" fill="#001355"/>
<circle cx="333" cy="133" r="3" fill="#001355"/>
<circle cx="341" cy="133" r="3" fill="#001355"/>
<circle cx="349" cy="133" r="3" fill="#001355"/>
<circle cx="357" cy="133" r="3" fill="#001355"/>
<circle cx="365" cy="133" r="3" fill="#001355"/>
<circle cx="373" cy="133" r="3" fill="#001355"/>
<circle cx="381" cy="133" r="3" fill="#001355"/>
<circle cx="389" cy="133" r="3" fill="#001355"/>
<circle cx="397" cy="133" r="3" fill="#001355"/>
<circle cx="405" cy="133" r="3" fill="#001355"/>
<circle cx="413" cy="133" r="3" fill="#001355"/>
<circle cx="293" cy="141" r="3" fill="#001355"/>
<circle cx="301" cy="141" r="3" fill="#001355"/>
<circle cx="309" cy="141" r="3" fill="#001355"/>
<circle cx="317" cy="141" r="3" fill="#001355"/>
<circle cx="325" cy="141" r="3" fill="#001355"/>
<circle cx="333" cy="141" r="3" fill="#001355"/>
<circle cx="341" cy="141" r="3" fill="#001355"/>
<circle cx="349" cy="141" r="3" fill="#001355"/>
<circle cx="357" cy="141" r="3" fill="#001355"/>
<circle cx="365" cy="141" r="3" fill="#001355"/>
<circle cx="373" cy="141" r="3" fill="#001355"/>
<circle cx="381" cy="141" r="3" fill="#001355"/>
<circle cx="389" cy="141" r="3" fill="#001355"/>
<circle cx="397" cy="141" r="3" fill="#001355"/>
<circle cx="405" cy="141" r="3" fill="#001355"/>
<circle cx="413" cy="141" r="3" fill="#001355"/>
<circle cx="293" cy="149" r="3" fill="#001355"/>
<circle cx="301" cy="149" r="3" fill="#001355"/>
<circle cx="309" cy="149" r="3" fill="#001355"/>
<circle cx="317" cy="149" r="3" fill="#001355"/>
<circle cx="325" cy="149" r="3" fill="#001355"/>
<circle cx="333" cy="149" r="3" fill="#001355"/>
<circle cx="341" cy="149" r="3" fill="#001355"/>
<circle cx="349" cy="149" r="3" fill="#001355"/>
<circle cx="357" cy="149" r="3" fill="#001355"/>
<circle cx="365" cy="149" r="3" fill="#001355"/>
<circle cx="373" cy="149" r="3" fill="#001355"/>
<circle cx="381" cy="149" r="3" fill="#001355"/>
<circle cx="389" cy="149" r="3" fill="#001355"/>
<circle cx="397" cy="149" r="3" fill="#001355"/>
<circle cx="405" cy="149" r="3" fill="#001355"/>
<circle cx="413" cy="149" r="3" fill="#001355"/>
<circle cx="293" cy="157" r="3" fill="#001355"/>
<circle cx="301" cy="157" r="3" fill="#001355"/>
<circle cx="309" cy="157" r="3" fill="#001355"/>
<circle cx="317" cy="157" r="3" fill="#001355"/>
<circle cx="325" cy="157" r="3" fill="#001355"/>
<circle cx="333" cy="157" r="3" fill="#001355"/>
<circle cx="341" cy="157" r="3" fill="#001355"/>
<circle cx="349" cy="157" r="3" fill="#001355"/>
<circle cx="357" cy="157" r="3" fill="#001355"/>
<circle cx="365" cy="157" r="3" fill="#001355"/>
<circle cx="373" cy="157" r="3" fill="#001355"/>
<circle cx="381" cy="157" r="3" fill="#001355"/>
<circle cx="389" cy="157" r="3" fill="#001355"/>
<circle cx="397" cy="157" r="3" fill="#001355"/>
<circle cx="405" cy="157" r="3" fill="#001355"/>
<circle cx="413" cy="157" r="3" fill="#001355"/>
<circle cx="293" cy="165" r="3" fill="#001355"/>
<circle cx="301" cy="165" r="3" fill="#001355"/>
<circle cx="309" cy="165" r="3" fill="#001355"/>
<circle cx="317" cy="165" r="3" fill="#001355"/>
<circle cx="325" cy="165" r="3" fill="#001355"/>
<circle cx="333" cy="165" r="3" fill="#001355"/>
<circle cx="341" cy="165" r="3" fill="#001355"/>
<circle cx="349" cy="165" r="3" fill="#001355"/>
<circle cx="357" cy="165" r="3" fill="#001355"/>
<circle cx="365" cy="165" r="3" fill="#001355"/>
<circle cx="373" cy="165" r="3" fill="#001355"/>
<circle cx="381" cy="165" r="3" fill="#001355"/>
<circle cx="389" cy="165" r="3" fill="#001355"/>
<circle cx="397" cy="165" r="3" fill="#001355"/>
<circle cx="405" cy="165" r="3" fill="#001355"/>
<circle cx="413" cy="165" r="3" fill="#001355"/>
<circle cx="293" cy="173" r="3" fill="#001355"/>
<circle cx="301" cy="173" r="3" fill="#001355"/>
<circle cx="309" cy="173" r="3" fill="#001355"/>
<circle cx="317" cy="173" r="3" fill="#001355"/>
<circle cx="325" cy="173" r="3" fill="#001355"/>
<circle cx="333" cy="173" r="3" fill="#001355"/>
<circle cx="341" cy="173" r="3" fill="#001355"/>
<circle cx="349" cy="173" r="3" fill="#001355"/>
<circle cx="357" cy="173" r="3" fill="#001355"/>
<circle cx="365" cy="173" r="3" fill="#001355"/>
<circle cx="373" cy="173" r="3" fill="#001355"/>
<circle cx="381" cy="173" r="3" fill="#001355"/>
<circle cx="389" cy="173" r="3" fill="#001355"/>
<circle cx="397" cy="173" r="3" fill="#001355"/>
<circle cx="405" cy="173" r="3" fill="#001355"/>
<circle cx="413" cy="173" r="3" fill="#001355"/>
<path d="M25 56H46C47.1046 56 48 56.8954 48 58V220C48 221.105 47.1046 222 46 222H25V56Z" fill="#009FD4"/>
<path d="M25 22H39C40.1046 22 41 22.8954 41 24C41 25.1046 41.8954 26 43 26C44.1046 26 45 26.8954 45 28V43C45 44.1046 44.1046 45 43 45C41.8954 45 41 45.8954 41 47C41 48.1046 40.1046 49 39 49H25V22Z" fill="#003B7D"/>
<path d="M25 172.5L465 78.2547V316C465 317.657 463.657 319 462 319H28C26.3431 319 25 317.657 25 316V172.5Z" fill="white" fill-opacity="0.2"/>
</svg>
