<svg width="474" height="348" viewBox="0 0 474 348" fill="none" xmlns="http://www.w3.org/2000/svg">
<path d="M16 5C16 2.23858 18.2386 0 21 0H469C471.761 0 474 2.23858 474 5V323.53C474 326.291 471.761 328.53 469 328.53H461.103H417.712H70.5861H27.1954H21C18.2386 328.53 16 326.291 16 323.53V302C16 300.895 15.1046 300 14 300H5C2.23858 300 0 297.761 0 295V234C0 231.239 2.23858 229 5 229H14C15.1046 229 16 228.105 16 227V5Z" fill="#EB00FF"/>
<path d="M414.29 328.53H463.702C461.88 328.53 460.293 329.769 459.851 331.537L456.9 343.339C456.344 345.564 454.344 347.126 452.05 347.126H427.014C424.862 347.126 422.951 345.749 422.271 343.707L418.136 331.302C417.584 329.647 416.035 328.53 414.29 328.53Z" fill="#FFE500"/>
<path d="M23.5962 328.53H73.1857C71.3642 328.53 69.7764 329.769 69.3346 331.537L66.3842 343.338C65.8277 345.564 63.8278 347.126 61.5335 347.126H36.4981C34.3459 347.126 32.4352 345.749 31.7547 343.707L27.6756 331.47C27.0903 329.714 25.4471 328.53 23.5962 328.53Z" fill="#FFE500"/>
<path d="M9 23C9 21.3431 10.3431 20 12 20H16V51H12C10.3431 51 9 49.6569 9 48V23Z" fill="#FFE500"/>
<rect x="25" y="9" width="440" height="310" rx="3" fill="#D700EB"/>
<rect x="49" y="39" width="403" height="256" rx="3" fill="#CD00E1"/>
<rect x="280" y="54" width="147" height="221" rx="3" fill="#C300D7"/>
<rect x="28" y="47" width="233" height="236" rx="3" fill="#C300D7"/>
<rect x="60" y="229" width="168" height="18" rx="3" fill="#9B00AF"/>
<rect x="64" y="233" width="160" height="8" rx="1" fill="#9100A5"/>
<rect x="100" y="201" width="97" height="21" rx="3" fill="#9B00AF"/>
<rect x="105" y="204" width="89" height="15" rx="2" fill="#87009B"/>
<rect x="105" y="204" width="4" height="15" rx="0.5" fill="#730087"/>
<rect x="106" y="210.5" width="2" height="2" rx="1" fill="#87009B"/>
<rect x="182" y="207" width="9" height="9" rx="1" fill="#730087"/>
<rect x="113" y="209" width="25" height="1" rx="0.5" fill="#730087"/>
<rect x="113" y="207" width="51" height="1" rx="0.5" fill="#730087"/>
<path d="M73 301.5C73 300.672 73.6716 300 74.5 300H236.5C237.328 300 238 300.672 238 301.5V301.5C238 302.328 237.328 303 236.5 303H236C234.895 303 234 303.895 234 305V314C234 315.105 234.895 316 236 316H236.5C237.328 316 238 316.672 238 317.5V317.5C238 318.328 237.328 319 236.5 319H74.5C73.6716 319 73 318.328 73 317.5V317.5C73 316.672 73.6716 316 74.5 316H75C76.1046 316 77 315.105 77 314V305C77 303.895 76.1046 303 75 303H74.5C73.6716 303 73 302.328 73 301.5V301.5Z" fill="#87009B"/>
<rect x="224" y="314" width="7" height="2" rx="1" fill="#730087"/>
<rect x="80" y="303" width="7" height="2" rx="1" fill="#730087"/>
<path d="M249 301.5C249 300.672 249.672 300 250.5 300H412.5C413.328 300 414 300.672 414 301.5V301.5C414 302.328 413.328 303 412.5 303H412C410.895 303 410 303.895 410 305V314C410 315.105 410.895 316 412 316H412.5C413.328 316 414 316.672 414 317.5V317.5C414 318.328 413.328 319 412.5 319H250.5C249.672 319 249 318.328 249 317.5V317.5C249 316.672 249.672 316 250.5 316H251C252.105 316 253 315.105 253 314V305C253 303.895 252.105 303 251 303H250.5C249.672 303 249 302.328 249 301.5V301.5Z" fill="#87009B"/>
<rect x="400" y="314" width="7" height="2" rx="1" fill="#730087"/>
<rect x="256" y="303" width="7" height="2" rx="1" fill="#730087"/>
<path d="M25 235H446C447.105 235 448 235.895 448 237V252V286C448 287.105 447.105 288 446 288H25V235Z" fill="#87009B"/>
<rect x="426" y="238" width="19" height="11" rx="1" fill="#730087"/>
<rect x="440" y="244" width="3" height="3" rx="0.5" fill="#5F0073"/>
<rect x="436" y="244" width="3" height="3" rx="0.5" fill="#5F0073"/>
<path d="M432 245.207C432 245.074 432.053 244.947 432.146 244.854L432.854 244.146C432.947 244.053 433.074 244 433.207 244H433.793C433.926 244 434.053 244.053 434.146 244.146L434.854 244.854C434.947 244.947 435 245.074 435 245.207V246.5C435 246.776 434.776 247 434.5 247H432.5C432.224 247 432 246.776 432 246.5V245.207Z" fill="#5F0073"/>
<path d="M428 245.207C428 245.074 428.053 244.947 428.146 244.854L428.854 244.146C428.947 244.053 429.074 244 429.207 244H429.793C429.926 244 430.053 244.053 430.146 244.146L430.854 244.854C430.947 244.947 431 245.074 431 245.207V246.5C431 246.776 430.776 247 430.5 247H428.5C428.224 247 428 246.776 428 246.5V245.207Z" fill="#5F0073"/>
<path d="M440 241.207C440 241.074 440.053 240.947 440.146 240.854L440.854 240.146C440.947 240.053 441.074 240 441.207 240H441.793C441.926 240 442.053 240.053 442.146 240.146L442.854 240.854C442.947 240.947 443 241.074 443 241.207V242.5C443 242.776 442.776 243 442.5 243H440.5C440.224 243 440 242.776 440 242.5V241.207Z" fill="#5F0073"/>
<path d="M436 241.207C436 241.074 436.053 240.947 436.146 240.854L436.854 240.146C436.947 240.053 437.074 240 437.207 240H437.793C437.926 240 438.053 240.053 438.146 240.146L438.854 240.854C438.947 240.947 439 241.074 439 241.207V242.5C439 242.776 438.776 243 438.5 243H436.5C436.224 243 436 242.776 436 242.5V241.207Z" fill="#5F0073"/>
<path d="M432 241.207C432 241.074 432.053 240.947 432.146 240.854L432.854 240.146C432.947 240.053 433.074 240 433.207 240H433.793C433.926 240 434.053 240.053 434.146 240.146L434.854 240.854C434.947 240.947 435 241.074 435 241.207V242.5C435 242.776 434.776 243 434.5 243H432.5C432.224 243 432 242.776 432 242.5V241.207Z" fill="#5F0073"/>
<rect x="428" y="240" width="3" height="3" rx="0.5" fill="#5F0073"/>
<rect x="406" y="238" width="19" height="11" rx="1" fill="#730087"/>
<rect x="420" y="244" width="3" height="3" rx="0.5" fill="#5F0073"/>
<rect x="416" y="244" width="3" height="3" rx="0.5" fill="#5F0073"/>
<path d="M412 245.207C412 245.074 412.053 244.947 412.146 244.854L412.854 244.146C412.947 244.053 413.074 244 413.207 244H413.793C413.926 244 414.053 244.053 414.146 244.146L414.854 244.854C414.947 244.947 415 245.074 415 245.207V246.5C415 246.776 414.776 247 414.5 247H412.5C412.224 247 412 246.776 412 246.5V245.207Z" fill="#5F0073"/>
<path d="M408 245.207C408 245.074 408.053 244.947 408.146 244.854L408.854 244.146C408.947 244.053 409.074 244 409.207 244H409.793C409.926 244 410.053 244.053 410.146 244.146L410.854 244.854C410.947 244.947 411 245.074 411 245.207V246.5C411 246.776 410.776 247 410.5 247H408.5C408.224 247 408 246.776 408 246.5V245.207Z" fill="#5F0073"/>
<path d="M420 241.207C420 241.074 420.053 240.947 420.146 240.854L420.854 240.146C420.947 240.053 421.074 240 421.207 240H421.793C421.926 240 422.053 240.053 422.146 240.146L422.854 240.854C422.947 240.947 423 241.074 423 241.207V242.5C423 242.776 422.776 243 422.5 243H420.5C420.224 243 420 242.776 420 242.5V241.207Z" fill="#5F0073"/>
<path d="M416 241.207C416 241.074 416.053 240.947 416.146 240.854L416.854 240.146C416.947 240.053 417.074 240 417.207 240H417.793C417.926 240 418.053 240.053 418.146 240.146L418.854 240.854C418.947 240.947 419 241.074 419 241.207V242.5C419 242.776 418.776 243 418.5 243H416.5C416.224 243 416 242.776 416 242.5V241.207Z" fill="#5F0073"/>
<path d="M412 241.207C412 241.074 412.053 240.947 412.146 240.854L412.854 240.146C412.947 240.053 413.074 240 413.207 240H413.793C413.926 240 414.053 240.053 414.146 240.146L414.854 240.854C414.947 240.947 415 241.074 415 241.207V242.5C415 242.776 414.776 243 414.5 243H412.5C412.224 243 412 242.776 412 242.5V241.207Z" fill="#5F0073"/>
<rect x="408" y="240" width="3" height="3" rx="0.5" fill="#5F0073"/>
<rect x="401" y="238" width="1" height="22" rx="0.5" fill="#730087"/>
<rect x="399" y="238" width="1" height="22" rx="0.5" fill="#730087"/>
<rect x="397" y="238" width="1" height="22" rx="0.5" fill="#730087"/>
<rect x="395" y="238" width="1" height="22" rx="0.5" fill="#730087"/>
<rect x="393" y="238" width="1" height="22" rx="0.5" fill="#730087"/>
<rect x="391" y="238" width="1" height="22" rx="0.5" fill="#730087"/>
<rect x="389" y="238" width="1" height="22" rx="0.5" fill="#730087"/>
<rect x="387" y="238" width="1" height="22" rx="0.5" fill="#730087"/>
<rect x="385" y="238" width="1" height="22" rx="0.5" fill="#730087"/>
<rect x="383" y="238" width="1" height="22" rx="0.5" fill="#730087"/>
<rect x="381" y="238" width="1" height="22" rx="0.5" fill="#730087"/>
<rect x="379" y="238" width="1" height="22" rx="0.5" fill="#730087"/>
<rect x="377" y="238" width="1" height="22" rx="0.5" fill="#730087"/>
<rect x="375" y="238" width="1" height="22" rx="0.5" fill="#730087"/>
<rect x="373" y="238" width="1" height="22" rx="0.5" fill="#730087"/>
<rect x="371" y="238" width="1" height="22" rx="0.5" fill="#730087"/>
<rect x="369" y="238" width="1" height="22" rx="0.5" fill="#730087"/>
<rect x="367" y="238" width="1" height="22" rx="0.5" fill="#730087"/>
<rect x="365" y="238" width="1" height="22" rx="0.5" fill="#730087"/>
<rect x="363" y="238" width="1" height="22" rx="0.5" fill="#730087"/>
<rect x="361" y="238" width="1" height="22" rx="0.5" fill="#730087"/>
<rect x="359" y="238" width="1" height="22" rx="0.5" fill="#730087"/>
<rect x="357" y="238" width="1" height="22" rx="0.5" fill="#730087"/>
<rect x="355" y="238" width="1" height="22" rx="0.5" fill="#730087"/>
<rect x="353" y="238" width="1" height="22" rx="0.5" fill="#730087"/>
<rect x="351" y="238" width="1" height="22" rx="0.5" fill="#730087"/>
<rect x="349" y="238" width="1" height="22" rx="0.5" fill="#730087"/>
<rect x="347" y="238" width="1" height="22" rx="0.5" fill="#730087"/>
<rect x="345" y="238" width="1" height="22" rx="0.5" fill="#730087"/>
<rect x="343" y="238" width="1" height="22" rx="0.5" fill="#730087"/>
<rect x="341" y="238" width="1" height="22" rx="0.5" fill="#730087"/>
<rect x="339" y="238" width="1" height="22" rx="0.5" fill="#730087"/>
<rect x="337" y="238" width="1" height="22" rx="0.5" fill="#730087"/>
<rect x="335" y="238" width="1" height="22" rx="0.5" fill="#730087"/>
<rect x="333" y="238" width="1" height="22" rx="0.5" fill="#730087"/>
<rect x="331" y="238" width="1" height="22" rx="0.5" fill="#730087"/>
<rect x="329" y="238" width="1" height="22" rx="0.5" fill="#730087"/>
<rect x="327" y="238" width="1" height="22" rx="0.5" fill="#730087"/>
<rect x="325" y="238" width="1" height="22" rx="0.5" fill="#730087"/>
<rect x="323" y="238" width="1" height="22" rx="0.5" fill="#730087"/>
<rect x="321" y="238" width="1" height="22" rx="0.5" fill="#730087"/>
<rect x="319" y="238" width="1" height="22" rx="0.5" fill="#730087"/>
<rect x="317" y="238" width="1" height="22" rx="0.5" fill="#730087"/>
<rect x="305" y="244" width="11" height="10" fill="#730087"/>
<rect x="287" y="238" width="1" height="22" rx="0.5" fill="#730087"/>
<rect x="285" y="238" width="1" height="22" rx="0.5" fill="#730087"/>
<rect x="283" y="238" width="1" height="22" rx="0.5" fill="#730087"/>
<rect x="281" y="238" width="1" height="22" rx="0.5" fill="#730087"/>
<rect x="279" y="238" width="1" height="22" rx="0.5" fill="#730087"/>
<rect x="277" y="238" width="1" height="22" rx="0.5" fill="#730087"/>
<rect x="275" y="238" width="1" height="22" rx="0.5" fill="#730087"/>
<rect x="273" y="238" width="1" height="22" rx="0.5" fill="#730087"/>
<rect x="271" y="238" width="1" height="22" rx="0.5" fill="#730087"/>
<rect x="303" y="238" width="1" height="22" rx="0.5" fill="#730087"/>
<rect x="301" y="238" width="1" height="22" rx="0.5" fill="#730087"/>
<rect x="299" y="238" width="1" height="22" rx="0.5" fill="#730087"/>
<rect x="297" y="238" width="1" height="22" rx="0.5" fill="#730087"/>
<rect x="295" y="238" width="1" height="22" rx="0.5" fill="#730087"/>
<rect x="293" y="238" width="1" height="22" rx="0.5" fill="#730087"/>
<rect x="291" y="238" width="1" height="22" rx="0.5" fill="#730087"/>
<rect x="289" y="238" width="1" height="22" rx="0.5" fill="#730087"/>
<rect x="269" y="238" width="1" height="22" rx="0.5" fill="#730087"/>
<rect x="267" y="238" width="1" height="22" rx="0.5" fill="#730087"/>
<rect x="265" y="238" width="1" height="22" rx="0.5" fill="#730087"/>
<rect x="263" y="238" width="1" height="22" rx="0.5" fill="#730087"/>
<rect x="261" y="238" width="1" height="22" rx="0.5" fill="#730087"/>
<rect x="259" y="238" width="1" height="22" rx="0.5" fill="#730087"/>
<rect x="257" y="238" width="1" height="22" rx="0.5" fill="#730087"/>
<rect x="255" y="238" width="1" height="22" rx="0.5" fill="#730087"/>
<rect x="253" y="238" width="1" height="22" rx="0.5" fill="#730087"/>
<rect x="251" y="238" width="1" height="22" rx="0.5" fill="#730087"/>
<rect x="249" y="238" width="1" height="22" rx="0.5" fill="#730087"/>
<rect x="247" y="238" width="1" height="22" rx="0.5" fill="#730087"/>
<rect x="245" y="238" width="1" height="22" rx="0.5" fill="#730087"/>
<rect x="243" y="238" width="1" height="22" rx="0.5" fill="#730087"/>
<rect x="241" y="238" width="1" height="22" rx="0.5" fill="#730087"/>
<rect x="239" y="238" width="1" height="22" rx="0.5" fill="#730087"/>
<rect x="237" y="238" width="1" height="22" rx="0.5" fill="#730087"/>
<rect x="235" y="238" width="1" height="22" rx="0.5" fill="#730087"/>
<rect x="233" y="238" width="1" height="22" rx="0.5" fill="#730087"/>
<rect x="231" y="238" width="1" height="22" rx="0.5" fill="#730087"/>
<rect x="229" y="238" width="1" height="22" rx="0.5" fill="#730087"/>
<rect x="227" y="238" width="1" height="22" rx="0.5" fill="#730087"/>
<rect x="225" y="238" width="1" height="22" rx="0.5" fill="#730087"/>
<rect x="223" y="238" width="1" height="22" rx="0.5" fill="#730087"/>
<rect x="221" y="238" width="1" height="22" rx="0.5" fill="#730087"/>
<rect x="219" y="238" width="1" height="22" rx="0.5" fill="#730087"/>
<rect x="217" y="238" width="1" height="22" rx="0.5" fill="#730087"/>
<rect x="215" y="238" width="1" height="22" rx="0.5" fill="#730087"/>
<rect x="213" y="238" width="1" height="22" rx="0.5" fill="#730087"/>
<rect x="211" y="238" width="1" height="22" rx="0.5" fill="#730087"/>
<rect x="209" y="238" width="1" height="22" rx="0.5" fill="#730087"/>
<rect x="207" y="238" width="1" height="22" rx="0.5" fill="#730087"/>
<rect x="205" y="238" width="1" height="22" rx="0.5" fill="#730087"/>
<rect x="203" y="238" width="1" height="22" rx="0.5" fill="#730087"/>
<rect x="201" y="238" width="1" height="22" rx="0.5" fill="#730087"/>
<rect x="199" y="238" width="1" height="22" rx="0.5" fill="#730087"/>
<rect x="197" y="238" width="1" height="22" rx="0.5" fill="#730087"/>
<rect x="195" y="238" width="1" height="22" rx="0.5" fill="#730087"/>
<rect x="193" y="238" width="1" height="22" rx="0.5" fill="#730087"/>
<rect x="191" y="238" width="1" height="22" rx="0.5" fill="#730087"/>
<rect x="189" y="238" width="1" height="22" rx="0.5" fill="#730087"/>
<rect x="187" y="238" width="1" height="22" rx="0.5" fill="#730087"/>
<rect x="185" y="238" width="1" height="22" rx="0.5" fill="#730087"/>
<rect x="183" y="238" width="1" height="22" rx="0.5" fill="#730087"/>
<rect x="181" y="238" width="1" height="22" rx="0.5" fill="#730087"/>
<rect x="179" y="238" width="1" height="22" rx="0.5" fill="#730087"/>
<rect x="177" y="238" width="1" height="22" rx="0.5" fill="#730087"/>
<rect x="175" y="238" width="1" height="22" rx="0.5" fill="#730087"/>
<rect x="173" y="238" width="1" height="22" rx="0.5" fill="#730087"/>
<rect x="171" y="238" width="1" height="22" rx="0.5" fill="#730087"/>
<rect x="169" y="238" width="1" height="22" rx="0.5" fill="#730087"/>
<rect x="167" y="238" width="1" height="22" rx="0.5" fill="#730087"/>
<rect x="165" y="238" width="1" height="22" rx="0.5" fill="#730087"/>
<rect x="163" y="238" width="1" height="22" rx="0.5" fill="#730087"/>
<rect x="161" y="238" width="1" height="22" rx="0.5" fill="#730087"/>
<rect x="159" y="238" width="1" height="22" rx="0.5" fill="#730087"/>
<rect x="157" y="238" width="1" height="22" rx="0.5" fill="#730087"/>
<rect x="155" y="238" width="1" height="22" rx="0.5" fill="#730087"/>
<rect x="153" y="238" width="1" height="22" rx="0.5" fill="#730087"/>
<rect x="141" y="244" width="11" height="10" fill="#730087"/>
<rect x="139" y="238" width="1" height="22" rx="0.5" fill="#730087"/>
<rect x="137" y="238" width="1" height="22" rx="0.5" fill="#730087"/>
<rect x="135" y="238" width="1" height="22" rx="0.5" fill="#730087"/>
<rect x="133" y="238" width="1" height="22" rx="0.5" fill="#730087"/>
<rect x="131" y="238" width="1" height="22" rx="0.5" fill="#730087"/>
<rect x="129" y="238" width="1" height="22" rx="0.5" fill="#730087"/>
<rect x="127" y="238" width="1" height="22" rx="0.5" fill="#730087"/>
<rect x="125" y="238" width="1" height="22" rx="0.5" fill="#730087"/>
<rect x="123" y="238" width="1" height="22" rx="0.5" fill="#730087"/>
<rect x="121" y="238" width="1" height="22" rx="0.5" fill="#730087"/>
<rect x="119" y="238" width="1" height="22" rx="0.5" fill="#730087"/>
<rect x="117" y="238" width="1" height="22" rx="0.5" fill="#730087"/>
<rect x="115" y="238" width="1" height="22" rx="0.5" fill="#730087"/>
<rect x="113" y="238" width="1" height="22" rx="0.5" fill="#730087"/>
<rect x="111" y="238" width="1" height="22" rx="0.5" fill="#730087"/>
<rect x="109" y="238" width="1" height="22" rx="0.5" fill="#730087"/>
<rect x="107" y="238" width="1" height="22" rx="0.5" fill="#730087"/>
<rect x="105" y="238" width="1" height="22" rx="0.5" fill="#730087"/>
<rect x="103" y="238" width="1" height="22" rx="0.5" fill="#730087"/>
<rect x="101" y="238" width="1" height="22" rx="0.5" fill="#730087"/>
<rect x="99" y="238" width="1" height="22" rx="0.5" fill="#730087"/>
<rect x="97" y="238" width="1" height="22" rx="0.5" fill="#730087"/>
<rect x="95" y="238" width="1" height="22" rx="0.5" fill="#730087"/>
<rect x="93" y="238" width="1" height="22" rx="0.5" fill="#730087"/>
<rect x="91" y="238" width="1" height="22" rx="0.5" fill="#730087"/>
<rect x="89" y="238" width="1" height="22" rx="0.5" fill="#730087"/>
<rect x="87" y="238" width="1" height="22" rx="0.5" fill="#730087"/>
<rect x="85" y="238" width="1" height="22" rx="0.5" fill="#730087"/>
<rect x="83" y="238" width="1" height="22" rx="0.5" fill="#730087"/>
<rect x="81" y="238" width="1" height="22" rx="0.5" fill="#730087"/>
<rect x="79" y="238" width="1" height="22" rx="0.5" fill="#730087"/>
<rect x="77" y="238" width="1" height="22" rx="0.5" fill="#730087"/>
<rect x="75" y="238" width="1" height="22" rx="0.5" fill="#730087"/>
<rect x="73" y="238" width="1" height="22" rx="0.5" fill="#730087"/>
<rect x="71" y="238" width="1" height="22" rx="0.5" fill="#730087"/>
<rect x="69" y="238" width="1" height="22" rx="0.5" fill="#730087"/>
<rect x="67" y="238" width="1" height="22" rx="0.5" fill="#730087"/>
<rect x="65" y="238" width="1" height="22" rx="0.5" fill="#730087"/>
<rect x="63" y="238" width="1" height="22" rx="0.5" fill="#730087"/>
<rect x="61" y="238" width="1" height="22" rx="0.5" fill="#730087"/>
<rect x="59" y="238" width="1" height="22" rx="0.5" fill="#730087"/>
<rect x="57" y="238" width="1" height="22" rx="0.5" fill="#730087"/>
<rect x="55" y="238" width="1" height="22" rx="0.5" fill="#730087"/>
<rect x="53" y="238" width="1" height="22" rx="0.5" fill="#730087"/>
<rect x="51" y="238" width="1" height="22" rx="0.5" fill="#730087"/>
<rect x="49" y="238" width="1" height="22" rx="0.5" fill="#730087"/>
<rect x="47" y="238" width="1" height="22" rx="0.5" fill="#730087"/>
<rect x="45" y="238" width="1" height="22" rx="0.5" fill="#730087"/>
<rect x="43" y="238" width="1" height="22" rx="0.5" fill="#730087"/>
<rect x="41" y="238" width="1" height="22" rx="0.5" fill="#730087"/>
<rect x="39" y="238" width="1" height="22" rx="0.5" fill="#730087"/>
<rect x="37" y="238" width="1" height="22" rx="0.5" fill="#730087"/>
<rect x="35" y="238" width="1" height="22" rx="0.5" fill="#730087"/>
<rect x="33" y="238" width="1" height="22" rx="0.5" fill="#730087"/>
<rect x="31" y="238" width="1" height="22" rx="0.5" fill="#730087"/>
<rect x="29" y="238" width="1" height="22" rx="0.5" fill="#730087"/>
<rect x="27" y="238" width="1" height="22" rx="0.5" fill="#730087"/>
<path d="M6 236C6 235.448 6.44772 235 7 235H8C8.55228 235 9 235.448 9 236V237C9 237.552 9.44772 238 10 238H11C11.5523 238 12 237.552 12 237V236C12 235.448 12.4477 235 13 235H16V294H7C6.44772 294 6 293.552 6 293V289C6 288.448 6.44772 288 7 288H8C8.55228 288 9 287.552 9 287V287C9 286.448 8.55228 286 8 286H7C6.44772 286 6 285.552 6 285V267C6 266.448 6.44772 266 7 266H8C8.55228 266 9 265.552 9 265V265C9 264.448 8.55228 264 8 264H7C6.44772 264 6 263.552 6 263V247C6 246.448 6.44772 246 7 246H8C8.55228 246 9 245.552 9 245V245C9 244.448 8.55228 244 8 244H7C6.44772 244 6 243.552 6 243V236Z" fill="#C300D7"/>
<circle cx="12" cy="240" r="3" fill="#730087"/>
<circle cx="12" cy="260" r="3" fill="#730087"/>
<circle cx="12" cy="282" r="3" fill="#730087"/>
<rect x="41" y="263" width="332" height="20" rx="2" fill="#730087"/>
<rect x="44.353" y="265.857" width="199.535" height="14.2857" rx="1" fill="#87009B"/>
<rect x="247.242" y="265.857" width="1.67677" height="14.2857" rx="0.3" fill="#87009B"/>
<rect x="252.273" y="265.857" width="117.374" height="14.2857" rx="1" fill="#87009B"/>
<path d="M92.5 272C92.7761 272 93 272.224 93 272.5V272.5C93 272.776 92.7761 273 92.5 273L49.5 273C49.2239 273 49 272.776 49 272.5V272.5C49 272.224 49.2239 272 49.5 272H92.5Z" fill="#730087"/>
<path d="M122.5 270C122.776 270 123 270.224 123 270.5V270.5C123 270.776 122.776 271 122.5 271L49.4999 271C49.2237 271 48.9999 270.776 48.9999 270.5V270.5C48.9999 270.224 49.2237 270 49.4999 270L122.5 270Z" fill="#730087"/>
<path d="M321.52 277C321.244 277 321.02 276.776 321.02 276.5V276.5C321.02 276.224 321.244 276 321.52 276L364.5 276C364.776 276 365 276.224 365 276.5V276.5C365 276.776 364.776 277 364.5 277L321.52 277Z" fill="#730087"/>
<path d="M338.5 275C338.224 275 338 274.776 338 274.5V274.5C338 274.224 338.224 274 338.5 274L364.5 274C364.776 274 365 274.224 365 274.5V274.5C365 274.776 364.776 275 364.5 275L338.5 275Z" fill="#730087"/>
<rect x="389" y="253" width="57" height="33" rx="2" fill="#87009B"/>
<rect x="390" y="254" width="55" height="31" rx="2" fill="#730087"/>
<rect x="393" y="257" width="49" height="25" rx="1" fill="#5F0073"/>
<path d="M403.49 267.36V267.16C403.49 267.02 403.56 266.95 403.7 266.95H404.55C404.69 266.95 404.76 267.02 404.76 267.16V267.24C404.76 267.493 404.81 267.667 404.91 267.76C405.01 267.853 405.193 267.9 405.46 267.9H405.93C406.19 267.9 406.37 267.85 406.47 267.75C406.577 267.65 406.63 267.463 406.63 267.19V267.07C406.63 266.877 406.55 266.73 406.39 266.63C406.237 266.523 406.043 266.46 405.81 266.44C405.577 266.42 405.323 266.383 405.05 266.33C404.783 266.27 404.533 266.197 404.3 266.11C404.067 266.017 403.87 265.84 403.71 265.58C403.557 265.313 403.48 264.973 403.48 264.56V264.21C403.48 263.69 403.627 263.287 403.92 263C404.213 262.713 404.62 262.57 405.14 262.57H406.14C406.667 262.57 407.077 262.713 407.37 263C407.663 263.287 407.81 263.69 407.81 264.21V264.4C407.81 264.54 407.74 264.61 407.6 264.61H406.75C406.61 264.61 406.54 264.54 406.54 264.4V264.34C406.54 264.08 406.49 263.903 406.39 263.81C406.29 263.717 406.107 263.67 405.84 263.67H405.45C405.177 263.67 404.99 263.723 404.89 263.83C404.797 263.93 404.75 264.13 404.75 264.43V264.62C404.75 264.933 405.023 265.113 405.57 265.16C406.137 265.207 406.64 265.32 407.08 265.5C407.313 265.6 407.507 265.78 407.66 266.04C407.82 266.293 407.9 266.62 407.9 267.02V267.36C407.9 267.88 407.753 268.283 407.46 268.57C407.167 268.857 406.76 269 406.24 269H405.15C404.63 269 404.223 268.857 403.93 268.57C403.637 268.283 403.49 267.88 403.49 267.36ZM411.101 269H410.251C410.111 269 410.041 268.93 410.041 268.79V262.78C410.041 262.64 410.111 262.57 410.251 262.57H413.441C413.574 262.57 413.641 262.64 413.641 262.78V263.46C413.641 263.6 413.574 263.67 413.441 263.67H411.431C411.351 263.67 411.311 263.707 411.311 263.78V265.33C411.311 265.41 411.351 265.45 411.431 265.45H413.141C413.281 265.45 413.351 265.52 413.351 265.66V266.33C413.351 266.477 413.281 266.55 413.141 266.55H411.431C411.351 266.55 411.311 266.587 411.311 266.66V268.79C411.311 268.93 411.241 269 411.101 269ZM416.603 269H415.753C415.613 269 415.543 268.93 415.543 268.79V262.78C415.543 262.64 415.613 262.57 415.753 262.57H418.943C419.076 262.57 419.143 262.64 419.143 262.78V263.46C419.143 263.6 419.076 263.67 418.943 263.67H416.933C416.853 263.67 416.813 263.707 416.813 263.78V265.33C416.813 265.41 416.853 265.45 416.933 265.45H418.643C418.783 265.45 418.853 265.52 418.853 265.66V266.33C418.853 266.477 418.783 266.55 418.643 266.55H416.933C416.853 266.55 416.813 266.587 416.813 266.66V268.79C416.813 268.93 416.743 269 416.603 269ZM422.105 269H421.255C421.115 269 421.045 268.93 421.045 268.79V262.78C421.045 262.64 421.115 262.57 421.255 262.57H423.695C424.215 262.57 424.618 262.713 424.905 263C425.191 263.28 425.335 263.68 425.335 264.2V265.16C425.335 265.68 425.191 266.083 424.905 266.37C424.618 266.65 424.215 266.79 423.695 266.79H422.435C422.355 266.79 422.315 266.827 422.315 266.9V268.79C422.315 268.93 422.245 269 422.105 269ZM422.425 265.68H423.485C423.698 265.68 423.848 265.637 423.935 265.55C424.021 265.457 424.065 265.307 424.065 265.1V264.26C424.065 264.047 424.021 263.897 423.935 263.81C423.848 263.717 423.698 263.67 423.485 263.67H422.425C422.351 263.67 422.315 263.707 422.315 263.78V265.57C422.315 265.643 422.351 265.68 422.425 265.68ZM429.987 269H428.897C428.371 269 427.964 268.86 427.677 268.58C427.391 268.3 427.247 267.897 427.247 267.37V264.2C427.247 263.673 427.391 263.27 427.677 262.99C427.964 262.71 428.371 262.57 428.897 262.57H429.987C430.507 262.57 430.911 262.713 431.197 263C431.491 263.28 431.637 263.68 431.637 264.2V264.67C431.637 264.817 431.564 264.89 431.417 264.89H430.577C430.437 264.89 430.367 264.817 430.367 264.67V264.26C430.367 264.047 430.321 263.897 430.227 263.81C430.141 263.717 429.991 263.67 429.777 263.67H429.097C428.891 263.67 428.741 263.717 428.647 263.81C428.561 263.897 428.517 264.047 428.517 264.26V267.31C428.517 267.523 428.561 267.677 428.647 267.77C428.741 267.857 428.891 267.9 429.097 267.9H429.777C429.991 267.9 430.141 267.857 430.227 267.77C430.321 267.677 430.367 267.523 430.367 267.31V266.9C430.367 266.753 430.437 266.68 430.577 266.68H431.417C431.564 266.68 431.637 266.753 431.637 266.9V267.37C431.637 267.89 431.491 268.293 431.197 268.58C430.911 268.86 430.507 269 429.987 269ZM405.03 275.94H406.15C406.37 275.94 406.527 275.897 406.62 275.81C406.72 275.717 406.77 275.567 406.77 275.36V274.78C406.77 274.573 406.72 274.427 406.62 274.34C406.52 274.253 406.357 274.21 406.13 274.21H405.03C404.957 274.21 404.92 274.247 404.92 274.32V275.83C404.92 275.903 404.957 275.94 405.03 275.94ZM405.03 273.18H406.05C406.263 273.18 406.42 273.137 406.52 273.05C406.62 272.957 406.67 272.807 406.67 272.6V272.21C406.67 272.003 406.62 271.857 406.52 271.77C406.427 271.677 406.273 271.63 406.06 271.63H405.03C404.957 271.63 404.92 271.667 404.92 271.74V273.07C404.92 273.143 404.957 273.18 405.03 273.18ZM403.65 276.79V270.78C403.65 270.64 403.72 270.57 403.86 270.57H406.26C406.787 270.57 407.193 270.71 407.48 270.99C407.767 271.27 407.91 271.67 407.91 272.19V272.6C407.91 273.167 407.647 273.533 407.12 273.7C407.387 273.74 407.6 273.85 407.76 274.03C407.92 274.203 408 274.453 408 274.78V275.38C408 275.9 407.857 276.3 407.57 276.58C407.283 276.86 406.88 277 406.36 277H403.86C403.72 277 403.65 276.93 403.65 276.79ZM413.697 277H410.407C410.267 277 410.197 276.93 410.197 276.79V270.78C410.197 270.64 410.267 270.57 410.407 270.57H411.257C411.397 270.57 411.467 270.64 411.467 270.78V275.78C411.467 275.853 411.507 275.89 411.587 275.89H413.697C413.83 275.89 413.897 275.963 413.897 276.11V276.79C413.897 276.93 413.83 277 413.697 277ZM417.069 275.9H418.159C418.372 275.9 418.522 275.857 418.609 275.77C418.702 275.677 418.749 275.523 418.749 275.31V272.26C418.749 272.047 418.702 271.897 418.609 271.81C418.522 271.717 418.372 271.67 418.159 271.67H417.069C416.996 271.67 416.959 271.707 416.959 271.78V275.79C416.959 275.863 416.996 275.9 417.069 275.9ZM415.689 276.79V270.78C415.689 270.64 415.759 270.57 415.899 270.57H418.369C418.889 270.57 419.292 270.713 419.579 271C419.872 271.28 420.019 271.68 420.019 272.2V275.37C420.019 275.89 419.872 276.293 419.579 276.58C419.292 276.86 418.889 277 418.369 277H415.899C415.759 277 415.689 276.93 415.689 276.79ZM423.276 277H422.426C422.286 277 422.216 276.93 422.216 276.79V270.78C422.216 270.64 422.286 270.57 422.426 270.57H424.806C425.326 270.57 425.733 270.713 426.026 271C426.32 271.287 426.466 271.69 426.466 272.21V272.99C426.466 273.743 426.17 274.243 425.576 274.49V274.53L426.646 276.76C426.706 276.92 426.65 277 426.476 277H425.666C425.546 277 425.46 276.987 425.406 276.96C425.353 276.933 425.31 276.877 425.276 276.79L424.276 274.63H423.606C423.526 274.63 423.486 274.667 423.486 274.74V276.79C423.486 276.93 423.416 277 423.276 277ZM423.596 273.61H424.576C424.79 273.61 424.946 273.567 425.046 273.48C425.146 273.387 425.196 273.24 425.196 273.04V272.26C425.196 272.053 425.146 271.903 425.046 271.81C424.946 271.717 424.79 271.67 424.576 271.67H423.596C423.523 271.67 423.486 271.707 423.486 271.78V273.5C423.486 273.573 423.523 273.61 423.596 273.61ZM429.695 275.56V276.79C429.695 276.93 429.632 277 429.505 277H428.615C428.482 277 428.415 276.93 428.415 276.79V275.57C428.415 275.437 428.482 275.37 428.615 275.37H429.505C429.632 275.37 429.695 275.433 429.695 275.56Z" fill="#D700EB"/>
<rect x="234" y="66" width="22" height="122" rx="2" fill="#9B00AF"/>
<rect x="239" y="71" width="5" height="112" rx="2" fill="#87009B"/>
<rect x="241" y="74" width="1" height="10" rx="0.5" fill="#730087"/>
<rect x="241" y="86" width="1" height="10" rx="0.5" fill="#730087"/>
<rect x="241" y="98" width="1" height="10" rx="0.5" fill="#730087"/>
<rect x="241" y="110" width="1" height="10" rx="0.5" fill="#730087"/>
<rect x="241" y="122" width="1" height="10" rx="0.5" fill="#730087"/>
<rect x="241" y="134" width="1" height="10" rx="0.5" fill="#730087"/>
<rect x="241" y="146" width="1" height="10" rx="0.5" fill="#730087"/>
<rect x="241" y="158" width="1" height="10" rx="0.5" fill="#730087"/>
<rect x="241" y="170" width="1" height="10" rx="0.5" fill="#730087"/>
<rect x="246" y="71" width="5" height="112" rx="2" fill="#87009B"/>
<rect x="248" y="74" width="1" height="10" rx="0.5" fill="#730087"/>
<rect x="248" y="86" width="1" height="10" rx="0.5" fill="#730087"/>
<rect x="248" y="98" width="1" height="10" rx="0.5" fill="#730087"/>
<rect x="248" y="110" width="1" height="10" rx="0.5" fill="#730087"/>
<rect x="248" y="122" width="1" height="10" rx="0.5" fill="#730087"/>
<rect x="248" y="134" width="1" height="10" rx="0.5" fill="#730087"/>
<rect x="248" y="146" width="1" height="10" rx="0.5" fill="#730087"/>
<rect x="248" y="158" width="1" height="10" rx="0.5" fill="#730087"/>
<rect x="248" y="170" width="1" height="10" rx="0.5" fill="#730087"/>
<path d="M266 72C266 70.3431 267.343 69 269 69H275C276.657 69 278 67.6569 278 66V64C278 62.3431 279.343 61 281 61H302C303.657 61 305 62.3431 305 64V66C305 67.6569 306.343 69 308 69H436C437.657 69 439 70.3431 439 72V194C439 195.657 437.657 197 436 197H269C267.343 197 266 195.657 266 194V72Z" fill="#87009B"/>
<circle cx="293" cy="93" r="3" fill="#730087"/>
<circle cx="301" cy="93" r="3" fill="#730087"/>
<circle cx="309" cy="93" r="3" fill="#730087"/>
<circle cx="317" cy="93" r="3" fill="#730087"/>
<circle cx="325" cy="93" r="3" fill="#730087"/>
<circle cx="333" cy="93" r="3" fill="#730087"/>
<circle cx="341" cy="93" r="3" fill="#730087"/>
<circle cx="349" cy="93" r="3" fill="#730087"/>
<circle cx="357" cy="93" r="3" fill="#730087"/>
<circle cx="365" cy="93" r="3" fill="#730087"/>
<circle cx="373" cy="93" r="3" fill="#730087"/>
<circle cx="381" cy="93" r="3" fill="#730087"/>
<circle cx="389" cy="93" r="3" fill="#730087"/>
<circle cx="397" cy="93" r="3" fill="#730087"/>
<circle cx="405" cy="93" r="3" fill="#730087"/>
<circle cx="413" cy="93" r="3" fill="#730087"/>
<circle cx="293" cy="101" r="3" fill="#730087"/>
<circle cx="301" cy="101" r="3" fill="#730087"/>
<circle cx="309" cy="101" r="3" fill="#730087"/>
<circle cx="317" cy="101" r="3" fill="#730087"/>
<circle cx="325" cy="101" r="3" fill="#730087"/>
<circle cx="333" cy="101" r="3" fill="#730087"/>
<circle cx="341" cy="101" r="3" fill="#730087"/>
<circle cx="349" cy="101" r="3" fill="#730087"/>
<circle cx="357" cy="101" r="3" fill="#730087"/>
<circle cx="365" cy="101" r="3" fill="#730087"/>
<circle cx="373" cy="101" r="3" fill="#730087"/>
<circle cx="381" cy="101" r="3" fill="#730087"/>
<circle cx="389" cy="101" r="3" fill="#730087"/>
<circle cx="397" cy="101" r="3" fill="#730087"/>
<circle cx="405" cy="101" r="3" fill="#730087"/>
<circle cx="413" cy="101" r="3" fill="#730087"/>
<circle cx="293" cy="109" r="3" fill="#730087"/>
<circle cx="301" cy="109" r="3" fill="#730087"/>
<circle cx="309" cy="109" r="3" fill="#730087"/>
<circle cx="317" cy="109" r="3" fill="#730087"/>
<circle cx="325" cy="109" r="3" fill="#730087"/>
<circle cx="333" cy="109" r="3" fill="#730087"/>
<circle cx="341" cy="109" r="3" fill="#730087"/>
<circle cx="349" cy="109" r="3" fill="#730087"/>
<circle cx="357" cy="109" r="3" fill="#730087"/>
<circle cx="365" cy="109" r="3" fill="#730087"/>
<circle cx="373" cy="109" r="3" fill="#730087"/>
<circle cx="381" cy="109" r="3" fill="#730087"/>
<circle cx="389" cy="109" r="3" fill="#730087"/>
<circle cx="397" cy="109" r="3" fill="#730087"/>
<circle cx="405" cy="109" r="3" fill="#730087"/>
<circle cx="413" cy="109" r="3" fill="#730087"/>
<circle cx="293" cy="117" r="3" fill="#730087"/>
<circle cx="301" cy="117" r="3" fill="#730087"/>
<circle cx="309" cy="117" r="3" fill="#730087"/>
<circle cx="317" cy="117" r="3" fill="#730087"/>
<circle cx="325" cy="117" r="3" fill="#730087"/>
<circle cx="333" cy="117" r="3" fill="#730087"/>
<circle cx="341" cy="117" r="3" fill="#730087"/>
<circle cx="349" cy="117" r="3" fill="#730087"/>
<circle cx="357" cy="117" r="3" fill="#730087"/>
<circle cx="365" cy="117" r="3" fill="#730087"/>
<circle cx="373" cy="117" r="3" fill="#730087"/>
<circle cx="381" cy="117" r="3" fill="#730087"/>
<circle cx="389" cy="117" r="3" fill="#730087"/>
<circle cx="397" cy="117" r="3" fill="#730087"/>
<circle cx="405" cy="117" r="3" fill="#730087"/>
<circle cx="413" cy="117" r="3" fill="#730087"/>
<circle cx="293" cy="125" r="3" fill="#730087"/>
<circle cx="301" cy="125" r="3" fill="#730087"/>
<circle cx="309" cy="125" r="3" fill="#730087"/>
<circle cx="317" cy="125" r="3" fill="#730087"/>
<circle cx="325" cy="125" r="3" fill="#730087"/>
<circle cx="333" cy="125" r="3" fill="#730087"/>
<circle cx="341" cy="125" r="3" fill="#730087"/>
<circle cx="349" cy="125" r="3" fill="#730087"/>
<circle cx="357" cy="125" r="3" fill="#730087"/>
<circle cx="365" cy="125" r="3" fill="#730087"/>
<circle cx="373" cy="125" r="3" fill="#730087"/>
<circle cx="381" cy="125" r="3" fill="#730087"/>
<circle cx="389" cy="125" r="3" fill="#730087"/>
<circle cx="397" cy="125" r="3" fill="#730087"/>
<circle cx="405" cy="125" r="3" fill="#730087"/>
<circle cx="413" cy="125" r="3" fill="#730087"/>
<circle cx="293" cy="133" r="3" fill="#730087"/>
<circle cx="301" cy="133" r="3" fill="#730087"/>
<circle cx="309" cy="133" r="3" fill="#730087"/>
<circle cx="317" cy="133" r="3" fill="#730087"/>
<circle cx="325" cy="133" r="3" fill="#730087"/>
<circle cx="333" cy="133" r="3" fill="#730087"/>
<circle cx="341" cy="133" r="3" fill="#730087"/>
<circle cx="349" cy="133" r="3" fill="#730087"/>
<circle cx="357" cy="133" r="3" fill="#730087"/>
<circle cx="365" cy="133" r="3" fill="#730087"/>
<circle cx="373" cy="133" r="3" fill="#730087"/>
<circle cx="381" cy="133" r="3" fill="#730087"/>
<circle cx="389" cy="133" r="3" fill="#730087"/>
<circle cx="397" cy="133" r="3" fill="#730087"/>
<circle cx="405" cy="133" r="3" fill="#730087"/>
<circle cx="413" cy="133" r="3" fill="#730087"/>
<circle cx="293" cy="141" r="3" fill="#730087"/>
<circle cx="301" cy="141" r="3" fill="#730087"/>
<circle cx="309" cy="141" r="3" fill="#730087"/>
<circle cx="317" cy="141" r="3" fill="#730087"/>
<circle cx="325" cy="141" r="3" fill="#730087"/>
<circle cx="333" cy="141" r="3" fill="#730087"/>
<circle cx="341" cy="141" r="3" fill="#730087"/>
<circle cx="349" cy="141" r="3" fill="#730087"/>
<circle cx="357" cy="141" r="3" fill="#730087"/>
<circle cx="365" cy="141" r="3" fill="#730087"/>
<circle cx="373" cy="141" r="3" fill="#730087"/>
<circle cx="381" cy="141" r="3" fill="#730087"/>
<circle cx="389" cy="141" r="3" fill="#730087"/>
<circle cx="397" cy="141" r="3" fill="#730087"/>
<circle cx="405" cy="141" r="3" fill="#730087"/>
<circle cx="413" cy="141" r="3" fill="#730087"/>
<circle cx="293" cy="149" r="3" fill="#730087"/>
<circle cx="301" cy="149" r="3" fill="#730087"/>
<circle cx="309" cy="149" r="3" fill="#730087"/>
<circle cx="317" cy="149" r="3" fill="#730087"/>
<circle cx="325" cy="149" r="3" fill="#730087"/>
<circle cx="333" cy="149" r="3" fill="#730087"/>
<circle cx="341" cy="149" r="3" fill="#730087"/>
<circle cx="349" cy="149" r="3" fill="#730087"/>
<circle cx="357" cy="149" r="3" fill="#730087"/>
<circle cx="365" cy="149" r="3" fill="#730087"/>
<circle cx="373" cy="149" r="3" fill="#730087"/>
<circle cx="381" cy="149" r="3" fill="#730087"/>
<circle cx="389" cy="149" r="3" fill="#730087"/>
<circle cx="397" cy="149" r="3" fill="#730087"/>
<circle cx="405" cy="149" r="3" fill="#730087"/>
<circle cx="413" cy="149" r="3" fill="#730087"/>
<circle cx="293" cy="157" r="3" fill="#730087"/>
<circle cx="301" cy="157" r="3" fill="#730087"/>
<circle cx="309" cy="157" r="3" fill="#730087"/>
<circle cx="317" cy="157" r="3" fill="#730087"/>
<circle cx="325" cy="157" r="3" fill="#730087"/>
<circle cx="333" cy="157" r="3" fill="#730087"/>
<circle cx="341" cy="157" r="3" fill="#730087"/>
<circle cx="349" cy="157" r="3" fill="#730087"/>
<circle cx="357" cy="157" r="3" fill="#730087"/>
<circle cx="365" cy="157" r="3" fill="#730087"/>
<circle cx="373" cy="157" r="3" fill="#730087"/>
<circle cx="381" cy="157" r="3" fill="#730087"/>
<circle cx="389" cy="157" r="3" fill="#730087"/>
<circle cx="397" cy="157" r="3" fill="#730087"/>
<circle cx="405" cy="157" r="3" fill="#730087"/>
<circle cx="413" cy="157" r="3" fill="#730087"/>
<circle cx="293" cy="165" r="3" fill="#730087"/>
<circle cx="301" cy="165" r="3" fill="#730087"/>
<circle cx="309" cy="165" r="3" fill="#730087"/>
<circle cx="317" cy="165" r="3" fill="#730087"/>
<circle cx="325" cy="165" r="3" fill="#730087"/>
<circle cx="333" cy="165" r="3" fill="#730087"/>
<circle cx="341" cy="165" r="3" fill="#730087"/>
<circle cx="349" cy="165" r="3" fill="#730087"/>
<circle cx="357" cy="165" r="3" fill="#730087"/>
<circle cx="365" cy="165" r="3" fill="#730087"/>
<circle cx="373" cy="165" r="3" fill="#730087"/>
<circle cx="381" cy="165" r="3" fill="#730087"/>
<circle cx="389" cy="165" r="3" fill="#730087"/>
<circle cx="397" cy="165" r="3" fill="#730087"/>
<circle cx="405" cy="165" r="3" fill="#730087"/>
<circle cx="413" cy="165" r="3" fill="#730087"/>
<circle cx="293" cy="173" r="3" fill="#730087"/>
<circle cx="301" cy="173" r="3" fill="#730087"/>
<circle cx="309" cy="173" r="3" fill="#730087"/>
<circle cx="317" cy="173" r="3" fill="#730087"/>
<circle cx="325" cy="173" r="3" fill="#730087"/>
<circle cx="333" cy="173" r="3" fill="#730087"/>
<circle cx="341" cy="173" r="3" fill="#730087"/>
<circle cx="349" cy="173" r="3" fill="#730087"/>
<circle cx="357" cy="173" r="3" fill="#730087"/>
<circle cx="365" cy="173" r="3" fill="#730087"/>
<circle cx="373" cy="173" r="3" fill="#730087"/>
<circle cx="381" cy="173" r="3" fill="#730087"/>
<circle cx="389" cy="173" r="3" fill="#730087"/>
<circle cx="397" cy="173" r="3" fill="#730087"/>
<circle cx="405" cy="173" r="3" fill="#730087"/>
<circle cx="413" cy="173" r="3" fill="#730087"/>
<rect x="109" y="90" width="75" height="75" rx="5" fill="#9B00AF"/>
<path d="M122 108C122 105.239 124.239 103 127 103H167C169.761 103 172 105.239 172 108V148C172 150.761 169.761 153 167 153H127C124.239 153 122 150.761 122 148V138.5C122 138.224 121.776 138 121.5 138H104C103.448 138 103 137.552 103 137V119C103 118.448 103.448 118 104 118H118C118.552 118 119 118.448 119 119V120.5C119 120.776 119.224 121 119.5 121H121.5C121.776 121 122 120.776 122 120.5V108Z" fill="#730087"/>
<path d="M61 45H73C73 74.5 117 92 117 118H105C105 96 61 80.5 61 45Z" fill="#FFE500"/>
<path d="M55 14C55 11.2386 57.2386 9 60 9H432C434.761 9 437 11.2386 437 14V24C437 26.7614 434.761 29 432 29H73.5C73.2239 29 73 29.2239 73 29.5V30.5C73 30.7761 73.2239 31 73.5 31H74C74.5523 31 75 31.4477 75 32V44C75 44.5523 74.5523 45 74 45H60C59.4477 45 59 44.5523 59 44V32C59 31.4477 59.4477 31 60 31H60.5C60.7761 31 61 30.7761 61 30.5V29.5C61 29.2239 60.7761 29 60.5 29H60C57.2386 29 55 26.7614 55 24V14Z" fill="#730087"/>
<path d="M84 32.5C84 31.6716 84.6716 31 85.5 31H247.5C248.328 31 249 31.6716 249 32.5V32.5C249 33.3284 248.328 34 247.5 34H247C245.895 34 245 34.8954 245 36V45C245 46.1046 245.895 47 247 47H247.5C248.328 47 249 47.6716 249 48.5V48.5C249 49.3284 248.328 50 247.5 50H85.5C84.6716 50 84 49.3284 84 48.5V48.5C84 47.6716 84.6716 47 85.5 47H86C87.1046 47 88 46.1046 88 45V36C88 34.8954 87.1046 34 86 34H85.5C84.6716 34 84 33.3284 84 32.5V32.5Z" fill="#87009B"/>
<rect x="235" y="45" width="7" height="2" rx="1" fill="#730087"/>
<rect x="91" y="34" width="7" height="2" rx="1" fill="#730087"/>
<path d="M260 32.5C260 31.6716 260.672 31 261.5 31H423.5C424.328 31 425 31.6716 425 32.5V32.5C425 33.3284 424.328 34 423.5 34H423C421.895 34 421 34.8954 421 36V45C421 46.1046 421.895 47 423 47H423.5C424.328 47 425 47.6716 425 48.5V48.5C425 49.3284 424.328 50 423.5 50H261.5C260.672 50 260 49.3284 260 48.5V48.5C260 47.6716 260.672 47 261.5 47H262C263.105 47 264 46.1046 264 45V36C264 34.8954 263.105 34 262 34H261.5C260.672 34 260 33.3284 260 32.5V32.5Z" fill="#87009B"/>
<rect x="411" y="45" width="7" height="2" rx="1" fill="#730087"/>
<rect x="267" y="34" width="7" height="2" rx="1" fill="#730087"/>
<path d="M25 56H46C47.1046 56 48 56.8954 48 58V220C48 221.105 47.1046 222 46 222H25V56Z" fill="#9B00AF"/>
<path d="M25 22H39C40.1046 22 41 22.8954 41 24C41 25.1046 41.8954 26 43 26C44.1046 26 45 26.8954 45 28V43C45 44.1046 44.1046 45 43 45C41.8954 45 41 45.8954 41 47C41 48.1046 40.1046 49 39 49H25V22Z" fill="#87009B"/>
<path d="M25 172.5L465 78.2547V316C465 317.657 463.657 319 462 319H28C26.3431 319 25 317.657 25 316V172.5Z" fill="white" fill-opacity="0.2"/>
</svg>
