<svg width="474" height="348" viewBox="0 0 474 348" fill="none" xmlns="http://www.w3.org/2000/svg">
<path d="M16 5C16 2.23858 18.2386 0 21 0H469C471.761 0 474 2.23858 474 5V323.53C474 326.291 471.761 328.53 469 328.53H461.103H417.712H70.5861H27.1954H21C18.2386 328.53 16 326.291 16 323.53V302C16 300.895 15.1046 300 14 300H5C2.23858 300 0 297.761 0 295V234C0 231.239 2.23858 229 5 229H14C15.1046 229 16 228.105 16 227V5Z" fill="#CCFF00"/>
<path d="M414.29 328.53H463.702C461.88 328.53 460.293 329.769 459.851 331.537L456.9 343.339C456.344 345.564 454.344 347.126 452.05 347.126H427.014C424.862 347.126 422.951 345.749 422.271 343.707L418.136 331.302C417.584 329.647 416.035 328.53 414.29 328.53Z" fill="#FFE500"/>
<path d="M23.5962 328.53H73.1857C71.3642 328.53 69.7764 329.769 69.3346 331.537L66.3842 343.338C65.8277 345.564 63.8278 347.126 61.5335 347.126H36.4981C34.3459 347.126 32.4352 345.749 31.7547 343.707L27.6756 331.47C27.0903 329.714 25.4471 328.53 23.5962 328.53Z" fill="#FFE500"/>
<path d="M9 23C9 21.3431 10.3431 20 12 20H16V51H12C10.3431 51 9 49.6569 9 48V23Z" fill="#FFE500"/>
<rect x="25" y="9" width="440" height="310" rx="3" fill="#B8EB00"/>
<rect x="49" y="39" width="403" height="256" rx="3" fill="#AEE100"/>
<rect x="280" y="54" width="147" height="221" rx="3" fill="#A4D700"/>
<rect x="28" y="47" width="233" height="236" rx="3" fill="#A4D700"/>
<rect x="60" y="229" width="168" height="18" rx="3" fill="#7CAF00"/>
<rect x="64" y="233" width="160" height="8" rx="1" fill="#72A500"/>
<rect x="100" y="201" width="97" height="21" rx="3" fill="#7CAF00"/>
<rect x="105" y="204" width="89" height="15" rx="2" fill="#689B00"/>
<rect x="105" y="204" width="4" height="15" rx="0.5" fill="#548700"/>
<rect x="106" y="210.5" width="2" height="2" rx="1" fill="#689B00"/>
<rect x="182" y="207" width="9" height="9" rx="1" fill="#548700"/>
<rect x="113" y="209" width="25" height="1" rx="0.5" fill="#548700"/>
<rect x="113" y="207" width="51" height="1" rx="0.5" fill="#548700"/>
<path d="M73 290.5C73 289.672 73.6716 289 74.5 289H236.5C237.328 289 238 289.672 238 290.5C238 291.328 237.328 292 236.5 292H236C234.895 292 234 292.895 234 294V314C234 315.105 234.895 316 236 316H236.5C237.328 316 238 316.672 238 317.5C238 318.328 237.328 319 236.5 319H74.5C73.6716 319 73 318.328 73 317.5C73 316.672 73.6716 316 74.5 316H75C76.1046 316 77 315.105 77 314V294C77 292.895 76.1046 292 75 292H74.5C73.6716 292 73 291.328 73 290.5Z" fill="#689B00"/>
<rect x="224" y="314" width="7" height="2" rx="1" fill="#548700"/>
<rect x="80" y="292" width="7" height="2" rx="1" fill="#548700"/>
<path d="M73 10.5C73 9.67157 73.6716 9 74.5 9H236.5C237.328 9 238 9.67157 238 10.5C238 11.3284 237.328 12 236.5 12H236C234.895 12 234 12.8954 234 14V34C234 35.1046 234.895 36 236 36H236.5C237.328 36 238 36.6716 238 37.5C238 38.3284 237.328 39 236.5 39H74.5C73.6716 39 73 38.3284 73 37.5C73 36.6716 73.6716 36 74.5 36H75C76.1046 36 77 35.1046 77 34V14C77 12.8954 76.1046 12 75 12H74.5C73.6716 12 73 11.3284 73 10.5Z" fill="#689B00"/>
<rect x="224" y="34" width="7" height="2" rx="1" fill="#548700"/>
<rect x="80" y="12" width="7" height="2" rx="1" fill="#548700"/>
<path d="M25 235H313C314.105 235 315 235.895 315 237V273C315 274.105 314.105 275 313 275H25V235Z" fill="#689B00"/>
<rect x="289" y="238" width="1" height="14" rx="0.5" fill="#548700"/>
<rect x="287" y="238" width="1" height="14" rx="0.5" fill="#548700"/>
<rect x="285" y="238" width="1" height="14" rx="0.5" fill="#548700"/>
<rect x="283" y="238" width="1" height="14" rx="0.5" fill="#548700"/>
<rect x="281" y="238" width="1" height="14" rx="0.5" fill="#548700"/>
<rect x="279" y="238" width="1" height="14" rx="0.5" fill="#548700"/>
<rect x="277" y="238" width="1" height="14" rx="0.5" fill="#548700"/>
<rect x="275" y="238" width="1" height="14" rx="0.5" fill="#548700"/>
<rect x="273" y="238" width="1" height="14" rx="0.5" fill="#548700"/>
<rect x="271" y="238" width="1" height="14" rx="0.5" fill="#548700"/>
<rect x="269" y="238" width="1" height="14" rx="0.5" fill="#548700"/>
<rect x="267" y="238" width="1" height="14" rx="0.5" fill="#548700"/>
<rect x="265" y="238" width="1" height="14" rx="0.5" fill="#548700"/>
<rect x="263" y="238" width="1" height="14" rx="0.5" fill="#548700"/>
<rect x="261" y="238" width="1" height="14" rx="0.5" fill="#548700"/>
<rect x="259" y="238" width="1" height="14" rx="0.5" fill="#548700"/>
<rect x="257" y="238" width="1" height="14" rx="0.5" fill="#548700"/>
<rect x="255" y="238" width="1" height="14" rx="0.5" fill="#548700"/>
<rect x="253" y="238" width="1" height="14" rx="0.5" fill="#548700"/>
<rect x="251" y="238" width="1" height="14" rx="0.5" fill="#548700"/>
<rect x="249" y="238" width="1" height="14" rx="0.5" fill="#548700"/>
<rect x="247" y="238" width="1" height="14" rx="0.5" fill="#548700"/>
<rect x="245" y="238" width="1" height="14" rx="0.5" fill="#548700"/>
<rect x="243" y="238" width="1" height="14" rx="0.5" fill="#548700"/>
<rect x="241" y="238" width="1" height="14" rx="0.5" fill="#548700"/>
<rect x="225" y="242" width="15" height="6" fill="#548700"/>
<rect x="223" y="238" width="1" height="14" rx="0.5" fill="#548700"/>
<rect x="221" y="238" width="1" height="14" rx="0.5" fill="#548700"/>
<rect x="219" y="238" width="1" height="14" rx="0.5" fill="#548700"/>
<rect x="217" y="238" width="1" height="14" rx="0.5" fill="#548700"/>
<rect x="215" y="238" width="1" height="14" rx="0.5" fill="#548700"/>
<rect x="213" y="238" width="1" height="14" rx="0.5" fill="#548700"/>
<rect x="211" y="238" width="1" height="14" rx="0.5" fill="#548700"/>
<rect x="209" y="238" width="1" height="14" rx="0.5" fill="#548700"/>
<rect x="207" y="238" width="1" height="14" rx="0.5" fill="#548700"/>
<rect x="205" y="238" width="1" height="14" rx="0.5" fill="#548700"/>
<rect x="203" y="238" width="1" height="14" rx="0.5" fill="#548700"/>
<rect x="201" y="238" width="1" height="14" rx="0.5" fill="#548700"/>
<rect x="199" y="238" width="1" height="14" rx="0.5" fill="#548700"/>
<rect x="197" y="238" width="1" height="14" rx="0.5" fill="#548700"/>
<rect x="195" y="238" width="1" height="14" rx="0.5" fill="#548700"/>
<rect x="193" y="238" width="1" height="14" rx="0.5" fill="#548700"/>
<rect x="191" y="238" width="1" height="14" rx="0.5" fill="#548700"/>
<rect x="189" y="238" width="1" height="14" rx="0.5" fill="#548700"/>
<rect x="187" y="238" width="1" height="14" rx="0.5" fill="#548700"/>
<rect x="185" y="238" width="1" height="14" rx="0.5" fill="#548700"/>
<rect x="183" y="238" width="1" height="14" rx="0.5" fill="#548700"/>
<rect x="181" y="238" width="1" height="14" rx="0.5" fill="#548700"/>
<rect x="179" y="238" width="1" height="14" rx="0.5" fill="#548700"/>
<rect x="177" y="238" width="1" height="14" rx="0.5" fill="#548700"/>
<rect x="175" y="238" width="1" height="14" rx="0.5" fill="#548700"/>
<rect x="173" y="238" width="1" height="14" rx="0.5" fill="#548700"/>
<rect x="171" y="238" width="1" height="14" rx="0.5" fill="#548700"/>
<rect x="169" y="238" width="1" height="14" rx="0.5" fill="#548700"/>
<rect x="167" y="238" width="1" height="14" rx="0.5" fill="#548700"/>
<rect x="165" y="238" width="1" height="14" rx="0.5" fill="#548700"/>
<rect x="163" y="238" width="1" height="14" rx="0.5" fill="#548700"/>
<rect x="161" y="238" width="1" height="14" rx="0.5" fill="#548700"/>
<rect x="159" y="238" width="1" height="14" rx="0.5" fill="#548700"/>
<rect x="157" y="238" width="1" height="14" rx="0.5" fill="#548700"/>
<rect x="155" y="238" width="1" height="14" rx="0.5" fill="#548700"/>
<rect x="153" y="238" width="1" height="14" rx="0.5" fill="#548700"/>
<rect x="151" y="238" width="1" height="14" rx="0.5" fill="#548700"/>
<rect x="149" y="238" width="1" height="14" rx="0.5" fill="#548700"/>
<rect x="147" y="238" width="1" height="14" rx="0.5" fill="#548700"/>
<rect x="145" y="238" width="1" height="14" rx="0.5" fill="#548700"/>
<rect x="143" y="238" width="1" height="14" rx="0.5" fill="#548700"/>
<rect x="141" y="238" width="1" height="14" rx="0.5" fill="#548700"/>
<rect x="139" y="238" width="1" height="14" rx="0.5" fill="#548700"/>
<rect x="137" y="238" width="1" height="14" rx="0.5" fill="#548700"/>
<rect x="135" y="238" width="1" height="14" rx="0.5" fill="#548700"/>
<rect x="133" y="238" width="1" height="14" rx="0.5" fill="#548700"/>
<rect x="131" y="238" width="1" height="14" rx="0.5" fill="#548700"/>
<rect x="129" y="238" width="1" height="14" rx="0.5" fill="#548700"/>
<rect x="127" y="238" width="1" height="14" rx="0.5" fill="#548700"/>
<rect x="125" y="238" width="1" height="14" rx="0.5" fill="#548700"/>
<rect x="123" y="238" width="1" height="14" rx="0.5" fill="#548700"/>
<rect x="121" y="238" width="1" height="14" rx="0.5" fill="#548700"/>
<rect x="119" y="238" width="1" height="14" rx="0.5" fill="#548700"/>
<rect x="117" y="238" width="1" height="14" rx="0.5" fill="#548700"/>
<rect x="115" y="238" width="1" height="14" rx="0.5" fill="#548700"/>
<rect x="113" y="238" width="1" height="14" rx="0.5" fill="#548700"/>
<rect x="111" y="238" width="1" height="14" rx="0.5" fill="#548700"/>
<rect x="109" y="238" width="1" height="14" rx="0.5" fill="#548700"/>
<rect x="107" y="238" width="1" height="14" rx="0.5" fill="#548700"/>
<rect x="105" y="238" width="1" height="14" rx="0.5" fill="#548700"/>
<rect x="103" y="238" width="1" height="14" rx="0.5" fill="#548700"/>
<rect x="101" y="238" width="1" height="14" rx="0.5" fill="#548700"/>
<rect x="99" y="238" width="1" height="14" rx="0.5" fill="#548700"/>
<rect x="97" y="238" width="1" height="14" rx="0.5" fill="#548700"/>
<rect x="81" y="242" width="15" height="6" fill="#548700"/>
<rect x="79" y="238" width="1" height="14" rx="0.5" fill="#548700"/>
<rect x="77" y="238" width="1" height="14" rx="0.5" fill="#548700"/>
<rect x="75" y="238" width="1" height="14" rx="0.5" fill="#548700"/>
<rect x="73" y="238" width="1" height="14" rx="0.5" fill="#548700"/>
<rect x="71" y="238" width="1" height="14" rx="0.5" fill="#548700"/>
<rect x="69" y="238" width="1" height="14" rx="0.5" fill="#548700"/>
<rect x="67" y="238" width="1" height="14" rx="0.5" fill="#548700"/>
<rect x="65" y="238" width="1" height="14" rx="0.5" fill="#548700"/>
<rect x="63" y="238" width="1" height="14" rx="0.5" fill="#548700"/>
<rect x="61" y="238" width="1" height="14" rx="0.5" fill="#548700"/>
<rect x="59" y="238" width="1" height="14" rx="0.5" fill="#548700"/>
<rect x="57" y="238" width="1" height="14" rx="0.5" fill="#548700"/>
<rect x="55" y="238" width="1" height="14" rx="0.5" fill="#548700"/>
<rect x="53" y="238" width="1" height="14" rx="0.5" fill="#548700"/>
<rect x="51" y="238" width="1" height="14" rx="0.5" fill="#548700"/>
<rect x="49" y="238" width="1" height="14" rx="0.5" fill="#548700"/>
<rect x="47" y="238" width="1" height="14" rx="0.5" fill="#548700"/>
<rect x="45" y="238" width="1" height="14" rx="0.5" fill="#548700"/>
<rect x="43" y="238" width="1" height="14" rx="0.5" fill="#548700"/>
<rect x="41" y="238" width="1" height="14" rx="0.5" fill="#548700"/>
<rect x="39" y="238" width="1" height="14" rx="0.5" fill="#548700"/>
<rect x="37" y="238" width="1" height="14" rx="0.5" fill="#548700"/>
<rect x="35" y="238" width="1" height="14" rx="0.5" fill="#548700"/>
<rect x="33" y="238" width="1" height="14" rx="0.5" fill="#548700"/>
<rect x="31" y="238" width="1" height="14" rx="0.5" fill="#548700"/>
<rect x="29" y="238" width="1" height="14" rx="0.5" fill="#548700"/>
<rect x="27" y="238" width="1" height="14" rx="0.5" fill="#548700"/>
<path d="M6 236C6 235.448 6.44772 235 7 235H8C8.55228 235 9 235.448 9 236V237C9 237.552 9.44772 238 10 238H11C11.5523 238 12 237.552 12 237V236C12 235.448 12.4477 235 13 235H16V274.5H7C6.44772 274.5 6 274.052 6 273.5V267C6 266.448 6.44772 266 7 266H8C8.55228 266 9 265.552 9 265C9 264.448 8.55228 264 8 264H7C6.44772 264 6 263.552 6 263V247C6 246.448 6.44772 246 7 246H8C8.55228 246 9 245.552 9 245C9 244.448 8.55228 244 8 244H7C6.44772 244 6 243.552 6 243V236Z" fill="#A4D700"/>
<path d="M6 278C6 277.448 6.44772 277 7 277H11H15C15.5523 277 16 277.448 16 278V293C16 293.552 15.5523 294 15 294H7C6.44772 294 6 293.552 6 293V278Z" fill="#A4D700"/>
<circle cx="12" cy="240" r="3" fill="#548700"/>
<circle cx="12" cy="260" r="3" fill="#548700"/>
<circle cx="12" cy="282" r="3" fill="#548700"/>
<rect x="293" y="238" width="19" height="11" rx="1" fill="#548700"/>
<rect x="307" y="244" width="3" height="3" rx="0.5" fill="#407300"/>
<rect x="303" y="244" width="3" height="3" rx="0.5" fill="#407300"/>
<path d="M299 245.207C299 245.074 299.053 244.947 299.146 244.854L299.854 244.146C299.947 244.053 300.074 244 300.207 244H300.793C300.926 244 301.053 244.053 301.146 244.146L301.854 244.854C301.947 244.947 302 245.074 302 245.207V246.5C302 246.776 301.776 247 301.5 247H299.5C299.224 247 299 246.776 299 246.5V245.207Z" fill="#407300"/>
<path d="M295 245.207C295 245.074 295.053 244.947 295.146 244.854L295.854 244.146C295.947 244.053 296.074 244 296.207 244H296.793C296.926 244 297.053 244.053 297.146 244.146L297.854 244.854C297.947 244.947 298 245.074 298 245.207V246.5C298 246.776 297.776 247 297.5 247H295.5C295.224 247 295 246.776 295 246.5V245.207Z" fill="#407300"/>
<path d="M307 241.207C307 241.074 307.053 240.947 307.146 240.854L307.854 240.146C307.947 240.053 308.074 240 308.207 240H308.793C308.926 240 309.053 240.053 309.146 240.146L309.854 240.854C309.947 240.947 310 241.074 310 241.207V242.5C310 242.776 309.776 243 309.5 243H307.5C307.224 243 307 242.776 307 242.5V241.207Z" fill="#407300"/>
<path d="M303 241.207C303 241.074 303.053 240.947 303.146 240.854L303.854 240.146C303.947 240.053 304.074 240 304.207 240H304.793C304.926 240 305.053 240.053 305.146 240.146L305.854 240.854C305.947 240.947 306 241.074 306 241.207V242.5C306 242.776 305.776 243 305.5 243H303.5C303.224 243 303 242.776 303 242.5V241.207Z" fill="#407300"/>
<path d="M299 241.207C299 241.074 299.053 240.947 299.146 240.854L299.854 240.146C299.947 240.053 300.074 240 300.207 240H300.793C300.926 240 301.053 240.053 301.146 240.146L301.854 240.854C301.947 240.947 302 241.074 302 241.207V242.5C302 242.776 301.776 243 301.5 243H299.5C299.224 243 299 242.776 299 242.5V241.207Z" fill="#407300"/>
<rect x="295" y="240" width="3" height="3" rx="0.5" fill="#407300"/>
<rect x="297" y="265" width="15" height="7" rx="1" fill="#548700"/>
<rect x="302" y="270" width="1" height="8" rx="0.500002" transform="rotate(-90 302 270)" fill="#689B00"/>
<rect x="306" y="268" width="1" height="4" rx="0.500001" transform="rotate(-90 306 268)" fill="#689B00"/>
<rect x="51" y="256" width="198" height="14" rx="2" fill="#548700"/>
<rect x="53" y="258" width="119" height="10" rx="1" fill="#689B00"/>
<rect x="174" y="258" width="1" height="10" rx="0.3" fill="#689B00"/>
<rect x="177" y="258" width="70" height="10" rx="1" fill="#689B00"/>
<rect x="83" y="263" width="1" height="27" rx="0.500001" transform="rotate(90 83 263)" fill="#548700"/>
<rect x="100" y="261" width="1" height="44" rx="0.500001" transform="rotate(90 100 261)" fill="#548700"/>
<rect x="218" y="265" width="1.00001" height="26" rx="0.500003" transform="rotate(-90 218 265)" fill="#548700"/>
<rect x="228" y="263" width="1" height="16" rx="0.500002" transform="rotate(-90 228 263)" fill="#548700"/>
<path d="M188 60.5C188 59.6716 188.672 59 189.5 59C190.328 59 191 59.6716 191 60.5C191 61.3284 191.672 62 192.5 62H213.5C214.328 62 215 61.3284 215 60.5C215 59.6716 215.672 59 216.5 59C217.328 59 218 59.6716 218 60.5V184.5C218 185.328 217.328 186 216.5 186C215.672 186 215 185.328 215 184.5C215 183.672 214.328 183 213.5 183H192.5C191.672 183 191 183.672 191 184.5C191 185.328 190.328 186 189.5 186C188.672 186 188 185.328 188 184.5V60.5Z" fill="#689B00"/>
<rect x="198" y="178" width="6" height="2" rx="1" transform="rotate(-180 198 178)" fill="#548700"/>
<rect x="214" y="67" width="6" height="2" rx="1" transform="rotate(-180 214 67)" fill="#548700"/>
<path d="M86 55C86 54.4477 86.4477 54 87 54H185C185.552 54 186 54.4477 186 55V55.5C186 55.7761 185.776 56 185.5 56C185.224 56 185 56.2239 185 56.5V188.5C185 188.776 185.224 189 185.5 189C185.776 189 186 189.224 186 189.5V190C186 190.552 185.552 191 185 191H87C86.4477 191 86 190.552 86 190V189.5C86 189.224 86.2239 189 86.5 189C86.7761 189 87 188.776 87 188.5V56.5C87 56.2239 86.7761 56 86.5 56C86.2239 56 86 55.7761 86 55.5V55Z" fill="#689B00"/>
<rect x="119" y="105" width="35" height="35" rx="5" fill="#548700"/>
<rect x="112" y="58" width="50" height="2" rx="1" fill="#548700"/>
<rect x="128" y="61" width="16" height="2" rx="1" fill="#548700"/>
<rect x="162" y="187" width="50" height="2" rx="0.999999" transform="rotate(-180 162 187)" fill="#548700"/>
<rect x="144" y="184" width="16" height="2" rx="1" transform="rotate(-180 144 184)" fill="#548700"/>
<path d="M54 60.5C54 59.6716 54.6716 59 55.5 59C56.3284 59 57 59.6716 57 60.5C57 61.3284 57.6716 62 58.5 62H79.5C80.3284 62 81 61.3284 81 60.5C81 59.6716 81.6716 59 82.5 59C83.3284 59 84 59.6716 84 60.5V184.5C84 185.328 83.3284 186 82.5 186C81.6716 186 81 185.328 81 184.5C81 183.672 80.3284 183 79.5 183H58.5C57.6716 183 57 183.672 57 184.5C57 185.328 56.3284 186 55.5 186C54.6716 186 54 185.328 54 184.5V60.5Z" fill="#689B00"/>
<rect x="64" y="179" width="6" height="2" rx="1" transform="rotate(-180 64 179)" fill="#548700"/>
<rect x="80" y="68" width="6" height="2" rx="1" transform="rotate(-180 80 68)" fill="#548700"/>
<rect x="234" y="66" width="22" height="122" rx="2" fill="#7CAF00"/>
<rect x="239" y="71" width="5" height="112" rx="2" fill="#689B00"/>
<rect x="241" y="74" width="1" height="10" rx="0.5" fill="#548700"/>
<rect x="241" y="86" width="1" height="10" rx="0.5" fill="#548700"/>
<rect x="241" y="98" width="1" height="10" rx="0.5" fill="#548700"/>
<rect x="241" y="110" width="1" height="10" rx="0.5" fill="#548700"/>
<rect x="241" y="122" width="1" height="10" rx="0.5" fill="#548700"/>
<rect x="241" y="134" width="1" height="10" rx="0.5" fill="#548700"/>
<rect x="241" y="146" width="1" height="10" rx="0.5" fill="#548700"/>
<rect x="241" y="158" width="1" height="10" rx="0.5" fill="#548700"/>
<rect x="241" y="170" width="1" height="10" rx="0.5" fill="#548700"/>
<rect x="246" y="71" width="5" height="112" rx="2" fill="#689B00"/>
<rect x="248" y="74" width="1" height="10" rx="0.5" fill="#548700"/>
<rect x="248" y="86" width="1" height="10" rx="0.5" fill="#548700"/>
<rect x="248" y="98" width="1" height="10" rx="0.5" fill="#548700"/>
<rect x="248" y="110" width="1" height="10" rx="0.5" fill="#548700"/>
<rect x="248" y="122" width="1" height="10" rx="0.5" fill="#548700"/>
<rect x="248" y="134" width="1" height="10" rx="0.5" fill="#548700"/>
<rect x="248" y="146" width="1" height="10" rx="0.5" fill="#548700"/>
<rect x="248" y="158" width="1" height="10" rx="0.5" fill="#548700"/>
<rect x="248" y="170" width="1" height="10" rx="0.5" fill="#548700"/>
<path d="M266 72C266 70.3431 267.343 69 269 69H275C276.657 69 278 67.6569 278 66V64C278 62.3431 279.343 61 281 61H302C303.657 61 305 62.3431 305 64V66C305 67.6569 306.343 69 308 69H436C437.657 69 439 70.3431 439 72V194C439 195.657 437.657 197 436 197H269C267.343 197 266 195.657 266 194V72Z" fill="#689B00"/>
<circle cx="293" cy="93" r="3" fill="#548700"/>
<circle cx="301" cy="93" r="3" fill="#548700"/>
<circle cx="309" cy="93" r="3" fill="#548700"/>
<circle cx="317" cy="93" r="3" fill="#548700"/>
<circle cx="325" cy="93" r="3" fill="#548700"/>
<circle cx="333" cy="93" r="3" fill="#548700"/>
<circle cx="341" cy="93" r="3" fill="#548700"/>
<circle cx="349" cy="93" r="3" fill="#548700"/>
<circle cx="357" cy="93" r="3" fill="#548700"/>
<circle cx="365" cy="93" r="3" fill="#548700"/>
<circle cx="373" cy="93" r="3" fill="#548700"/>
<circle cx="381" cy="93" r="3" fill="#548700"/>
<circle cx="389" cy="93" r="3" fill="#548700"/>
<circle cx="397" cy="93" r="3" fill="#548700"/>
<circle cx="405" cy="93" r="3" fill="#548700"/>
<circle cx="413" cy="93" r="3" fill="#548700"/>
<circle cx="293" cy="101" r="3" fill="#548700"/>
<circle cx="301" cy="101" r="3" fill="#548700"/>
<circle cx="309" cy="101" r="3" fill="#548700"/>
<circle cx="317" cy="101" r="3" fill="#548700"/>
<circle cx="325" cy="101" r="3" fill="#548700"/>
<circle cx="333" cy="101" r="3" fill="#548700"/>
<circle cx="341" cy="101" r="3" fill="#548700"/>
<circle cx="349" cy="101" r="3" fill="#548700"/>
<circle cx="357" cy="101" r="3" fill="#548700"/>
<circle cx="365" cy="101" r="3" fill="#548700"/>
<circle cx="373" cy="101" r="3" fill="#548700"/>
<circle cx="381" cy="101" r="3" fill="#548700"/>
<circle cx="389" cy="101" r="3" fill="#548700"/>
<circle cx="397" cy="101" r="3" fill="#548700"/>
<circle cx="405" cy="101" r="3" fill="#548700"/>
<circle cx="413" cy="101" r="3" fill="#548700"/>
<circle cx="293" cy="109" r="3" fill="#548700"/>
<circle cx="301" cy="109" r="3" fill="#548700"/>
<circle cx="309" cy="109" r="3" fill="#548700"/>
<circle cx="317" cy="109" r="3" fill="#548700"/>
<circle cx="325" cy="109" r="3" fill="#548700"/>
<circle cx="333" cy="109" r="3" fill="#548700"/>
<circle cx="341" cy="109" r="3" fill="#548700"/>
<circle cx="349" cy="109" r="3" fill="#548700"/>
<circle cx="357" cy="109" r="3" fill="#548700"/>
<circle cx="365" cy="109" r="3" fill="#548700"/>
<circle cx="373" cy="109" r="3" fill="#548700"/>
<circle cx="381" cy="109" r="3" fill="#548700"/>
<circle cx="389" cy="109" r="3" fill="#548700"/>
<circle cx="397" cy="109" r="3" fill="#548700"/>
<circle cx="405" cy="109" r="3" fill="#548700"/>
<circle cx="413" cy="109" r="3" fill="#548700"/>
<circle cx="293" cy="117" r="3" fill="#548700"/>
<circle cx="301" cy="117" r="3" fill="#548700"/>
<circle cx="309" cy="117" r="3" fill="#548700"/>
<circle cx="317" cy="117" r="3" fill="#548700"/>
<circle cx="325" cy="117" r="3" fill="#548700"/>
<circle cx="333" cy="117" r="3" fill="#548700"/>
<circle cx="341" cy="117" r="3" fill="#548700"/>
<circle cx="349" cy="117" r="3" fill="#548700"/>
<circle cx="357" cy="117" r="3" fill="#548700"/>
<circle cx="365" cy="117" r="3" fill="#548700"/>
<circle cx="373" cy="117" r="3" fill="#548700"/>
<circle cx="381" cy="117" r="3" fill="#548700"/>
<circle cx="389" cy="117" r="3" fill="#548700"/>
<circle cx="397" cy="117" r="3" fill="#548700"/>
<circle cx="405" cy="117" r="3" fill="#548700"/>
<circle cx="413" cy="117" r="3" fill="#548700"/>
<circle cx="293" cy="125" r="3" fill="#548700"/>
<circle cx="301" cy="125" r="3" fill="#548700"/>
<circle cx="309" cy="125" r="3" fill="#548700"/>
<circle cx="317" cy="125" r="3" fill="#548700"/>
<circle cx="325" cy="125" r="3" fill="#548700"/>
<circle cx="333" cy="125" r="3" fill="#548700"/>
<circle cx="341" cy="125" r="3" fill="#548700"/>
<circle cx="349" cy="125" r="3" fill="#548700"/>
<circle cx="357" cy="125" r="3" fill="#548700"/>
<circle cx="365" cy="125" r="3" fill="#548700"/>
<circle cx="373" cy="125" r="3" fill="#548700"/>
<circle cx="381" cy="125" r="3" fill="#548700"/>
<circle cx="389" cy="125" r="3" fill="#548700"/>
<circle cx="397" cy="125" r="3" fill="#548700"/>
<circle cx="405" cy="125" r="3" fill="#548700"/>
<circle cx="413" cy="125" r="3" fill="#548700"/>
<circle cx="293" cy="133" r="3" fill="#548700"/>
<circle cx="301" cy="133" r="3" fill="#548700"/>
<circle cx="309" cy="133" r="3" fill="#548700"/>
<circle cx="317" cy="133" r="3" fill="#548700"/>
<circle cx="325" cy="133" r="3" fill="#548700"/>
<circle cx="333" cy="133" r="3" fill="#548700"/>
<circle cx="341" cy="133" r="3" fill="#548700"/>
<circle cx="349" cy="133" r="3" fill="#548700"/>
<circle cx="357" cy="133" r="3" fill="#548700"/>
<circle cx="365" cy="133" r="3" fill="#548700"/>
<circle cx="373" cy="133" r="3" fill="#548700"/>
<circle cx="381" cy="133" r="3" fill="#548700"/>
<circle cx="389" cy="133" r="3" fill="#548700"/>
<circle cx="397" cy="133" r="3" fill="#548700"/>
<circle cx="405" cy="133" r="3" fill="#548700"/>
<circle cx="413" cy="133" r="3" fill="#548700"/>
<circle cx="293" cy="141" r="3" fill="#548700"/>
<circle cx="301" cy="141" r="3" fill="#548700"/>
<circle cx="309" cy="141" r="3" fill="#548700"/>
<circle cx="317" cy="141" r="3" fill="#548700"/>
<circle cx="325" cy="141" r="3" fill="#548700"/>
<circle cx="333" cy="141" r="3" fill="#548700"/>
<circle cx="341" cy="141" r="3" fill="#548700"/>
<circle cx="349" cy="141" r="3" fill="#548700"/>
<circle cx="357" cy="141" r="3" fill="#548700"/>
<circle cx="365" cy="141" r="3" fill="#548700"/>
<circle cx="373" cy="141" r="3" fill="#548700"/>
<circle cx="381" cy="141" r="3" fill="#548700"/>
<circle cx="389" cy="141" r="3" fill="#548700"/>
<circle cx="397" cy="141" r="3" fill="#548700"/>
<circle cx="405" cy="141" r="3" fill="#548700"/>
<circle cx="413" cy="141" r="3" fill="#548700"/>
<circle cx="293" cy="149" r="3" fill="#548700"/>
<circle cx="301" cy="149" r="3" fill="#548700"/>
<circle cx="309" cy="149" r="3" fill="#548700"/>
<circle cx="317" cy="149" r="3" fill="#548700"/>
<circle cx="325" cy="149" r="3" fill="#548700"/>
<circle cx="333" cy="149" r="3" fill="#548700"/>
<circle cx="341" cy="149" r="3" fill="#548700"/>
<circle cx="349" cy="149" r="3" fill="#548700"/>
<circle cx="357" cy="149" r="3" fill="#548700"/>
<circle cx="365" cy="149" r="3" fill="#548700"/>
<circle cx="373" cy="149" r="3" fill="#548700"/>
<circle cx="381" cy="149" r="3" fill="#548700"/>
<circle cx="389" cy="149" r="3" fill="#548700"/>
<circle cx="397" cy="149" r="3" fill="#548700"/>
<circle cx="405" cy="149" r="3" fill="#548700"/>
<circle cx="413" cy="149" r="3" fill="#548700"/>
<circle cx="293" cy="157" r="3" fill="#548700"/>
<circle cx="301" cy="157" r="3" fill="#548700"/>
<circle cx="309" cy="157" r="3" fill="#548700"/>
<circle cx="317" cy="157" r="3" fill="#548700"/>
<circle cx="325" cy="157" r="3" fill="#548700"/>
<circle cx="333" cy="157" r="3" fill="#548700"/>
<circle cx="341" cy="157" r="3" fill="#548700"/>
<circle cx="349" cy="157" r="3" fill="#548700"/>
<circle cx="357" cy="157" r="3" fill="#548700"/>
<circle cx="365" cy="157" r="3" fill="#548700"/>
<circle cx="373" cy="157" r="3" fill="#548700"/>
<circle cx="381" cy="157" r="3" fill="#548700"/>
<circle cx="389" cy="157" r="3" fill="#548700"/>
<circle cx="397" cy="157" r="3" fill="#548700"/>
<circle cx="405" cy="157" r="3" fill="#548700"/>
<circle cx="413" cy="157" r="3" fill="#548700"/>
<circle cx="293" cy="165" r="3" fill="#548700"/>
<circle cx="301" cy="165" r="3" fill="#548700"/>
<circle cx="309" cy="165" r="3" fill="#548700"/>
<circle cx="317" cy="165" r="3" fill="#548700"/>
<circle cx="325" cy="165" r="3" fill="#548700"/>
<circle cx="333" cy="165" r="3" fill="#548700"/>
<circle cx="341" cy="165" r="3" fill="#548700"/>
<circle cx="349" cy="165" r="3" fill="#548700"/>
<circle cx="357" cy="165" r="3" fill="#548700"/>
<circle cx="365" cy="165" r="3" fill="#548700"/>
<circle cx="373" cy="165" r="3" fill="#548700"/>
<circle cx="381" cy="165" r="3" fill="#548700"/>
<circle cx="389" cy="165" r="3" fill="#548700"/>
<circle cx="397" cy="165" r="3" fill="#548700"/>
<circle cx="405" cy="165" r="3" fill="#548700"/>
<circle cx="413" cy="165" r="3" fill="#548700"/>
<circle cx="293" cy="173" r="3" fill="#548700"/>
<circle cx="301" cy="173" r="3" fill="#548700"/>
<circle cx="309" cy="173" r="3" fill="#548700"/>
<circle cx="317" cy="173" r="3" fill="#548700"/>
<circle cx="325" cy="173" r="3" fill="#548700"/>
<circle cx="333" cy="173" r="3" fill="#548700"/>
<circle cx="341" cy="173" r="3" fill="#548700"/>
<circle cx="349" cy="173" r="3" fill="#548700"/>
<circle cx="357" cy="173" r="3" fill="#548700"/>
<circle cx="365" cy="173" r="3" fill="#548700"/>
<circle cx="373" cy="173" r="3" fill="#548700"/>
<circle cx="381" cy="173" r="3" fill="#548700"/>
<circle cx="389" cy="173" r="3" fill="#548700"/>
<circle cx="397" cy="173" r="3" fill="#548700"/>
<circle cx="405" cy="173" r="3" fill="#548700"/>
<circle cx="413" cy="173" r="3" fill="#548700"/>
<path d="M25 56H46C47.1046 56 48 56.8954 48 58V220C48 221.105 47.1046 222 46 222H25V56Z" fill="#7CAF00"/>
<path d="M25 22H39C40.1046 22 41 22.8954 41 24C41 25.1046 41.8954 26 43 26C44.1046 26 45 26.8954 45 28V43C45 44.1046 44.1046 45 43 45C41.8954 45 41 45.8954 41 47C41 48.1046 40.1046 49 39 49H25V22Z" fill="#689B00"/>
<path d="M25 172.5L465 78.2547V316C465 317.657 463.657 319 462 319H28C26.3431 319 25 317.657 25 316V172.5Z" fill="white" fill-opacity="0.2"/>
</svg>
