<svg width="31" height="33" viewBox="0 0 31 33" fill="none" xmlns="http://www.w3.org/2000/svg">
<path d="M0.00012207 28.3333C0.00012207 25.858 0.816621 23.484 2.27002 21.7337C3.72342 19.9833 5.69472 19 7.75012 19H23.2501C25.3055 19 27.2768 19.9833 28.7302 21.7337C30.1836 23.484 31.0001 25.858 31.0001 28.3333C31.0001 29.571 30.5918 30.758 29.8651 31.6332C29.1384 32.5083 28.1528 33 27.1251 33H3.87512C2.84742 33 1.86182 32.5083 1.13512 31.6332C0.408422 30.758 0.00012207 29.571 0.00012207 28.3333Z" fill="#EB00FF"/>
<path d="M15.5001 13C19.09 13 22.0001 10.0899 22.0001 6.5C22.0001 2.9101 19.09 0 15.5001 0C11.9102 0 9.00012 2.9101 9.00012 6.5C9.00012 10.0899 11.9102 13 15.5001 13Z" fill="#EB00FF"/>
</svg>
