<svg width="30" height="30" viewBox="0 0 30 30" fill="none" xmlns="http://www.w3.org/2000/svg">
<path d="M17.8144 30H12.1868C11.8342 30.0001 11.4922 29.8832 11.2174 29.6687C10.9427 29.4543 10.7518 29.1552 10.6763 28.821L10.0471 25.995C9.20768 25.6382 8.41174 25.1919 7.67392 24.6645L4.83384 25.542C4.49768 25.646 4.13496 25.6353 3.80591 25.5117C3.47687 25.3881 3.20131 25.159 3.02498 24.8625L0.205005 20.136C0.0305271 19.8392 -0.0349675 19.4937 0.0192364 19.1561C0.0734403 18.8185 0.244133 18.5087 0.50339 18.2775L2.7065 16.3275C2.60631 15.4442 2.60631 14.5528 2.7065 13.6695L0.50339 11.724C0.243766 11.4927 0.072841 11.1826 0.0186282 10.8447C-0.0355846 10.5067 0.0301313 10.161 0.205005 9.864L3.0188 5.1345C3.19512 4.83797 3.47069 4.60889 3.79973 4.48528C4.12877 4.36168 4.4915 4.35099 4.82766 4.455L7.66773 5.3325C8.04497 5.0625 8.43766 4.8105 8.84272 4.5825C9.23387 4.3695 9.63584 4.176 10.0471 4.0035L10.6779 1.1805C10.753 0.846297 10.9435 0.547032 11.218 0.332323C11.4924 0.117615 11.8343 0.000359949 12.1868 0H17.8144C18.1669 0.000359949 18.5088 0.117615 18.7832 0.332323C19.0577 0.547032 19.2482 0.846297 19.3233 1.1805L19.9603 4.005C20.7986 4.3639 21.5943 4.81001 22.3335 5.3355L25.1751 4.458C25.511 4.35437 25.8734 4.36526 26.2021 4.48884C26.5308 4.61243 26.8061 4.84129 26.9824 5.1375L29.7962 9.867C30.1549 10.4775 30.0312 11.25 29.4978 11.7255L27.2947 13.6755C27.3949 14.5588 27.3949 15.4502 27.2947 16.3335L29.4978 18.2835C30.0312 18.7605 30.1549 19.5315 29.7962 20.142L26.9824 24.8715C26.8061 25.168 26.5305 25.3971 26.2015 25.5207C25.8724 25.6443 25.5097 25.655 25.1735 25.551L22.3335 24.6735C21.5962 25.2005 20.8008 25.6463 19.9618 26.0025L19.3233 28.821C19.2479 29.1549 19.0572 29.4538 18.7828 29.6683C18.5084 29.8827 18.1667 29.9997 17.8144 30V30ZM14.9944 9C13.3543 9 11.7813 9.63214 10.6216 10.7574C9.4618 11.8826 8.81026 13.4087 8.81026 15C8.81026 16.5913 9.4618 18.1174 10.6216 19.2426C11.7813 20.3679 13.3543 21 14.9944 21C16.6346 21 18.2075 20.3679 19.3673 19.2426C20.527 18.1174 21.1786 16.5913 21.1786 15C21.1786 13.4087 20.527 11.8826 19.3673 10.7574C18.2075 9.63214 16.6346 9 14.9944 9V9Z" fill="#EB00FF"/>
</svg>
