<svg width="65" height="65" viewBox="0 0 65 65" fill="none" xmlns="http://www.w3.org/2000/svg">
<path d="M0 5C0 2.23858 2.23858 0 5 0H45C56.0457 0 65 8.95431 65 20V60C65 62.7614 62.7614 65 60 65H20C8.9543 65 0 56.0457 0 45V5Z" fill="#330C50"/>
<path d="M35.8143 47H30.1867C29.8341 47.0001 29.4921 46.8832 29.2173 46.6687C28.9426 46.4543 28.7517 46.1552 28.6762 45.821L28.047 42.995C27.2076 42.6382 26.4116 42.1919 25.6738 41.6645L22.8337 42.542C22.4976 42.646 22.1348 42.6353 21.8058 42.5117C21.4768 42.3881 21.2012 42.159 21.0249 41.8625L18.2049 37.136C18.0304 36.8392 17.9649 36.4937 18.0191 36.1561C18.0733 35.8185 18.244 35.5087 18.5033 35.2775L20.7064 33.3275C20.6062 32.4442 20.6062 31.5528 20.7064 30.6695L18.5033 28.724C18.2436 28.4927 18.0727 28.1826 18.0185 27.8447C17.9643 27.5067 18.03 27.161 18.2049 26.864L21.0187 22.1345C21.195 21.838 21.4706 21.6089 21.7996 21.4853C22.1287 21.3617 22.4914 21.351 22.8275 21.455L25.6676 22.3325C26.0448 22.0625 26.4375 21.8105 26.8426 21.5825C27.2337 21.3695 27.6357 21.176 28.047 21.0035L28.6778 18.1805C28.7528 17.8463 28.9434 17.547 29.2179 17.3323C29.4923 17.1176 29.8341 17.0004 30.1867 17H35.8143C36.1668 17.0004 36.5087 17.1176 36.7831 17.3323C37.0575 17.547 37.2481 17.8463 37.3232 18.1805L37.9602 21.005C38.7985 21.3639 39.5942 21.81 40.3333 22.3355L43.175 21.458C43.5109 21.3544 43.8733 21.3653 44.202 21.4888C44.5307 21.6124 44.806 21.8413 44.9823 22.1375L47.7961 26.867C48.1547 27.4775 48.0311 28.25 47.4977 28.7255L45.2946 30.6755C45.3948 31.5588 45.3948 32.4502 45.2946 33.3335L47.4977 35.2835C48.0311 35.7605 48.1547 36.5315 47.7961 37.142L44.9823 41.8715C44.8059 42.168 44.5304 42.3971 44.2013 42.5207C43.8723 42.6443 43.5096 42.655 43.1734 42.551L40.3333 41.6735C39.5961 42.2005 38.8006 42.6463 37.9617 43.0025L37.3232 45.821C37.2478 46.1549 37.0571 46.4538 36.7827 46.6683C36.5083 46.8827 36.1666 46.9997 35.8143 47V47ZM32.9943 26C31.3542 26 29.7812 26.6321 28.6214 27.7574C27.4617 28.8826 26.8101 30.4087 26.8101 32C26.8101 33.5913 27.4617 35.1174 28.6214 36.2426C29.7812 37.3679 31.3542 38 32.9943 38C34.6344 38 36.2074 37.3679 37.3671 36.2426C38.5269 35.1174 39.1784 33.5913 39.1784 32C39.1784 30.4087 38.5269 28.8826 37.3671 27.7574C36.2074 26.6321 34.6344 26 32.9943 26V26Z" fill="#EB00FF"/>
</svg>
