<svg width="30" height="35" viewBox="0 0 30 35" fill="none" xmlns="http://www.w3.org/2000/svg">
<path d="M18.7371 0.0938949C17.3402 -0.316522 16.2316 0.693607 15.8697 1.66856C15.662 2.22723 15.473 2.74486 15.295 3.23066C14.5881 5.16213 14.0668 6.58519 13.3548 8.01746C11.1087 12.5396 8.24128 16.0784 2.88106 18.5091C0.83496 19.4371 -0.478818 21.6902 0.164509 23.9743L1.21045 27.6865C1.50434 28.7303 2.07549 29.6774 2.86465 30.4296C3.65382 31.1817 4.63226 31.7115 5.69848 31.9641L17.6242 34.7867C19.6051 35.2557 21.6929 34.9445 23.4457 33.919C25.1984 32.8934 26.4784 31.234 27.0147 29.2921L29.8406 19.0594C30.6128 16.2618 28.4819 13.5045 25.5475 13.5045H21.9452C21.611 13.5045 21.3707 13.1831 21.4575 12.8603C21.9712 10.9483 22.3434 8.72219 22.3267 6.67816C22.3148 5.26348 22.1165 3.85717 21.5884 2.6879C21.0468 1.49015 20.1365 0.503475 18.7371 0.0938949Z" fill="#1A0034"/>
</svg>
