<svg width="65" height="65" viewBox="0 0 65 65" fill="none" xmlns="http://www.w3.org/2000/svg">
<path d="M0 5C0 2.23858 2.23858 0 5 0H45C56.0457 0 65 8.95431 65 20V60C65 62.7614 62.7614 65 60 65H20C8.9543 65 0 56.0457 0 45V5Z" fill="#FFE500"/>
<path d="M36.7371 15.0939C35.3402 14.6835 34.2316 15.6936 33.8697 16.6686C33.662 17.2272 33.473 17.7449 33.295 18.2307C32.5881 20.1621 32.0668 21.5852 31.3548 23.0175C29.1087 27.5396 26.2413 31.0784 20.8811 33.5091C18.835 34.4371 17.5212 36.6902 18.1645 38.9743L19.2104 42.6865C19.5043 43.7303 20.0755 44.6774 20.8647 45.4296C21.6538 46.1817 22.6323 46.7115 23.6985 46.9641L35.6242 49.7867C37.6051 50.2557 39.6929 49.9445 41.4457 48.919C43.1984 47.8934 44.4784 46.234 45.0147 44.2921L47.8406 34.0594C48.6128 31.2618 46.4819 28.5045 43.5475 28.5045H39.9452C39.611 28.5045 39.3707 28.1831 39.4575 27.8603C39.9712 25.9483 40.3434 23.7222 40.3267 21.6782C40.3148 20.2635 40.1165 18.8572 39.5884 17.6879C39.0468 16.4902 38.1365 15.5035 36.7371 15.0939Z" fill="#1A0034"/>
</svg>
