<svg width="65" height="65" viewBox="0 0 65 65" fill="none" xmlns="http://www.w3.org/2000/svg">
<path d="M0 5C0 2.23858 2.23858 0 5 0H45C56.0457 0 65 8.95431 65 20V60C65 62.7614 62.7614 65 60 65H20C8.9543 65 0 56.0457 0 45V5Z" fill="#FFE500"/>
<path d="M17 44.3333C17 41.858 17.8165 39.484 19.2699 37.7337C20.7233 35.9833 22.6946 35 24.75 35H40.25C42.3054 35 44.2767 35.9833 45.7301 37.7337C47.1835 39.484 48 41.858 48 44.3333C48 45.571 47.5917 46.758 46.865 47.6332C46.1383 48.5083 45.1527 49 44.125 49H20.875C19.8473 49 18.8617 48.5083 18.135 47.6332C17.4083 46.758 17 45.571 17 44.3333Z" fill="#1A0034"/>
<path d="M32.5 29C36.0899 29 39 26.0899 39 22.5C39 18.9101 36.0899 16 32.5 16C28.9101 16 26 18.9101 26 22.5C26 26.0899 28.9101 29 32.5 29Z" fill="#1A0034"/>
</svg>
