<svg width="151" height="112" viewBox="0 0 151 112" fill="none" xmlns="http://www.w3.org/2000/svg">
<path d="M3 1C3 0.447715 3.44772 0 4 0H149.578H150C150.552 0 151 0.447715 151 1V105C151 105.552 150.552 106 150 106H147.721C147.29 106 146.908 106.275 146.772 106.684L145.228 111.316C145.092 111.725 144.71 112 144.279 112H135.721C135.29 112 134.908 111.725 134.772 111.316L133.228 106.684C133.092 106.275 132.71 106 132.279 106H21.7208C21.2903 106 20.9082 106.275 20.7721 106.684L19.2279 111.316C19.0918 111.725 18.7097 112 18.2792 112H9.72076C9.29033 112 8.90819 111.725 8.77208 111.316L7.22792 106.684C7.09181 106.275 6.70967 106 6.27924 106H4C3.44772 106 3 105.552 3 105V100.5C3 100.224 2.77614 100 2.5 100V100H1C0.447715 100 0 99.5523 0 99V75C0 74.4477 0.447715 74 1 74H2.5V74C2.77614 74 3 73.7761 3 73.5V12V2V1Z" fill="#330C50"/>
<path d="M132.057 106H148H147.781C147.322 106 146.922 106.312 146.811 106.757L145.689 111.243C145.578 111.688 145.178 112 144.719 112H135.721C135.29 112 134.908 111.725 134.772 111.316L133.228 106.684C133.092 106.275 132.71 106 132.279 106H132.057Z" fill="#EB00FF"/>
<path d="M6 106H22H21.7808C21.3219 106 20.922 106.312 20.8107 106.757L19.6894 111.243C19.5781 111.688 19.1781 112 18.7193 112H9.72078C9.29035 112 8.90822 111.725 8.7721 111.316L7.22793 106.684C7.09181 106.275 6.70967 106 6.27924 106H6Z" fill="#EB00FF"/>
<path d="M1 7C1 6.44772 1.44772 6 2 6H3V16H2C1.44772 16 1 15.5523 1 15V7Z" fill="#EB00FF"/>
<path d="M27.715 43.26V42.56C27.715 42.07 27.96 41.825 28.45 41.825H31.425C31.915 41.825 32.16 42.07 32.16 42.56V42.84C32.16 43.7267 32.335 44.3333 32.685 44.66C33.035 44.9867 33.6767 45.15 34.61 45.15H36.255C37.165 45.15 37.795 44.975 38.145 44.625C38.5183 44.275 38.705 43.6217 38.705 42.665V42.245C38.705 41.5683 38.425 41.055 37.865 40.705C37.3283 40.3317 36.6517 40.11 35.835 40.04C35.0183 39.97 34.1317 39.8417 33.175 39.655C32.2417 39.445 31.3667 39.1883 30.55 38.885C29.7333 38.5583 29.045 37.94 28.485 37.03C27.9483 36.0967 27.68 34.9067 27.68 33.46V32.235C27.68 30.415 28.1933 29.0033 29.22 28C30.2467 26.9967 31.67 26.495 33.49 26.495H36.99C38.8333 26.495 40.2683 26.9967 41.295 28C42.3217 29.0033 42.835 30.415 42.835 32.235V32.9C42.835 33.39 42.59 33.635 42.1 33.635H39.125C38.635 33.635 38.39 33.39 38.39 32.9V32.69C38.39 31.78 38.215 31.1617 37.865 30.835C37.515 30.5083 36.8733 30.345 35.94 30.345H34.575C33.6183 30.345 32.965 30.5317 32.615 30.905C32.2883 31.255 32.125 31.955 32.125 33.005V33.67C32.125 34.7667 33.0817 35.3967 34.995 35.56C36.9783 35.7233 38.74 36.12 40.28 36.75C41.0967 37.1 41.7733 37.73 42.31 38.64C42.87 39.5267 43.15 40.67 43.15 42.07V43.26C43.15 45.08 42.6367 46.4917 41.61 47.495C40.5833 48.4983 39.16 49 37.34 49H33.525C31.705 49 30.2817 48.4983 29.255 47.495C28.2283 46.4917 27.715 45.08 27.715 43.26ZM54.3522 49H51.3772C50.8872 49 50.6422 48.755 50.6422 48.265V27.23C50.6422 26.74 50.8872 26.495 51.3772 26.495H62.5422C63.0089 26.495 63.2422 26.74 63.2422 27.23V29.61C63.2422 30.1 63.0089 30.345 62.5422 30.345H55.5072C55.2272 30.345 55.0872 30.4733 55.0872 30.73V36.155C55.0872 36.435 55.2272 36.575 55.5072 36.575H61.4922C61.9822 36.575 62.2272 36.82 62.2272 37.31V39.655C62.2272 40.1683 61.9822 40.425 61.4922 40.425H55.5072C55.2272 40.425 55.0872 40.5533 55.0872 40.81V48.265C55.0872 48.755 54.8422 49 54.3522 49ZM73.609 49H70.634C70.144 49 69.899 48.755 69.899 48.265V27.23C69.899 26.74 70.144 26.495 70.634 26.495H81.799C82.2657 26.495 82.499 26.74 82.499 27.23V29.61C82.499 30.1 82.2657 30.345 81.799 30.345H74.764C74.484 30.345 74.344 30.4733 74.344 30.73V36.155C74.344 36.435 74.484 36.575 74.764 36.575H80.749C81.239 36.575 81.484 36.82 81.484 37.31V39.655C81.484 40.1683 81.239 40.425 80.749 40.425H74.764C74.484 40.425 74.344 40.5533 74.344 40.81V48.265C74.344 48.755 74.099 49 73.609 49ZM92.8659 49H89.8909C89.4009 49 89.1559 48.755 89.1559 48.265V27.23C89.1559 26.74 89.4009 26.495 89.8909 26.495H98.4309C100.251 26.495 101.663 26.9967 102.666 28C103.669 28.98 104.171 30.38 104.171 32.2V35.56C104.171 37.38 103.669 38.7917 102.666 39.795C101.663 40.775 100.251 41.265 98.4309 41.265H94.0209C93.7409 41.265 93.6009 41.3933 93.6009 41.65V48.265C93.6009 48.755 93.3559 49 92.8659 49ZM93.9859 37.38H97.6959C98.4425 37.38 98.9675 37.2283 99.2709 36.925C99.5742 36.5983 99.7259 36.0733 99.7259 35.35V32.41C99.7259 31.6633 99.5742 31.1383 99.2709 30.835C98.9675 30.5083 98.4425 30.345 97.6959 30.345H93.9859C93.7292 30.345 93.6009 30.4733 93.6009 30.73V36.995C93.6009 37.2517 93.7292 37.38 93.9859 37.38ZM120.455 49H116.64C114.797 49 113.374 48.51 112.37 47.53C111.367 46.55 110.865 45.1383 110.865 43.295V32.2C110.865 30.3567 111.367 28.945 112.37 27.965C113.374 26.985 114.797 26.495 116.64 26.495H120.455C122.275 26.495 123.687 26.9967 124.69 28C125.717 28.98 126.23 30.38 126.23 32.2V33.845C126.23 34.3583 125.974 34.615 125.46 34.615H122.52C122.03 34.615 121.785 34.3583 121.785 33.845V32.41C121.785 31.6633 121.622 31.1383 121.295 30.835C120.992 30.5083 120.467 30.345 119.72 30.345H117.34C116.617 30.345 116.092 30.5083 115.765 30.835C115.462 31.1383 115.31 31.6633 115.31 32.41V43.085C115.31 43.8317 115.462 44.3683 115.765 44.695C116.092 44.9983 116.617 45.15 117.34 45.15H119.72C120.467 45.15 120.992 44.9983 121.295 44.695C121.622 44.3683 121.785 43.8317 121.785 43.085V41.65C121.785 41.1367 122.03 40.88 122.52 40.88H125.46C125.974 40.88 126.23 41.1367 126.23 41.65V43.295C126.23 45.115 125.717 46.5267 124.69 47.53C123.687 48.51 122.275 49 120.455 49ZM33.105 76.29H37.025C37.795 76.29 38.3433 76.1383 38.67 75.835C39.02 75.5083 39.195 74.9833 39.195 74.26V72.23C39.195 71.5067 39.02 70.9933 38.67 70.69C38.32 70.3867 37.7483 70.235 36.955 70.235H33.105C32.8483 70.235 32.72 70.3633 32.72 70.62V75.905C32.72 76.1617 32.8483 76.29 33.105 76.29ZM33.105 66.63H36.675C37.4217 66.63 37.97 66.4783 38.32 66.175C38.67 65.8483 38.845 65.3233 38.845 64.6V63.235C38.845 62.5117 38.67 61.9983 38.32 61.695C37.9933 61.3683 37.4567 61.205 36.71 61.205H33.105C32.8483 61.205 32.72 61.3333 32.72 61.59V66.245C32.72 66.5017 32.8483 66.63 33.105 66.63ZM28.275 79.265V58.23C28.275 57.74 28.52 57.495 29.01 57.495H37.41C39.2533 57.495 40.6767 57.985 41.68 58.965C42.6833 59.945 43.185 61.345 43.185 63.165V64.6C43.185 66.5833 42.2633 67.8667 40.42 68.45C41.3533 68.59 42.1 68.975 42.66 69.605C43.22 70.2117 43.5 71.0867 43.5 72.23V74.33C43.5 76.15 42.9983 77.55 41.995 78.53C40.9917 79.51 39.58 80 37.76 80H29.01C28.52 80 28.275 79.755 28.275 79.265ZM63.4391 80H51.9241C51.4341 80 51.1891 79.755 51.1891 79.265V58.23C51.1891 57.74 51.4341 57.495 51.9241 57.495H54.8991C55.3891 57.495 55.6341 57.74 55.6341 58.23V75.73C55.6341 75.9867 55.7741 76.115 56.0541 76.115H63.4391C63.9057 76.115 64.1391 76.3717 64.1391 76.885V79.265C64.1391 79.755 63.9057 80 63.4391 80ZM75.2417 76.15H79.0567C79.8034 76.15 80.3284 75.9983 80.6317 75.695C80.9584 75.3683 81.1217 74.8317 81.1217 74.085V63.41C81.1217 62.6633 80.9584 62.1383 80.6317 61.835C80.3284 61.5083 79.8034 61.345 79.0567 61.345H75.2417C74.9851 61.345 74.8567 61.4733 74.8567 61.73V75.765C74.8567 76.0217 74.9851 76.15 75.2417 76.15ZM70.4117 79.265V58.23C70.4117 57.74 70.6567 57.495 71.1467 57.495H79.7917C81.6117 57.495 83.0234 57.9967 84.0267 59C85.0534 59.98 85.5667 61.38 85.5667 63.2V74.295C85.5667 76.115 85.0534 77.5267 84.0267 78.53C83.0234 79.51 81.6117 80 79.7917 80H71.1467C70.6567 80 70.4117 79.755 70.4117 79.265ZM96.9674 80H93.9924C93.5024 80 93.2574 79.755 93.2574 79.265V58.23C93.2574 57.74 93.5024 57.495 93.9924 57.495H102.322C104.142 57.495 105.566 57.9967 106.592 59C107.619 60.0033 108.132 61.415 108.132 63.235V65.965C108.132 68.6017 107.094 70.3517 105.017 71.215V71.355L108.762 79.16C108.972 79.72 108.774 80 108.167 80H105.332C104.912 80 104.609 79.9533 104.422 79.86C104.236 79.7667 104.084 79.5683 103.967 79.265L100.467 71.705H98.1224C97.8424 71.705 97.7024 71.8333 97.7024 72.09V79.265C97.7024 79.755 97.4574 80 96.9674 80ZM98.0874 68.135H101.517C102.264 68.135 102.812 67.9833 103.162 67.68C103.512 67.3533 103.687 66.84 103.687 66.14V63.41C103.687 62.6867 103.512 62.1617 103.162 61.835C102.812 61.5083 102.264 61.345 101.517 61.345H98.0874C97.8308 61.345 97.7024 61.4733 97.7024 61.73V67.75C97.7024 68.0067 97.8308 68.135 98.0874 68.135ZM119.433 74.96V79.265C119.433 79.755 119.211 80 118.768 80H115.653C115.186 80 114.953 79.755 114.953 79.265V74.995C114.953 74.5283 115.186 74.295 115.653 74.295H118.768C119.211 74.295 119.433 74.5167 119.433 74.96Z" fill="#EB00FF"/>
</svg>
